<svg width="36" height="25" viewBox="0 0 36 25" fill="none" xmlns="http://www.w3.org/2000/svg">
<path d="M12 0H0V25H12V0Z" fill="#464655"/>
<path d="M24 0H12V25H24V0Z" fill="#FF4B55"/>
<path d="M36 0H24V25H36V0Z" fill="#73AF00"/>
<path d="M19.3748 13.3451H17.125L17.25 13.0951H19.2498L19.3748 13.3451Z" fill="#F5F5F5"/>
<path d="M19.3748 11.3452H17.125L17.25 11.5952H19.2498L19.3748 11.3452Z" fill="#F5F5F5"/>
<path d="M18.8749 11.4702H17.625L17.875 11.2202H18.6249L18.8749 11.4702Z" fill="#F5F5F5"/>
<path d="M17.6245 12.7202H17.2495V12.9702H17.6245V12.7202Z" fill="#F5F5F5"/>
<path d="M17.6245 12.3452H17.2495V12.5952H17.6245V12.3452Z" fill="#F5F5F5"/>
<path d="M17.6245 11.7202H17.2495V11.9702H17.6245V11.7202Z" fill="#F5F5F5"/>
<path d="M17.6245 12.0952H17.2495V12.2202H17.6245V12.0952Z" fill="#F5F5F5"/>
<path d="M19.2495 12.7202H18.8745V12.9702H19.2495V12.7202Z" fill="#F5F5F5"/>
<path d="M19.2495 12.3452H18.8745V12.5952H19.2495V12.3452Z" fill="#F5F5F5"/>
<path d="M19.2495 11.7202H18.8745V11.9702H19.2495V11.7202Z" fill="#F5F5F5"/>
<path d="M19.2495 12.0952H18.8745V12.2202H19.2495V12.0952Z" fill="#F5F5F5"/>
<path d="M17.6245 10.7202H17.3745V11.2202H17.6245V10.7202Z" fill="#F5F5F5"/>
<path d="M17.625 10.5953H17.375V10.4586C17.375 10.3961 17.4257 10.3453 17.4883 10.3453H17.5117C17.5743 10.3453 17.625 10.3961 17.625 10.4586V10.5953H17.625Z" fill="#F5F5F5"/>
<path d="M19.1245 10.7202H18.8745V11.2202H19.1245V10.7202Z" fill="#F5F5F5"/>
<path d="M19.1245 10.5953H18.8745V10.4586C18.8745 10.3961 18.9252 10.3453 18.9878 10.3453H19.0112C19.0738 10.3453 19.1245 10.3961 19.1245 10.4586V10.5953H19.1245Z" fill="#F5F5F5"/>
<path d="M18.2968 11.7202H18.2031C17.9528 11.7202 17.75 11.923 17.75 12.1733V12.9701H18.7499V12.1733C18.7499 11.9231 18.5471 11.7202 18.2968 11.7202Z" fill="#F5F5F5"/>
<path d="M17.4224 12.5076L16.7418 11.7137C16.7463 11.7009 16.75 11.6876 16.75 11.6733C16.75 11.6043 16.694 11.5483 16.625 11.5483C16.556 11.5483 16.5 11.6043 16.5 11.6733C16.5 11.7424 16.556 11.7983 16.625 11.7983C16.6325 11.7983 16.6391 11.7953 16.6462 11.7941L16.7166 11.8762L16.375 12.6733L16.75 13.0482L17.0737 12.2928L17.3274 12.5889L17.4224 12.5076ZM16.8144 12.7688L16.5152 12.4695L16.6502 12.1545L16.9494 12.4538L16.8144 12.7688Z" fill="#F5F5F5"/>
<path d="M19.175 12.5889L19.4288 12.2928L19.7525 13.0482L20.1274 12.6733L19.7858 11.8762L19.8563 11.7941C19.8634 11.7954 19.8699 11.7983 19.8774 11.7983C19.9465 11.7983 20.0024 11.7424 20.0024 11.6733C20.0024 11.6043 19.9465 11.5483 19.8774 11.5483C19.8084 11.5483 19.7524 11.6043 19.7524 11.6733C19.7524 11.6876 19.7562 11.7009 19.7606 11.7137L19.0801 12.5076L19.175 12.5889ZM19.5532 12.4538L19.8523 12.1545L19.9874 12.4695L19.6882 12.7688L19.5532 12.4538Z" fill="#F5F5F5"/>
<path d="M18.3914 10.4921C18.3521 10.4805 18.3171 10.4591 18.2949 10.4247C18.2801 10.4017 18.265 10.3756 18.25 10.3453C18.2349 10.3756 18.2198 10.4017 18.205 10.4247C18.1828 10.4591 18.1478 10.4805 18.1085 10.4921C17.9014 10.5531 17.75 10.7434 17.75 10.9703C17.75 11.0137 17.7573 11.0551 17.7677 11.0953H18.7322C18.7426 11.0551 18.7499 11.0137 18.7499 10.9703C18.7499 10.7434 18.5984 10.5531 18.3914 10.4921Z" fill="#F5F5F5"/>
<path d="M15.3854 12.3305C15.3791 12.2528 15.375 12.1745 15.375 12.0952C15.375 11.9346 15.3895 11.7767 15.4153 11.6218C15.4514 11.6468 15.4891 11.6742 15.5283 11.705C15.51 11.8332 15.5 11.9634 15.5 12.0952C15.5 12.1877 15.5047 12.279 15.5136 12.3691L15.7778 12.4485C15.7613 12.3327 15.7499 12.2155 15.7499 12.0952C15.7499 12.0355 15.7535 11.9764 15.7582 11.9176C15.8962 12.0706 16.0051 12.2555 16.0051 12.4598C16.0051 12.465 16.4061 11.8661 15.677 11.2047L15.6718 11.4859L15.2519 11.4815C15.214 11.4811 15.1808 11.5079 15.1741 11.5452C15.1422 11.7248 15.125 11.9085 15.125 12.0952C15.125 12.1483 15.1264 12.201 15.129 12.2534L15.3854 12.3305Z" fill="#F5F5F5"/>
<path d="M16.4945 9.81928C16.5492 9.77719 16.5592 9.69868 16.517 9.64399C16.4748 9.5893 16.3963 9.57944 16.3417 9.62153C15.776 10.0584 15.3878 10.6586 15.2197 11.3309L15.4773 11.3342C15.6395 10.7392 15.9903 10.2087 16.4945 9.81928Z" fill="#F5F5F5"/>
<path d="M16.3271 10.1312C16.0552 10.3974 15.8495 10.7107 15.7095 11.051C15.7868 11.1145 15.8501 11.1787 15.9027 11.2425C16.0287 10.8955 16.2293 10.5769 16.502 10.3099C16.5513 10.2615 16.5522 10.1824 16.5039 10.1331C16.4554 10.0837 16.3764 10.0828 16.3271 10.1312Z" fill="#F5F5F5"/>
<path d="M15.8927 13.7339C15.7073 13.468 15.5657 13.1697 15.4778 12.8493L15.623 12.9027C15.7138 13.195 15.8515 13.4669 16.028 13.7091L16.3038 13.6587C16.148 13.4651 16.02 13.2483 15.9265 13.0142L16.0896 13.0741C16.1826 13.2785 16.3018 13.4663 16.4438 13.633L16.7309 13.5804C16.618 13.4651 16.5193 13.3355 16.4342 13.1955L16.2679 12.8629C16.2166 12.7602 16.125 12.6833 16.015 12.6502L15.6215 12.532L15.5306 12.5046L15.3996 12.4653L15.1391 12.387L15 12.3452L15.0861 12.6034C15.105 12.6601 15.1432 12.7074 15.1929 12.7385C15.2725 13.1162 15.42 13.4691 15.6226 13.7834L15.8927 13.7339Z" fill="#F5F5F5"/>
<path d="M20.8276 11.4859L20.8224 11.2047C20.0933 11.8661 20.4943 12.465 20.4943 12.4598C20.4943 12.2555 20.6032 12.0706 20.7412 11.9176C20.746 11.9764 20.7495 12.0355 20.7495 12.0952C20.7495 12.2155 20.7381 12.3327 20.7216 12.4485L20.9858 12.3691C20.9947 12.279 20.9994 12.1877 20.9994 12.0952C20.9994 11.9634 20.9893 11.8332 20.9711 11.705C21.0103 11.6742 21.048 11.6468 21.0841 11.6218C21.1099 11.7767 21.1244 11.9346 21.1244 12.0952C21.1244 12.1745 21.1203 12.2528 21.1139 12.3305L21.3703 12.2534C21.373 12.201 21.3743 12.1483 21.3743 12.0952C21.3743 11.9085 21.3571 11.7248 21.3252 11.5452C21.3186 11.5079 21.2853 11.4811 21.2475 11.4815L20.8276 11.4859Z" fill="#F5F5F5"/>
<path d="M21.0223 11.3344L21.2799 11.331C21.1118 10.6587 20.7236 10.0585 20.1579 9.62165C20.1033 9.57956 20.0249 9.58942 19.9826 9.64411C19.9404 9.6988 19.9505 9.77727 20.0051 9.81941C20.5093 10.2088 20.8602 10.7393 21.0223 11.3344Z" fill="#F5F5F5"/>
<path d="M20.79 11.0509C20.65 10.7106 20.4442 10.3972 20.1724 10.131C20.1231 10.0827 20.0441 10.0836 19.9957 10.133C19.9473 10.1823 19.9482 10.2614 19.9975 10.3097C20.2701 10.5768 20.4708 10.8954 20.5968 11.2424C20.6494 11.1786 20.7127 11.1144 20.79 11.0509Z" fill="#F5F5F5"/>
<path d="M21.3604 12.3869L21.0999 12.4652L20.9689 12.5046L20.8779 12.5319L20.4844 12.6502C20.3744 12.6832 20.2829 12.7601 20.2315 12.8629L20.0652 13.1954C19.9802 13.3354 19.8814 13.4651 19.7686 13.5803L20.0557 13.6329C20.1977 13.4662 20.3169 13.2784 20.4099 13.074L20.573 13.0141C20.4794 13.2482 20.3514 13.465 20.1957 13.6586L20.4715 13.7091C20.6479 13.4668 20.7856 13.1949 20.8764 12.9026L21.0217 12.8492C20.9338 13.1696 20.7921 13.4679 20.6068 13.7339L20.8768 13.7833C21.0794 13.4689 21.227 13.116 21.3065 12.7384C21.3562 12.7073 21.3944 12.66 21.4133 12.6033L21.4994 12.3451L21.3604 12.3869Z" fill="#F5F5F5"/>
<path d="M19.5523 13.7688L19.5458 13.7745C19.1822 14.0552 18.7306 14.22 18.2497 14.22C17.7688 14.22 17.3172 14.0552 16.9536 13.7745L16.9471 13.7688C16.9 13.7169 16.829 13.6937 16.7602 13.7076L15.5 13.97L15.7796 14.2151C15.8544 14.2806 15.9505 14.3112 16.0461 14.3056C16.2711 14.5297 16.5296 14.7202 16.8138 14.8682L16.7319 15.0193C17.1834 15.2649 17.7006 15.4045 18.2497 15.4045C18.7988 15.4045 19.316 15.2649 19.7675 15.0193L19.6856 14.8682C19.9698 14.7202 20.2283 14.5297 20.4533 14.3056C20.5489 14.3112 20.645 14.2806 20.7198 14.2151L20.9994 13.97L19.7392 13.7076C19.6705 13.6937 19.5995 13.7169 19.5523 13.7688ZM16.9333 14.6476C16.7067 14.5297 16.4993 14.3809 16.3127 14.2097L16.434 14.1518C16.6036 14.3018 16.79 14.4331 16.9925 14.5383L16.9333 14.6476ZM20.1867 14.2097C20.0001 14.3809 19.7927 14.5297 19.5661 14.6476L19.5069 14.5383C19.7095 14.4331 19.8958 14.3018 20.0654 14.1518L20.1867 14.2097ZM18.2497 14.5949C17.6544 14.5949 17.1089 14.3837 16.6794 14.0347L16.8042 13.9752C17.2097 14.2876 17.7136 14.4699 18.2497 14.4699C18.7857 14.4699 19.2897 14.2876 19.6952 13.9752L19.82 14.0347C19.3905 14.3837 18.845 14.5949 18.2497 14.5949Z" fill="#F5F5F5"/>
<path d="M16.8784 13.5917C16.9321 13.6371 16.9877 13.6801 17.0458 13.72H19.454C19.512 13.6801 19.5678 13.6371 19.6214 13.5917L19.4997 13.4701H17L16.8784 13.5917Z" fill="#F5F5F5"/>
</svg>
