<svg width="30" height="30" viewBox="0 0 30 30" fill="none" xmlns="http://www.w3.org/2000/svg">
<path d="M29.4141 25.3125H27.3633V11.4844C27.3633 11.1608 27.1009 10.8984 26.7773 10.8984H18.2227V8.20312H20.2734C20.4954 8.20312 20.6982 8.07773 20.7975 7.87922C20.8967 7.6807 20.8753 7.44316 20.7422 7.26562L15.4688 0.234375C15.3581 0.0868359 15.1844 0 15 0C14.8156 0 14.6419 0.0868359 14.5312 0.234375L9.25781 7.26562C9.12469 7.44316 9.10324 7.6807 9.2025 7.87922C9.30176 8.07773 9.50461 8.20312 9.72656 8.20312H11.7773V10.8984H3.22266C2.8991 10.8984 2.63672 11.1608 2.63672 11.4844V25.3125H0.585938C0.262383 25.3125 0 25.5748 0 25.8984C0 28.16 1.83996 30 4.10156 30H12.3633C12.6868 30 12.9492 29.7376 12.9492 29.4141C12.9492 29.0905 12.6868 28.8281 12.3633 28.8281H4.10156C2.68676 28.8281 1.50293 27.82 1.23076 26.4838H28.7692C28.4971 27.82 27.3132 28.8281 25.8984 28.8281H17.6367C17.3132 28.8281 17.0508 29.0905 17.0508 29.4141C17.0508 29.7376 17.3132 30 17.6367 30H25.8984C28.16 30 30 28.16 30 25.8984C30 25.5748 29.7377 25.3125 29.4141 25.3125ZM10.8984 7.03125L15 1.56252L19.1016 7.03125H17.6367C17.3132 7.03125 17.0508 7.29357 17.0508 7.61719V14.4141H12.9492V7.61719C12.9492 7.29357 12.6868 7.03125 12.3633 7.03125H10.8984ZM26.1914 25.3125H3.80859V12.0703H11.7773V15C11.7773 15.3236 12.0397 15.5859 12.3633 15.5859H17.6367C17.9603 15.5859 18.2227 15.3236 18.2227 15V12.0703H26.1914V25.3125Z" fill="black"/>
</svg>
