<svg width="33" height="31" viewBox="0 0 33 31" fill="none" xmlns="http://www.w3.org/2000/svg">
<path d="M9.5393 23.448C8.09755 23.3744 8.1247 21.3465 9.53923 21.2761C13.5462 21.29 24.1147 21.2798 28.2491 21.2827C29.3799 21.2827 30.3473 20.5132 30.6016 19.4115L32.9492 9.24566C33.0837 8.6636 32.948 8.06116 32.5771 7.59291C32.2062 7.12467 31.6509 6.85234 31.0535 6.85234C29.3903 6.85234 15.2724 6.78843 8.04125 6.75961L6.89499 2.50647C6.61982 1.49009 5.6923 0.780273 4.63935 0.780273H0.967311C0.433097 0.780273 0 1.21337 0 1.74758C0 2.2818 0.433097 2.7149 0.967311 2.7149H4.63935C4.82063 2.7149 4.98023 2.8371 5.02737 3.01102L9.4296 19.3441C8.65556 19.3722 7.93459 19.6871 7.38787 20.2418C6.81341 20.8248 6.50491 21.5964 6.51916 22.4147C6.54766 24.0512 7.90248 25.3826 9.5393 25.3826H10.9498C10.7401 25.8227 10.6224 26.3146 10.6224 26.8336C10.6224 28.7005 12.1412 30.2193 14.0081 30.2193C15.8751 30.2193 17.3939 28.7005 17.3939 26.8336C17.3939 26.3146 17.2761 25.8227 17.0665 25.3826H23.1744C22.965 25.8225 22.8473 26.3142 22.8473 26.8331C22.8473 28.7 24.3662 30.2188 26.233 30.2188C28.0999 30.2188 29.6188 28.7 29.6188 26.8331C29.6188 26.2941 29.4915 25.7844 29.2664 25.3315C29.6492 25.2026 29.9252 24.8415 29.9252 24.4153C29.9252 23.8811 29.4921 23.448 28.9579 23.448H9.5393ZM15.4592 26.8337C15.4592 27.6339 14.8082 28.2848 14.0081 28.2848C13.2079 28.2848 12.557 27.6339 12.557 26.8337C12.557 26.034 13.2073 25.3833 14.0069 25.3827H14.0093C14.8089 25.3833 15.4592 26.034 15.4592 26.8337ZM26.2331 28.2843C25.433 28.2843 24.782 27.6333 24.782 26.8332C24.782 26.0409 25.4203 25.3954 26.2095 25.3827H26.2567C27.046 25.3954 27.6843 26.0409 27.6843 26.8332C27.6842 27.6333 27.0332 28.2843 26.2331 28.2843ZM31.0606 8.79406C31.0663 8.80128 31.0655 8.8047 31.0643 8.81024L30.0751 13.0938H26.7255L27.2959 8.77168L31.0458 8.78677C31.0515 8.7869 31.0549 8.7869 31.0606 8.79406ZM21.088 19.3481V15.0284H24.5188L23.9487 19.3481H21.088ZM16.2913 19.3481L15.7165 15.0284H19.1533V19.3481H16.2913ZM11.8382 19.3481H11.8352C11.5994 19.348 11.3917 19.189 11.3304 18.9624L10.2701 15.0284H13.7648L14.3395 19.3481H11.8382ZM15.4591 13.0939L14.8774 8.7217L19.1533 8.73892V13.0939H15.4591ZM21.088 13.0939V8.74672L25.3455 8.76388L24.7741 13.0939H21.088ZM12.9246 8.71377L13.5074 13.0938H9.74862L8.56334 8.69616L12.9246 8.71377ZM28.2491 19.3481H25.9001L26.4701 15.0284H29.6283L28.7166 18.9762C28.6661 19.1952 28.4738 19.3481 28.2491 19.3481Z" fill="white"/>
</svg>
