<svg width="45" height="41" viewBox="0 0 45 41" fill="none" xmlns="http://www.w3.org/2000/svg">
<path d="M14.0625 13.8624H4.21875C3.98565 13.8624 3.7621 13.9562 3.59727 14.123C3.43244 14.2899 3.33984 14.5162 3.33984 14.7522V17.5994C3.33984 17.8354 3.43244 18.0617 3.59727 18.2286C3.7621 18.3954 3.98565 18.4892 4.21875 18.4892H14.0625C14.2956 18.4892 14.5192 18.3954 14.684 18.2286C14.8488 18.0617 14.9414 17.8354 14.9414 17.5994V14.7522C14.9414 14.5162 14.8488 14.2899 14.684 14.123C14.5192 13.9562 14.2956 13.8624 14.0625 13.8624ZM13.1836 16.7096H5.09766V15.6419H13.1836V16.7096Z" fill="#234F14" stroke="#234F14" stroke-width="0.4"/>
<path d="M9.84375 20.1797H4.30664C4.07354 20.1797 3.84999 20.2734 3.68516 20.4403C3.52033 20.6072 3.42773 20.8335 3.42773 21.0694C3.42773 21.3054 3.52033 21.5317 3.68516 21.6986C3.84999 21.8655 4.07354 21.9592 4.30664 21.9592H9.84375C10.0768 21.9592 10.3004 21.8655 10.4652 21.6986C10.6301 21.5317 10.7227 21.3054 10.7227 21.0694C10.7227 20.8335 10.6301 20.6072 10.4652 20.4403C10.3004 20.2734 10.0768 20.1797 9.84375 20.1797Z" fill="#234F14" stroke="#234F14" stroke-width="0.4"/>
<path d="M44.5032 24.7101C44.4053 22.0729 44.208 19.5985 44.2061 19.5738C44.1917 19.3944 44.1239 19.2237 44.0117 19.0842C43.8995 18.9446 43.7481 18.8428 43.5776 18.7921L38.8477 17.3863V2.56251C38.847 1.94918 38.606 1.36116 38.1776 0.92747C37.7492 0.493777 37.1684 0.249828 36.5625 0.249146H2.8125C2.20665 0.249828 1.6258 0.493777 1.1974 0.92747C0.768992 1.36116 0.528018 1.94918 0.527344 2.56251V25.3403C0.528018 25.9536 0.768992 26.5416 1.1974 26.9753C1.6258 27.409 2.20665 27.653 2.8125 27.6537H22.9414C22.9552 30.1749 23.1745 31.0088 23.3838 31.4326C23.5407 31.7503 23.9574 32.594 28.6924 36.5861C30.9735 38.5093 33.1872 40.2603 33.2094 40.2777C33.3639 40.3998 33.5542 40.4661 33.7502 40.4661C33.9461 40.4661 34.1365 40.3998 34.291 40.2777C34.3131 40.2599 36.5269 38.5093 38.8079 36.5861C43.5428 32.594 43.9595 31.7503 44.1165 31.4326C44.3918 30.8746 44.6848 29.6062 44.5032 24.7101ZM2.28516 7.7231H37.0899V10.2144H2.28516V7.7231ZM2.8125 2.02866H36.5625C36.7023 2.0288 36.8364 2.08509 36.9352 2.18518C37.0341 2.28526 37.0897 2.42097 37.0899 2.56251V5.94359H2.28516V2.56251C2.2853 2.42097 2.3409 2.28526 2.43977 2.18518C2.53863 2.08509 2.67268 2.0288 2.8125 2.02866ZM2.28516 25.3403V11.9939H37.0899V16.8639L33.9975 15.9449C33.8359 15.8969 33.6641 15.8969 33.5025 15.9449L23.9224 18.7921C23.7519 18.8428 23.6005 18.9446 23.4883 19.0842C23.3761 19.2237 23.3083 19.3944 23.2939 19.5738C23.292 19.5985 23.0948 22.0729 22.9969 24.7101C22.9816 25.1235 22.9697 25.5109 22.9608 25.8741H2.8125C2.67268 25.874 2.53863 25.8177 2.43977 25.7176C2.3409 25.6175 2.2853 25.4818 2.28516 25.3403ZM42.544 30.6368C42.126 31.483 37.8413 35.1864 33.75 38.4459C29.6588 35.1866 25.374 31.4833 24.956 30.6368C24.9011 30.5256 24.6678 29.8668 24.7028 26.7769C24.7028 26.7725 24.7034 26.768 24.7034 26.7639C24.7034 26.7611 24.7034 26.7585 24.7034 26.7558C24.7101 26.1845 24.7258 25.5308 24.7536 24.7824C24.8211 22.9597 24.9369 21.2145 25.0008 20.3263L33.75 17.7259L42.4996 20.3263C42.5633 21.2133 42.679 22.955 42.7466 24.7768C42.9258 29.6013 42.6094 30.5047 42.544 30.6368Z" fill="#234F14" stroke="#234F14" stroke-width="0.4"/>
<path d="M40.2411 21.5097L33.9979 19.6542C33.8362 19.6062 33.6644 19.6062 33.5027 19.6542L27.2595 21.5097C27.0858 21.5613 26.9321 21.666 26.8193 21.8095C26.7066 21.9529 26.6404 22.128 26.6298 22.311C26.4795 24.8864 26.3749 28.1453 26.5325 29.5683C26.5536 29.758 26.6343 29.9358 26.7629 30.0755C27.8346 31.2402 30.7901 33.757 33.1984 35.724C33.3547 35.8517 33.5495 35.9213 33.7503 35.9213C33.9511 35.9213 34.1459 35.8517 34.3022 35.724C36.7104 33.757 39.666 31.2402 40.7377 30.0755C40.8663 29.9358 40.947 29.758 40.9681 29.5683C41.1254 28.1453 41.0208 24.8863 40.8708 22.311C40.8602 22.128 40.794 21.9529 40.6813 21.8095C40.5685 21.666 40.4148 21.5613 40.2411 21.5097ZM39.247 29.0773C38.3302 30.0101 36.2587 31.8232 33.7503 33.8872C31.2423 31.823 29.1704 30.0101 28.2536 29.0773C28.1738 27.9361 28.2097 25.6689 28.3497 23.0405L33.7503 21.4352L39.1509 23.0403C39.2909 25.6686 39.3268 27.9359 39.247 29.0773Z" fill="#234F14" stroke="#234F14" stroke-width="0.4"/>
<path d="M37.1117 23.9338C37.0215 23.8608 36.9181 23.8064 36.8072 23.7739C36.6964 23.7414 36.5803 23.7313 36.4655 23.7442C36.3508 23.7571 36.2397 23.7928 36.1386 23.8491C36.0375 23.9055 35.9484 23.9815 35.8763 24.0727L33.5672 26.9948L32.1283 26.0237C31.9343 25.8954 31.6982 25.8498 31.4712 25.8968C31.2442 25.9439 31.0447 26.0798 30.9162 26.2749C30.7877 26.4701 30.7404 26.7088 30.7848 26.939C30.8292 27.1692 30.9616 27.3724 31.1532 27.5043L33.2626 28.9279C33.4456 29.0514 33.6677 29.1009 33.885 29.0668C34.1023 29.0327 34.2991 28.9173 34.4365 28.7434L37.249 25.1844C37.3211 25.0932 37.3747 24.9884 37.4068 24.8762C37.439 24.764 37.4489 24.6464 37.4362 24.5303C37.4234 24.4142 37.3882 24.3017 37.3325 24.1993C37.2769 24.097 37.2018 24.0067 37.1117 23.9338Z" fill="#234F14" stroke="#234F14" stroke-width="0.4"/>
</svg>
