<svg width="10" height="10" viewBox="0 0 10 10" fill="none" xmlns="http://www.w3.org/2000/svg">
<path d="M3.98905 0.366211L3.7819 1.6933L2.79412 3.0204L1.37653 3.46529L0 3.0204L1.92034 0.366211H3.98905Z" fill="#E39069"/>
<path d="M2.79412 3.02051L4.23503 5.58519L5.00006 9.63417L0 3.02051H2.79412Z" fill="#ECC443"/>
<path d="M4.99989 0.366211L5.43894 1.61776L4.99989 3.0204H2.79395L3.98888 0.366211H4.99989Z" fill="#ECC343"/>
<path d="M5.60484 5.68373L4.9999 9.63417L2.79395 3.02051H4.9999L5.60484 5.68373Z" fill="#E39069"/>
<path d="M5 3.02051V9.63417L6.91898 5.63599L7.20583 3.02051H5Z" fill="#DC4C69"/>
<path d="M6.07721 0.366211H5V3.0204H7.20583L7.16081 1.53762L6.07721 0.366211Z" fill="#E39069"/>
<path d="M9.99988 3.0204L8.06779 0.366211H6.07715L7.20576 3.0204L8.58432 3.41072L9.99988 3.0204Z" fill="#DC4C69"/>
<path d="M7.20582 3.02051L5 9.63417L9.99994 3.02051H7.20582Z" fill="#E39069"/>
</svg>
