<svg width="15" height="15" viewBox="0 0 15 15" fill="none" xmlns="http://www.w3.org/2000/svg">
<g clip-path="url(#clip0)">
<path d="M12.3213 7.49978C12.0254 7.49978 11.7855 7.73962 11.7855 8.03549V13.3925C11.7855 13.6884 11.5457 13.9283 11.2498 13.9283H1.60712C1.31125 13.9283 1.0714 13.6884 1.0714 13.3925V2.67841C1.0714 2.38254 1.31125 2.14269 1.60712 2.14269H8.03561C8.33148 2.14269 8.57132 1.90285 8.57132 1.60698C8.57132 1.3111 8.33148 1.07129 8.03561 1.07129H1.60712C0.719532 1.07129 0 1.79082 0 2.67841V13.3925C0 14.2801 0.719532 14.9997 1.60712 14.9997H11.2499C12.1374 14.9997 12.857 14.2801 12.857 13.3925V8.03546C12.857 7.73962 12.6171 7.49978 12.3213 7.49978Z" fill="#656565"/>
<path d="M14.3999 0.600733C14.0152 0.216028 13.4935 -5.43028e-05 12.9495 8.47541e-06C12.4052 -0.00156098 11.8829 0.214898 11.4993 0.601078L4.44296 7.65684C4.38442 7.71582 4.34025 7.78752 4.31385 7.8663L3.24245 11.0805C3.14894 11.3613 3.3007 11.6646 3.58142 11.7581C3.63588 11.7762 3.69291 11.7855 3.75029 11.7855C3.8078 11.7855 3.86496 11.7762 3.91957 11.7582L7.13382 10.6868C7.21277 10.6605 7.28449 10.6161 7.34329 10.5572L14.3996 3.50087C15.2005 2.70007 15.2006 1.40163 14.3999 0.600733ZM13.6421 2.74389L6.67793 9.70809L4.59723 10.4029L5.2899 8.32487L12.2568 1.36069C12.6398 0.978438 13.2602 0.979066 13.6425 1.36208C13.8251 1.54504 13.9279 1.79273 13.9287 2.05122C13.9294 2.31109 13.8262 2.56045 13.6421 2.74389Z" fill="#656565"/>
</g>
<defs>
<clipPath id="clip0">
<rect width="15" height="15" fill="white"/>
</clipPath>
</defs>
</svg>
