<svg width="14" height="12" viewBox="0 0 14 12" fill="none" xmlns="http://www.w3.org/2000/svg">
<path d="M12.7695 0.667969H1.23047C0.552836 0.667969 0 1.2202 0 1.89844V10.1016C0 10.7775 0.550375 11.332 1.23047 11.332H12.7695C13.4455 11.332 14 10.7817 14 10.1016V1.89844C14 1.2225 13.4496 0.667969 12.7695 0.667969ZM12.5996 1.48828L7.02609 7.06184L1.40435 1.48828H12.5996ZM0.820312 9.9317V2.06439L4.77091 5.98111L0.820312 9.9317ZM1.40036 10.5117L5.35344 6.55863L6.73859 7.93189C6.89894 8.09087 7.15769 8.09035 7.31738 7.93063L8.66797 6.58004L12.5996 10.5117H1.40036ZM13.1797 9.93167L9.24801 6L13.1797 2.0683V9.93167Z" fill="#669966"/>
</svg>
