<svg width="31" height="21" viewBox="0 0 31 21" fill="none" xmlns="http://www.w3.org/2000/svg">
<path d="M5.75195 9.5918H13.6836C14.3809 9.5918 15.0176 9.85542 15.5 10.2878C15.9824 9.85536 16.6191 9.5918 17.3164 9.5918H25.248V-0.148076C25.248 -0.647285 24.8486 -1.0627 24.3494 -1.06445C24.3419 -1.06445 24.6593 -1.06445 6.66016 -1.06445C6.14333 -1.06445 5.75195 -0.640746 5.75195 -0.148076V9.5918Z" fill="black"/>
<path d="M16.4082 12.3164V14.4355H25.248C25.248 13.094 25.248 12.8185 25.248 11.4082H17.3164C16.8156 11.4082 16.4082 11.8156 16.4082 12.3164Z" fill="black"/>
<path d="M28.0643 5.23382C27.5044 5.25125 27.0645 5.72086 27.0645 6.28091C27.0645 6.42465 27.0645 15.8596 27.0645 15.3438C27.0645 15.8453 26.6578 16.252 26.1562 16.252C25.4302 16.252 4.1543 16.252 4.84375 16.252C4.34218 16.252 3.93555 15.8453 3.93555 15.3438C3.93555 15.0087 3.93555 6.19355 3.93555 6.28091C3.93555 5.72086 3.49555 5.25125 2.93574 5.23382C1.32216 5.18356 0 6.47442 0 8.07813V17.4023C0 18.9071 1.21984 20.127 2.72461 20.127H3.93555V21.1306C3.93555 21.6196 4.31136 22.0404 4.79985 22.0634C5.3214 22.088 5.75195 21.6724 5.75195 21.1563V20.127H25.248V21.1306C25.248 21.6196 25.6239 22.0404 26.1124 22.0634C26.6339 22.088 27.0645 21.6724 27.0645 21.1563V20.127H28.2754C29.7802 20.127 31 18.9071 31 17.4023V8.12929C31 6.45269 29.6675 5.18387 28.0643 5.23382Z" fill="black"/>
<path d="M14.5918 12.3164C14.5918 11.8156 14.1844 11.4082 13.6836 11.4082H5.75195V14.4355H14.5918V12.3164Z" fill="black"/>
</svg>
