<svg width="36" height="25" viewBox="0 0 36 25" fill="none" xmlns="http://www.w3.org/2000/svg">
<path d="M36 0H0V25H36V0Z" fill="#F0F0F0"/>
<path d="M9.34097 4.52886V2.71729H7.52935V4.52886H5.71777V6.34048H7.52935V8.15211H9.34097V6.34048H11.1526V4.52886H9.34097Z" fill="#D80027"/>
<path d="M27.6232 4.52886V2.71729H25.8116V4.52886H24V6.34048H25.8116V8.15211H27.6232V6.34048H29.4348V4.52886H27.6232Z" fill="#D80027"/>
<path d="M9.34097 18.6595V16.8479H7.52935V18.6595H5.71777V20.4711H7.52935V22.2827H9.34097V20.4711H11.1526V18.6595H9.34097Z" fill="#D80027"/>
<path d="M27.6232 18.6595V16.8479H25.8116V18.6595H24V20.4711H25.8116V22.2827H27.6232V20.4711H29.4348V18.6595H27.6232Z" fill="#D80027"/>
<path d="M19.125 0H16V25H19.125V0Z" fill="#D80027"/>
<path d="M36 11H0V14H36V11Z" fill="#D80027"/>
</svg>
