<svg width="30" height="30" viewBox="0 0 30 30" fill="none" xmlns="http://www.w3.org/2000/svg">
<g clip-path="url(#clip0)">
<path d="M6.58856 2.24207C6.10307 2.24207 5.70947 2.63566 5.70947 3.12116C5.70947 3.60665 6.10307 4.00025 6.58856 4.00025H7.74064V2.24207H6.58856Z" fill="black"/>
<path d="M14.7915 2.24207V4.00025H17.2707C17.3978 3.38172 17.6048 2.79214 17.8795 2.24207H14.7915Z" fill="black"/>
<path d="M0.21875 21.3088C0.21875 23.0858 0.630048 24.7817 1.44116 26.3493C2.17227 27.7622 3.21968 29.0192 4.48082 30H18.0511C19.3123 29.0192 20.3598 27.7622 21.0908 26.3493C21.902 24.7817 22.3132 23.0858 22.3132 21.3088C22.3132 16.5209 19.2325 12.4376 14.9438 10.9235H7.58812C3.29944 12.4376 0.21875 16.5209 0.21875 21.3088Z" fill="black"/>
<path d="M8.27979 6.63054V9.16525H14.2528V6.63054C14.2528 6.44434 14.1013 6.29285 13.9151 6.29285H13.9128H8.61982H8.61747C8.43128 6.29285 8.27979 6.44434 8.27979 6.63054Z" fill="black"/>
<path d="M12.6957 0.0139771H9.83622C9.65003 0.0139771 9.49854 0.165415 9.49854 0.351665V4.53479H13.0333V0.351665C13.0334 0.165415 12.8819 0.0139771 12.6957 0.0139771Z" fill="black"/>
<path d="M24.3317 10.9136C27.3419 10.9136 29.7821 8.47053 29.7821 5.45682C29.7821 2.4431 27.3419 0 24.3317 0C21.3216 0 18.8813 2.4431 18.8813 5.45682C18.8813 8.47053 21.3216 10.9136 24.3317 10.9136Z" fill="black"/>
</g>
<defs>
<clipPath id="clip0">
<rect width="30" height="30" fill="white"/>
</clipPath>
</defs>
</svg>
