<svg width="50" height="50" viewBox="0 0 50 50" fill="none" xmlns="http://www.w3.org/2000/svg">
<path d="M37.9033 45.1612H7.25809V4.0322C7.25809 2.25075 5.81373 0.806396 4.03228 0.806396H3.22583H34.6774C36.4589 0.806396 37.9033 2.25075 37.9033 4.0322V45.1612Z" fill="#ECECEC"/>
<path d="M7.25806 45.1612H41.129C42.9105 45.1612 44.3548 43.7169 44.3548 41.9354V38.7096H13.7097V41.9354C13.7097 43.7169 12.2653 45.1612 10.4839 45.1612H7.25806Z" fill="#FEA82F"/>
<path d="M7.25801 10.4838H0.806396V4.0322C0.806396 2.25075 2.25075 0.806396 4.0322 0.806396C5.81365 0.806396 7.25801 2.25075 7.25801 4.0322V10.4838Z" fill="#FEA82F"/>
<path d="M37.9032 15.6929C34.6314 16.7203 32.2581 19.7759 32.2581 23.3872C32.2581 26.9977 34.6314 30.0534 37.9032 31.0816V15.6929Z" fill="#B6C1CE"/>
<path d="M41.129 29.0322C45.5829 29.0322 49.1935 25.4216 49.1935 20.9677C49.1935 16.5138 45.5829 12.9032 41.129 12.9032C36.6751 12.9032 33.0645 16.5138 33.0645 20.9677C33.0645 25.4216 36.6751 29.0322 41.129 29.0322Z" fill="#FEA82F"/>
<path d="M41.129 27.4193C36.9475 27.4193 33.5096 24.2363 33.1048 20.1613C33.079 20.4266 33.0645 20.6951 33.0645 20.9677C33.0645 25.4217 36.6749 29.0322 41.129 29.0322C45.583 29.0322 49.1935 25.4217 49.1935 20.9677C49.1935 20.6951 49.179 20.4266 49.1532 20.1613C48.7483 24.2363 45.3104 27.4193 41.129 27.4193Z" fill="#FF8031"/>
<path d="M10.4838 42.7419H0.806396V49.1936H10.4838V42.7419Z" fill="#92E0C0"/>
<path d="M33.8709 4.03223H11.2903V12.9032H33.8709V4.03223Z" fill="#92E0C0"/>
<path d="M7.25801 8.06458H0.806396V10.4839H7.25801V8.06458Z" fill="#FF8031"/>
<path d="M10.4838 46.7742H0.806396V49.1935H10.4838V46.7742Z" fill="#48C397"/>
<path d="M4.03228 42.742L3.25083 36.4896C3.23389 36.3573 3.22583 36.2234 3.22583 36.0896V29.2331C3.22583 29.0992 3.23389 28.9654 3.25083 28.8331L3.9226 23.4613C3.99438 22.8855 4.22099 22.3396 4.57744 22.0605L9.18954 16.1291C9.4976 15.5541 9.97099 15.3226 10.4718 15.3226C11.3694 15.3226 12.0968 16.0501 12.0968 16.9476V17.2218C12.0968 17.5605 11.9912 17.8904 11.7944 18.1662L8.66535 22.5468C8.27422 23.0928 8.06454 23.7484 8.06454 24.421V29.0775C8.06454 29.5783 8.18148 30.0718 8.40486 30.5202L9.67744 33.0646L13.2089 29.5331C13.5299 29.2121 13.9645 29.0323 14.4186 29.0323C15.3629 29.0323 16.1291 29.7984 16.1291 30.7428C16.1291 31.1968 15.9492 31.6315 15.6282 31.9525L9.67744 37.9033V42.742H4.03228Z" fill="#F9E0A6"/>
<path d="M10.4839 13.7097H34.6774V3.22583H10.4839V13.7097ZM12.0968 4.83873H33.0645V12.0968H12.0968V4.83873Z" fill="black"/>
<path d="M30.6452 25H14.5161V26.6129H30.6452V25Z" fill="black"/>
<path d="M20.9679 18.5483H16.1292V20.1612H20.9679V18.5483Z" fill="black"/>
<path d="M29.0323 18.5483H24.1936V20.1612H29.0323V18.5483Z" fill="black"/>
<path d="M20.9679 21.7742H16.1292V23.3871H20.9679V21.7742Z" fill="black"/>
<path d="M29.0323 21.7742H24.1936V23.3871H29.0323V21.7742Z" fill="black"/>
<path d="M34.6774 31.4517H21.7742V33.0646H34.6774V31.4517Z" fill="black"/>
<path d="M34.6773 34.6774H29.8386V36.2903H34.6773V34.6774Z" fill="black"/>
<path d="M26.6129 34.6774H21.7742V36.2903H26.6129V34.6774Z" fill="black"/>
<path d="M41.1291 18.5484C41.5742 18.5484 41.9355 18.9105 41.9355 19.3549H43.5484C43.5484 18.3049 42.8718 17.4178 41.9355 17.0839V15.3226H40.3226V17.0839C39.3863 17.4178 38.7097 18.3049 38.7097 19.3549C38.7097 20.6888 39.7952 21.7742 41.1291 21.7742C41.5742 21.7742 41.9355 22.1363 41.9355 22.5807C41.9355 23.0251 41.5742 23.3872 41.1291 23.3872C40.6839 23.3872 40.3226 23.0251 40.3226 22.5807H38.7097C38.7097 23.6307 39.3863 24.5178 40.3226 24.8517V26.613H41.9355V24.8517C42.8718 24.5178 43.5484 23.6307 43.5484 22.5807C43.5484 21.2468 42.4629 20.1613 41.1291 20.1613C40.6839 20.1613 40.3226 19.7992 40.3226 19.3549C40.3226 18.9105 40.6839 18.5484 41.1291 18.5484Z" fill="black"/>
<path d="M46.7743 20.1613H45.1614V21.7742H46.7743V20.1613Z" fill="black"/>
<path d="M37.0968 20.1613H35.4839V21.7742H37.0968V20.1613Z" fill="black"/>
<path d="M48.5492 25.8314C49.4984 24.3855 50 22.7032 50 20.9677C50 16.0766 46.0202 12.0968 41.129 12.0968C40.2895 12.0968 39.4798 12.2218 38.7097 12.4403V4.03226C38.7097 1.80887 36.9008 0 34.6774 0H4.03226C1.80887 0 0 1.80887 0 4.03226V11.2903H6.45161V17.2992L3.18548 21.4976C2.72903 21.9024 2.41452 22.5734 2.31532 23.3605L1.64435 28.7331C1.62419 28.8992 1.6129 29.0661 1.6129 29.2331V36.0895C1.6129 36.2573 1.62419 36.4234 1.64435 36.5895L2.3121 41.9355H0V50H11.2903V45.9677H41.129C43.3524 45.9677 45.1613 44.1589 45.1613 41.9355V37.9032H38.7097V29.4952C39.4798 29.7137 40.2895 29.8387 41.129 29.8387C43.504 29.8387 45.7355 28.9129 47.4113 27.2306L46.2694 26.0919C44.8976 27.4685 43.0718 28.2258 41.129 28.2258C37.1266 28.2258 33.871 24.9694 33.871 20.9677C33.871 16.9661 37.1266 13.7097 41.129 13.7097C45.1315 13.7097 48.3871 16.9661 48.3871 20.9677C48.3871 22.3879 47.9766 23.7637 47.2008 24.946L48.5492 25.8314ZM1.6129 9.67742V4.03226C1.6129 2.69839 2.69839 1.6129 4.03226 1.6129C5.36613 1.6129 6.45161 2.69839 6.45161 4.03226V9.67742H1.6129ZM3.24435 36.3903C3.23226 36.2903 3.22581 36.1895 3.22581 36.0895V29.2331C3.22581 29.1331 3.23226 29.0323 3.24435 28.9331L3.91532 23.5613C3.97177 23.1105 4.1371 22.796 4.26774 22.6944L9.02016 16.6242L9.09516 16.5089C9.275 16.1726 9.49435 16.129 9.66532 16.129C10.1169 16.129 10.4839 16.496 10.4839 16.9476V17.2218C10.4839 17.3935 10.4315 17.5581 10.3323 17.6976L7.20323 22.0782C6.71129 22.7653 6.45161 23.5758 6.45161 24.421V29.0774C6.45161 29.6992 6.59919 30.3234 6.87661 30.8806L7.56613 32.2581H7.25806V33.871H9.20484L12.9726 30.1032C13.1411 29.9355 13.3742 29.8387 13.6121 29.8387C14.1105 29.8387 14.5161 30.2444 14.5161 30.7427C14.5161 30.9847 14.4226 31.2113 14.2516 31.3823L8.06452 37.5694V41.9355H3.9379L3.24435 36.3903ZM9.67742 48.3871H1.6129V43.5484H9.67742V48.3871ZM43.5484 41.9355C43.5484 43.2694 42.4629 44.3548 41.129 44.3548H13.7081C14.2153 43.6806 14.5161 42.8427 14.5161 41.9355V39.5161H43.5484V41.9355ZM32.2581 20.9677C32.2581 24.4065 34.229 27.3879 37.0968 28.8597V37.9032H12.9032V41.9355C12.9032 42.9855 12.2266 43.8726 11.2903 44.2065V41.9355H9.67742V38.2371L15.3919 32.5226C15.8677 32.0476 16.129 31.4153 16.129 30.7427C16.129 29.3548 15 28.2258 13.6121 28.2258C12.9492 28.2258 12.3008 28.4944 11.8323 28.9629L9.09194 31.7032L8.31936 30.1597C8.15242 29.825 8.06452 29.4508 8.06452 29.0774V24.421C8.06452 23.9137 8.22016 23.4282 8.51532 23.0145L11.6444 18.6339C11.9403 18.2202 12.0968 17.7315 12.0968 17.221V16.9468C12.0968 15.6073 11.0056 14.5161 9.66532 14.5161C9.03952 14.5161 8.48226 14.7621 8.06452 15.2048V4.03226C8.06452 3.12097 7.74919 2.28871 7.2371 1.6129H34.6774C36.0113 1.6129 37.0968 2.69839 37.0968 4.03226V13.0758C34.229 14.5476 32.2581 17.529 32.2581 20.9677Z" fill="black"/>
</svg>
