<svg width="50" height="50" viewBox="0 0 50 50" fill="none" xmlns="http://www.w3.org/2000/svg">
<path d="M25 34.375C30.1777 34.375 34.375 30.1777 34.375 25C34.375 19.8223 30.1777 15.625 25 15.625C19.8223 15.625 15.625 19.8223 15.625 25C15.625 30.1777 19.8223 34.375 25 34.375Z" fill="#69D6F4"/>
<path d="M1.5625 1.5625H15.625V14.0625H1.5625V1.5625Z" fill="#D3A06C"/>
<path d="M6.25 1.5625H10.9375V4.6875H6.25V1.5625Z" fill="#B27946"/>
<path d="M40.625 17.1875C44.9397 17.1875 48.4375 13.6897 48.4375 9.375C48.4375 5.06028 44.9397 1.5625 40.625 1.5625C36.3103 1.5625 32.8125 5.06028 32.8125 9.375C32.8125 13.6897 36.3103 17.1875 40.625 17.1875Z" fill="#FCD770"/>
<path d="M45.3125 34.0703C45.3125 34.7734 45.1016 35.4688 44.7109 36.0625L43.75 37.5V36.125C43.75 35.5313 43.4141 34.9922 42.8828 34.7266L40.625 33.5938L38.3672 34.7266C37.8359 34.9922 37.5 35.5313 37.5 36.125V37.5L36.5391 36.0625C36.1484 35.4688 35.9375 34.7734 35.9375 34.0703C35.9375 33.0781 36.3437 32.1719 36.9922 31.5234C37.6406 30.875 38.5469 30.4688 39.5391 30.4688H41.7109C43.7031 30.4688 45.3125 32.0781 45.3125 34.0703Z" fill="#656D78"/>
<path d="M48.4375 48.4375H32.8125C32.8125 46.2812 33.6875 44.3281 35.1016 42.9141C36.5156 41.5 38.4688 40.625 40.625 40.625C44.9375 40.625 48.4375 44.125 48.4375 48.4375Z" fill="#B4DD7F"/>
<path d="M43.75 37.5V38.2812C43.75 39.5781 42.7031 40.625 41.4062 40.625H40.625H39.8438C38.5469 40.625 37.5 39.5781 37.5 38.2812V37.5V36.125C37.5 35.5313 37.8359 34.9922 38.3672 34.7266L40.625 33.5938L42.8828 34.7266C43.4141 34.9922 43.75 35.5313 43.75 36.125V37.5Z" fill="#F0D0B4"/>
<path d="M17.1875 39.0625V42.1875L15.2109 42.8438C15.1641 42.9609 15.125 43.0703 15.0703 43.1797L16.0078 45.0469L13.7969 47.2578L11.9297 46.3203C11.8203 46.375 11.7109 46.4141 11.5938 46.4609L10.9375 48.4375H7.8125L7.15625 46.4609C7.03906 46.4141 6.92969 46.375 6.82031 46.3203L4.95312 47.2578L2.74219 45.0469L3.67969 43.1797C3.625 43.0703 3.58594 42.9609 3.53906 42.8438L1.5625 42.1875V39.0625L3.53906 38.4062C3.58594 38.2891 3.625 38.1797 3.67969 38.0703L2.74219 36.2031L4.95312 33.9922L6.82031 34.9297C6.92969 34.875 7.03906 34.8359 7.15625 34.7891L7.8125 32.8125H10.9375L11.5938 34.7891C11.7109 34.8359 11.8203 34.875 11.9297 34.9297L13.7969 33.9922L16.0078 36.2031L15.0703 38.0703C15.125 38.1797 15.1641 38.2891 15.2109 38.4062L17.1875 39.0625ZM12.5 40.625C12.5 38.8984 11.1016 37.5 9.375 37.5C7.64844 37.5 6.25 38.8984 6.25 40.625C6.25 42.3516 7.64844 43.75 9.375 43.75C11.1016 43.75 12.5 42.3516 12.5 40.625Z" fill="#FCD770"/>
<path d="M25 35.1562C30.6 35.1562 35.1562 30.6 35.1562 25C35.1562 19.4 30.6 14.8438 25 14.8438C19.4 14.8438 14.8438 19.4 14.8438 25C14.8438 30.6 19.4 35.1562 25 35.1562ZM25 16.4062C25.8398 16.4062 26.7344 17.5992 27.3508 19.5312H22.6492C23.2656 17.5992 24.1602 16.4062 25 16.4062ZM27.7492 21.0938C27.9398 22.0383 28.068 23.0883 28.1086 24.2188H21.8914C21.932 23.0883 22.0609 22.0383 22.2508 21.0938H27.7492ZM33.5539 24.2188H29.6703C29.6344 23.1102 29.5266 22.0602 29.3508 21.0938H32.6453C33.1344 22.0477 33.4531 23.1016 33.5539 24.2188ZM25 33.5938C24.1602 33.5938 23.2656 32.4008 22.6492 30.4688H27.3508C26.7344 32.4008 25.8398 33.5938 25 33.5938ZM22.2508 28.9062C22.0602 27.9617 21.932 26.9117 21.8914 25.7812H28.1086C28.068 26.9117 27.9391 27.9617 27.7492 28.9062H22.2508ZM29.6703 25.7812H33.5539C33.4523 26.8984 33.1344 27.9523 32.6445 28.9062H29.35C29.5266 27.9398 29.6352 26.8898 29.6703 25.7812ZM20.3297 24.2188H16.4461C16.5477 23.1016 16.8656 22.0477 17.3555 21.0938H20.65C20.4734 22.0602 20.3648 23.1102 20.3297 24.2188ZM20.3297 25.7812C20.3656 26.8898 20.4734 27.9398 20.6492 28.9062H17.3547C16.8656 27.9523 16.5469 26.8984 16.4453 25.7812H20.3297ZM18.3758 30.4688H21.0117C21.2992 31.4805 21.6664 32.3609 22.0984 33.0789C20.6344 32.5516 19.35 31.6461 18.3758 30.4688ZM27.9016 33.0789C28.3336 32.3609 28.7008 31.4805 28.9883 30.4688H31.6242C30.65 31.6461 29.3656 32.5516 27.9016 33.0789ZM31.6242 19.5312H28.9883C28.7008 18.5195 28.3336 17.6391 27.9016 16.9211C29.3656 17.4484 30.65 18.3539 31.6242 19.5312ZM22.0984 16.9211C21.6664 17.6391 21.2992 18.5195 21.0117 19.5312H18.3758C19.35 18.3539 20.6344 17.4484 22.0984 16.9211Z" fill="black"/>
<path d="M41.4062 11.7188H39.8438C39.4133 11.7188 39.0625 11.3688 39.0625 10.9375H37.5C37.5 12.2297 38.5516 13.2812 39.8438 13.2812V14.8438H41.4062V13.2812C42.6984 13.2812 43.75 12.2297 43.75 10.9375C43.75 9.64531 42.6984 8.59375 41.4062 8.59375H39.8438C39.4133 8.59375 39.0625 8.24375 39.0625 7.8125C39.0625 7.38125 39.4133 7.03125 39.8438 7.03125H41.4062C41.8367 7.03125 42.1875 7.38125 42.1875 7.8125H43.75C43.75 6.52031 42.6984 5.46875 41.4062 5.46875V3.90625H39.8438V5.46875C38.5516 5.46875 37.5 6.52031 37.5 7.8125C37.5 9.10469 38.5516 10.1562 39.8438 10.1562H41.4062C41.8367 10.1562 42.1875 10.5062 42.1875 10.9375C42.1875 11.3688 41.8367 11.7188 41.4062 11.7188Z" fill="black"/>
<path d="M40.625 17.9688C45.3633 17.9688 49.2188 14.1133 49.2188 9.375C49.2188 4.63672 45.3633 0.78125 40.625 0.78125C35.8867 0.78125 32.0312 4.63672 32.0312 9.375C32.0312 14.1133 35.8867 17.9688 40.625 17.9688ZM40.625 2.34375C44.5016 2.34375 47.6562 5.49766 47.6562 9.375C47.6562 13.2523 44.5016 16.4062 40.625 16.4062C36.7484 16.4062 33.5938 13.2523 33.5938 9.375C33.5938 5.49766 36.7484 2.34375 40.625 2.34375Z" fill="black"/>
<path d="M43.6773 40.4141C44.2031 39.8547 44.5312 39.1078 44.5312 38.2812V37.7367L45.3586 36.4961C45.8391 35.7742 46.0938 34.9344 46.0938 34.0664C46.0938 31.6523 44.1289 29.6875 41.7148 29.6875H39.5359C37.1211 29.6875 35.1562 31.6523 35.1562 34.0664C35.1562 34.9336 35.4109 35.7742 35.8914 36.4953L36.7188 37.7367V38.2812C36.7188 39.1078 37.0469 39.8547 37.5727 40.4141C34.3383 41.6492 32.0312 44.775 32.0312 48.4375V49.2188H49.2188V48.4375C49.2188 44.775 46.9117 41.6492 43.6773 40.4141ZM39.5352 31.25H41.7141C43.268 31.25 44.5312 32.5133 44.5312 34.0664C44.5312 34.4367 44.4523 34.7977 44.3133 35.1359C44.0953 34.6641 43.7227 34.2695 43.2359 34.0258L40.625 32.7203L38.0141 34.0258C37.5273 34.2695 37.1547 34.6641 36.9367 35.1359C36.7977 34.7977 36.7188 34.4375 36.7188 34.0664C36.7188 32.5133 37.982 31.25 39.5352 31.25ZM39.8438 39.8438C38.982 39.8438 38.2812 39.143 38.2812 38.2812V36.1219C38.2812 35.8242 38.4469 35.5562 38.7133 35.4227L40.625 34.4672L42.5367 35.4234C42.8031 35.557 42.9688 35.8242 42.9688 36.1219V38.2812C42.9688 39.143 42.268 39.8438 41.4062 39.8438H39.8438ZM33.6367 47.6562C34.0266 44.1453 37.0117 41.4062 40.625 41.4062C44.2383 41.4062 47.2234 44.1453 47.6133 47.6562H33.6367Z" fill="black"/>
<path d="M16.9547 36.0516L13.9484 33.0453L12.1406 33.9492L11.5008 32.0312H7.24922L6.60938 33.9492L4.80156 33.0453L1.79531 36.0516L2.7 37.8602L0.78125 38.4992V42.75L2.7 43.3891L1.79531 45.1977L4.80156 48.2039L6.60938 47.3L7.24922 49.2188H11.5L12.1398 47.3008L13.9477 48.2047L16.9539 45.1984L16.0492 43.3898L17.9688 42.7508V38.5L16.05 37.8609L16.9547 36.0516ZM16.4062 39.6258V41.625L14.6109 42.2234L14.4797 42.5711C14.4422 42.6703 14.4031 42.768 14.3602 42.8641L14.2086 43.2023L15.0531 44.8914L13.6398 46.3047L11.9508 45.4602L11.6125 45.6117C11.5148 45.6555 11.4164 45.6937 11.3164 45.7328L10.9719 45.8648L10.3742 47.6562H8.375L7.77734 45.8641L7.43281 45.732C7.33281 45.693 7.23359 45.6539 7.13672 45.6109L6.79844 45.4594L5.10938 46.3039L3.69609 44.8906L4.54062 43.2016L4.38906 42.8633C4.34609 42.7672 4.30703 42.6695 4.26953 42.5703L4.13828 42.2227L2.34375 41.6242V39.625L4.13906 39.0266L4.27031 38.6789C4.30781 38.5797 4.34687 38.482 4.38984 38.3859L4.54141 38.0477L3.69609 36.3594L5.10938 34.9461L6.79844 35.7906L7.13672 35.6391C7.23438 35.5953 7.33281 35.557 7.43281 35.518L7.77734 35.3859L8.37578 33.5938H10.375L10.9727 35.3859L11.3172 35.518C11.4172 35.557 11.5164 35.5961 11.6133 35.6391L11.9516 35.7906L13.6406 34.9461L15.0539 36.3594L14.2094 38.0484L14.3609 38.3867C14.4039 38.4828 14.443 38.5805 14.4805 38.6797L14.6117 39.0273L16.4062 39.6258Z" fill="black"/>
<path d="M9.375 36.7188C7.22109 36.7188 5.46875 38.4711 5.46875 40.625C5.46875 42.7789 7.22109 44.5312 9.375 44.5312C11.5289 44.5312 13.2812 42.7789 13.2812 40.625C13.2812 38.4711 11.5289 36.7188 9.375 36.7188ZM9.375 42.9688C8.08281 42.9688 7.03125 41.9172 7.03125 40.625C7.03125 39.3328 8.08281 38.2812 9.375 38.2812C10.6672 38.2812 11.7188 39.3328 11.7188 40.625C11.7188 41.9172 10.6672 42.9688 9.375 42.9688Z" fill="black"/>
<path d="M16.4062 0.78125H0.78125V14.8438H16.4062V0.78125ZM7.03125 2.34375H10.1562V3.90625H7.03125V2.34375ZM14.8438 13.2812H2.34375V2.34375H5.46875V5.46875H11.7188V2.34375H14.8438V13.2812Z" fill="black"/>
<path d="M39.8438 19.5312H41.4062V28.125H39.8438V19.5312Z" fill="black"/>
<path d="M17.9688 8.59375H30.4688V10.1562H17.9688V8.59375Z" fill="black"/>
<path d="M8.59375 16.4062H10.1562V30.4688H8.59375V16.4062Z" fill="black"/>
<path d="M19.5312 39.8438H33.5938V41.4062H19.5312V39.8438Z" fill="black"/>
</svg>
