<svg width="58" height="58" viewBox="0 0 58 58" fill="none" xmlns="http://www.w3.org/2000/svg">
<g clip-path="url(#clip0)">
<path d="M57.4286 0.148886C57.0753 -0.0527547 56.6407 -0.0493563 56.2907 0.157722L35.5314 12.4333C34.9929 12.7518 34.8145 13.4464 35.1329 13.9849C35.4512 14.5234 36.1459 14.7018 36.6845 14.3835L51.579 5.57596L23.8357 34.3622L10.0371 30.1407L28.0449 19.4922C28.5834 19.1737 28.7618 18.479 28.4434 17.9405C28.1251 17.4021 27.4303 17.2234 26.8918 17.542L6.67346 29.4976C6.28717 29.7261 6.07205 30.1609 6.12518 30.6067C6.17831 31.0525 6.48949 31.4247 6.9186 31.556L23.3975 36.5975L30.6676 49.8302C30.6752 49.8439 30.683 49.8555 30.691 49.8658C30.8123 50.0681 30.9942 50.2334 31.221 50.3287C31.3629 50.3884 31.5121 50.4176 31.6603 50.4176C31.9506 50.4176 32.2364 50.3059 32.4522 50.0948L40.8117 41.925L56.5358 46.7356C56.6446 46.7688 56.7561 46.7852 56.8672 46.7852C57.1069 46.7852 57.3436 46.7091 57.541 46.563C57.8297 46.3494 58.0001 46.0115 58.0001 45.6524V1.13285C58.0001 0.726054 57.7819 0.350413 57.4286 0.148886ZM30.7293 37.2956C30.5981 37.4851 30.5278 37.7101 30.5278 37.9406V44.8702L25.5635 35.8343L47.5311 13.041L30.7293 37.2956ZM32.7934 46.5936V39.472L38.3431 41.1698L32.7934 46.5936ZM55.7345 44.1212L33.4748 37.3111L55.7345 5.17744V44.1212Z" fill="white"/>
<path d="M18.6261 39.374C18.1836 38.9316 17.4666 38.9316 17.024 39.374L6.44896 49.949C6.0066 50.3914 6.0066 51.1087 6.44896 51.5512C6.67031 51.7723 6.9602 51.8829 7.25008 51.8829C7.53997 51.8829 7.82986 51.7723 8.0511 51.5511L18.6261 40.976C19.0685 40.5338 19.0685 39.8165 18.6261 39.374Z" fill="white"/>
<path d="M4.53926 53.4605C4.09679 53.0184 3.37972 53.0184 2.93724 53.4606L0.331772 56.0661C-0.110591 56.5084 -0.110591 57.2257 0.331772 57.6682C0.553011 57.8893 0.842897 57.9999 1.13278 57.9999C1.42267 57.9999 1.71256 57.8892 1.9338 57.6681L4.53926 55.0626C4.98163 54.6203 4.98163 53.903 4.53926 53.4605Z" fill="white"/>
<path d="M16.1592 55.9996C15.9486 55.7889 15.6563 55.6677 15.3584 55.6677C15.0592 55.6677 14.7682 55.7889 14.5575 55.9996C14.3468 56.2103 14.2256 56.5015 14.2256 56.8005C14.2256 57.0985 14.3467 57.3907 14.5575 57.6014C14.7682 57.8121 15.0605 57.9333 15.3584 57.9333C15.6563 57.9333 15.9486 57.8121 16.1592 57.6014C16.3699 57.3907 16.4912 57.0985 16.4912 56.8005C16.4912 56.5015 16.37 56.2103 16.1592 55.9996Z" fill="white"/>
<path d="M24.5878 47.5708C24.1457 47.1284 23.4286 47.1284 22.9858 47.5708L17.3845 53.172C16.9421 53.6143 16.9421 54.3316 17.3845 54.774C17.6057 54.9952 17.8956 55.1058 18.1855 55.1058C18.4754 55.1058 18.7653 54.9951 18.9865 54.774L24.5878 49.1728C25.0302 48.7304 25.0302 48.0132 24.5878 47.5708Z" fill="white"/>
<path d="M43.9194 47.1408C43.4769 46.6985 42.7599 46.6985 42.3174 47.1408L36.7009 52.7572C36.2585 53.1996 36.2585 53.9169 36.7009 54.3594C36.9222 54.5805 37.212 54.6912 37.5019 54.6912C37.7918 54.6912 38.0817 54.5805 38.3029 54.3594L43.9194 48.7429C44.3618 48.3005 44.3618 47.5832 43.9194 47.1408Z" fill="white"/>
<path d="M32.1149 15.4415C31.9042 15.2308 31.6119 15.1096 31.314 15.1096C31.016 15.1096 30.7238 15.2308 30.5131 15.4415C30.3025 15.6522 30.1812 15.9445 30.1812 16.2436C30.1812 16.5415 30.3024 16.8326 30.5131 17.0433C30.7238 17.2552 31.016 17.3752 31.314 17.3752C31.6119 17.3752 31.9042 17.2552 32.1149 17.0433C32.3255 16.8326 32.4468 16.5415 32.4468 16.2436C32.4468 15.9445 32.3256 15.6522 32.1149 15.4415Z" fill="white"/>
</g>
<defs>
<clipPath id="clip0">
<rect width="58" height="58" fill="white"/>
</clipPath>
</defs>
</svg>
