<svg width="50" height="50" viewBox="0 0 50 50" fill="none" xmlns="http://www.w3.org/2000/svg">
<g clip-path="url(#clip0)">
<path d="M33.3448 34.1224L30.4529 33.5562C29.1543 33.3019 28.2358 32.3327 28.2358 31.2166V28.4734H21.7639V31.2166C21.7639 32.3327 20.8454 33.3019 19.5468 33.5562L16.6549 34.1224C14.2845 34.5865 12.6082 36.3555 12.6082 38.3927V41.5005H37.3916V38.3926C37.3917 36.3555 35.7152 34.5865 33.3448 34.1224Z" fill="#FFE1B3"/>
<path d="M24.8881 32.1521C26.1328 32.1521 27.2867 31.7639 28.236 31.1025V28.4734H21.7641V31.2166C21.7641 31.228 21.7634 31.2392 21.7632 31.2505C22.6678 31.8214 23.7393 32.1521 24.8881 32.1521Z" fill="#F0C891"/>
<path d="M24.8881 30.7554C21.6496 30.7554 19.0244 28.1301 19.0244 24.8917V20.0979C19.0244 16.8595 21.6497 14.2343 24.8881 14.2343C28.1264 14.2343 30.7517 16.8595 30.7517 20.0979V24.8917C30.7517 28.1301 28.1264 30.7554 24.8881 30.7554Z" fill="#FFE1B3"/>
<path d="M25.969 14.334C27.4567 15.3975 28.4265 17.1391 28.4265 19.1072V23.901C28.4265 27.1394 25.8013 29.7647 22.5629 29.7647C22.1936 29.7647 21.8323 29.7302 21.4819 29.6649C22.4421 30.3513 23.6179 30.7553 24.8881 30.7553C28.1264 30.7553 30.7517 28.13 30.7517 24.8917V20.0978C30.7517 17.2288 28.691 14.8413 25.969 14.334Z" fill="#FAD7A5"/>
<path d="M18.7899 16.1342C18.4935 16.609 18.0956 17.3739 17.885 18.3888C17.7024 19.2691 17.7257 20.0239 17.7827 20.5439C18.4961 20.3678 19.0528 20.1158 19.4386 19.9085C19.5908 19.8266 20.3432 19.4149 21.1281 18.6546L18.7899 16.1342Z" fill="#B48765"/>
<path d="M32.3595 19.4523C31.8602 17.6025 31.0311 15.8412 29.6823 14.5367C29.2452 14.1139 27.6025 12.5248 25.1711 12.3992C25.1711 12.3992 22.634 12.2682 20.4433 14.1323C19.7824 14.6947 19.2382 15.3766 18.7898 16.1342C20.8288 19.0515 23.8878 20.9068 27.3082 20.9068C28.1505 20.9068 29.9105 20.6499 30.7514 20.098" fill="#966D50"/>
<path d="M29.6825 14.5366C29.2454 14.1137 27.6027 12.5247 25.1713 12.3991C25.1713 12.3991 24.4517 12.362 23.448 12.6088C25.1672 13.0828 26.3158 14.1935 26.6704 14.5366C28.0192 15.8412 28.8483 17.6025 29.3476 19.4522L27.7396 20.0978C27.2511 20.4183 26.4529 20.6391 25.7042 20.7681C26.2281 20.859 26.7636 20.9066 27.3084 20.9066C28.1507 20.9066 29.9107 20.6496 30.7516 20.0978L32.3596 19.4522C31.8603 17.6024 31.0312 15.8412 29.6825 14.5366Z" fill="#846047"/>
<path d="M31.9933 25.8606H30.7517V20.5438H31.9933C32.5838 20.5438 33.0625 21.0225 33.0625 21.6131V24.7915C33.0625 25.3819 32.5838 25.8606 31.9933 25.8606Z" fill="#53515E"/>
<path d="M31.6434 20.5438H30.752V25.8602H31.6434V20.5438Z" fill="#474756"/>
<path d="M17.7826 20.5438H19.0242V25.8606H17.7826C17.1921 25.8606 16.7134 25.3819 16.7134 24.7914V21.613C16.7135 21.0225 17.1922 20.5438 17.7826 20.5438Z" fill="#53515E"/>
<path d="M19.0239 20.5438H18.1621V25.8602H19.0239V20.5438Z" fill="#474756"/>
<path d="M33.3449 34.1225L30.453 33.5563C30.0035 33.4683 29.5997 33.2945 29.2636 33.0587C28.1235 34.0541 26.6322 34.6573 24.9999 34.6573C23.3676 34.6573 21.8763 34.0541 20.7362 33.0587C20.4002 33.2945 19.9963 33.4683 19.5468 33.5563L16.6549 34.1225C14.2845 34.5866 12.6082 36.3556 12.6082 38.3928V41.5006H37.3916V38.3927C37.3918 36.3556 35.7153 34.5866 33.3449 34.1225Z" fill="#FF9EA4"/>
<path d="M14.2251 35.2255C13.2197 36.0317 12.6082 37.1631 12.6082 38.3927V41.5005H17.3049V38.629C17.3049 36.8549 15.9542 35.3965 14.2251 35.2255Z" fill="#FF7B97"/>
<path d="M35.7747 35.2255C34.0455 35.3965 32.6948 36.8549 32.6948 38.629L32.6997 41.5005H37.3916V38.3926C37.3917 37.1631 36.7802 36.0317 35.7747 35.2255Z" fill="#FF7B97"/>
<path d="M48.1945 22.1627L44.6877 21.8453C44.4789 20.5319 44.142 19.2614 43.6899 18.0468L46.5833 16.0447C47.0809 15.7004 47.2338 15.0333 46.9357 14.5068L45.2882 11.5957C44.9901 11.0691 44.3395 10.8567 43.7882 11.1061L40.5777 12.5581C39.7975 11.5825 38.9279 10.6816 37.9807 9.8682L39.5444 6.71069C39.813 6.16841 39.6236 5.5108 39.1077 5.19439L36.2564 3.44577C35.7404 3.12946 35.0685 3.25875 34.7069 3.74401L32.6042 6.56577C31.195 5.98384 29.7047 5.55855 28.1546 5.31216L27.8373 1.80534C27.7827 1.20261 27.2775 0.741089 26.6723 0.741089H23.3274C22.7222 0.741089 22.2171 1.20261 22.1625 1.80534L21.8451 5.31216C20.5318 5.52095 19.2612 5.85787 18.0467 6.30991L16.0446 3.41647C15.7003 2.91881 15.0332 2.76598 14.5065 3.06403L11.5956 4.71178C11.069 5.00992 10.8566 5.66041 11.106 6.21177L12.558 9.42231C11.5823 10.2026 10.6815 11.0721 9.86808 12.0194L6.71057 10.4556C6.16829 10.187 5.51068 10.3764 5.19427 10.8923L3.44564 13.7437C3.12924 14.2596 3.25863 14.9316 3.74389 15.2931L6.56565 17.3957C5.98372 18.805 5.55853 20.2952 5.31204 21.8453L1.80522 22.1627C1.20249 22.2173 0.740967 22.7224 0.740967 23.3276V26.6725C0.740967 27.2777 1.20259 27.7829 1.80522 27.8375L5.31204 28.1548C5.52093 29.4682 5.85774 30.7387 6.30979 31.9534L3.41645 33.9554C2.91879 34.2997 2.76596 34.9668 3.06401 35.4935L4.71156 38.4045C5.0096 38.9312 5.66019 39.1436 6.21165 38.8942L9.42209 37.4421C10.2024 38.4178 11.0719 39.3187 12.0191 40.132L10.4554 43.2896C10.1868 43.8318 10.3762 44.4894 10.8921 44.8059L13.7435 46.5545C14.2594 46.8709 14.9313 46.7415 15.293 46.2562L17.3956 43.4345C18.8049 44.0165 20.2951 44.4417 21.8452 44.6881L22.1626 48.1949C22.2172 48.7976 22.7223 49.2592 23.3275 49.2592H26.6724C27.2776 49.2592 27.7829 48.7976 27.8374 48.1949L28.1547 44.6881C29.468 44.4793 30.7386 44.1424 31.9533 43.6903L33.9552 46.5838C34.2995 47.0814 34.9666 47.2343 35.4933 46.9362L38.4043 45.2887C38.931 44.9906 39.1434 44.34 38.894 43.7887L37.4419 40.5782C38.4176 39.798 39.3185 38.9284 40.1318 37.9812L43.2893 39.5449C43.8316 39.8135 44.4892 39.6241 44.8056 39.1082L46.5543 36.2569C46.8707 35.7409 46.7413 35.069 46.256 34.7074L43.4343 32.6047C44.0162 31.1955 44.4414 29.7052 44.6879 28.1551L48.1947 27.8378C48.7974 27.7832 49.259 27.278 49.259 26.6728V23.3279C49.2588 22.7224 48.7971 22.2173 48.1945 22.1627ZM25.1564 40.5536C16.5664 40.5536 9.60285 33.5901 9.60285 25.0001C9.60285 16.4101 16.5664 9.44652 25.1564 9.44652C33.7464 9.44652 40.71 16.4101 40.71 25.0001C40.71 33.5901 33.7464 40.5536 25.1564 40.5536Z" fill="#DFE2EA"/>
<path d="M24.9999 6.99646C15.0568 6.99646 6.99634 15.057 6.99634 25C6.99634 34.943 15.0568 43.0035 24.9999 43.0035C34.943 43.0035 43.0034 34.9431 43.0034 25C43.0034 15.0569 34.9429 6.99646 24.9999 6.99646ZM25.1564 40.5536C16.5664 40.5536 9.60287 33.59 9.60287 25C9.60287 16.41 16.5664 9.44645 25.1564 9.44645C33.7464 9.44645 40.71 16.41 40.71 25C40.71 33.59 33.7464 40.5536 25.1564 40.5536Z" fill="#C7CAD3"/>
<path d="M48.2613 21.4254L45.3205 21.1592C45.1404 20.2014 44.8918 19.255 44.5784 18.334L47.0049 16.6551C47.8233 16.0889 48.0709 15.0087 47.5807 14.1426L45.9331 11.2316C45.4429 10.3655 44.3895 10.0219 43.4828 10.4318L40.7894 11.6501C40.2022 10.9564 39.5683 10.2998 38.8966 9.68962L40.2086 7.0406C40.6503 6.14881 40.3436 5.08397 39.4953 4.56366L36.6439 2.81503C35.7957 2.29491 34.7076 2.50409 34.1128 3.30214L32.3496 5.66863C31.2128 5.23621 30.0373 4.90506 28.8416 4.68016L28.5754 1.73955C28.4856 0.748435 27.6675 0.000976562 26.6724 0.000976562H23.3274C22.3323 0.000976562 21.5142 0.748435 21.4245 1.73955L21.1583 4.68016C20.2005 4.86034 19.2543 5.10887 18.3329 5.42235L16.6539 2.99569C16.0877 2.17734 15.0077 1.93017 14.1415 2.42001L11.2306 4.06756C10.3645 4.5577 10.0207 5.61111 10.4307 6.51785L11.649 9.21149C10.9552 9.7987 10.2987 10.4326 9.68844 11.1042L7.03952 9.79225C6.14773 9.35065 5.08289 9.65719 4.56258 10.5056L2.81395 13.3571C2.29374 14.2054 2.50321 15.2935 3.30116 15.888L5.66756 17.6514C5.23533 18.788 4.90408 19.9636 4.67918 21.1592L1.73837 21.4254C0.74736 21.5153 0 22.3334 0 23.3284V26.6733C0 27.6684 0.74736 28.4865 1.73847 28.5764L4.67918 28.8425C4.85936 29.8004 5.10789 30.7466 5.42127 31.6678L2.99481 33.3467C2.17636 33.9129 1.9289 34.9929 2.41913 35.8592L4.06668 38.7702C4.55682 39.6362 5.61023 39.9799 6.51706 39.57L9.21051 38.3517C9.79781 39.0455 10.4316 39.702 11.1033 40.3122L9.79127 42.9612C9.34967 43.853 9.65631 44.9178 10.5046 45.4381L13.356 47.1868C14.2041 47.7071 15.2924 47.4976 15.8871 46.6996L17.6504 44.3331C18.7871 44.7655 19.9626 45.0966 21.1583 45.3216L21.4245 48.2622C21.5142 49.2533 22.3323 50.0008 23.3274 50.0008H26.6724C27.6675 50.0008 28.4856 49.2533 28.5754 48.2622L28.8416 45.3216C29.7994 45.1413 30.7459 44.8927 31.6669 44.5794L33.3458 47.006C33.9121 47.8244 34.9921 48.0719 35.8583 47.5818L38.7692 45.9342C39.6353 45.4441 39.9791 44.3907 39.5691 43.4838L38.3508 40.7903C39.0446 40.2031 39.701 39.5693 40.3114 38.8975L42.9603 40.2095C43.8522 40.651 44.9168 40.3445 45.4373 39.4962L47.1859 36.6447C47.7062 35.7964 47.4967 34.7083 46.6986 34.1137L44.3323 32.3504C44.7646 31.2139 45.0958 30.0381 45.3207 28.8425L48.2615 28.5764C49.2526 28.4865 50 27.6685 50 26.6733V23.3284C49.9998 22.3333 49.2524 21.5153 48.2613 21.4254ZM48.5177 26.6733C48.5177 26.8965 48.35 27.0801 48.1276 27.1002L44.6208 27.4176C44.2829 27.4481 44.009 27.7043 43.9558 28.0393C43.7222 29.5079 43.3162 30.9489 42.7491 32.3223C42.6197 32.6357 42.7194 32.997 42.9912 33.1994L45.8129 35.3019C45.9919 35.4353 46.039 35.6796 45.9223 35.8699L44.1737 38.7213C44.0568 38.9116 43.818 38.9802 43.6179 38.8813L40.4605 37.3175C40.1568 37.1672 39.7901 37.2416 39.5694 37.4988C38.7885 38.4081 37.9169 39.2496 36.9789 39.9999C36.7143 40.2114 36.6269 40.5754 36.7665 40.884L38.2185 44.0946C38.3105 44.298 38.2333 44.5344 38.039 44.6443L35.1281 46.2918C34.9338 46.4017 34.6915 46.3462 34.5644 46.1626L32.5625 43.2693C32.3696 42.9906 32.0124 42.8781 31.6946 42.9964C30.515 43.4355 29.2848 43.7586 28.0382 43.9569C27.7031 44.0102 27.4472 44.2842 27.4166 44.622L27.0992 48.1287C27.079 48.351 26.8955 48.5188 26.6723 48.5188H23.3273C23.1041 48.5188 22.9206 48.3511 22.9004 48.1287L22.583 44.622C22.5525 44.2841 22.2964 44.0103 21.9614 43.9569C20.4929 43.7234 19.0519 43.3173 17.6782 42.75C17.5864 42.7122 17.4905 42.6939 17.3956 42.6939C17.1668 42.6939 16.9444 42.8001 16.8012 42.9922L14.6987 45.814C14.5652 45.9931 14.321 46.0401 14.1308 45.9233L11.2794 44.1747C11.0891 44.0579 11.0204 43.819 11.1194 43.619L12.6832 40.4615C12.8335 40.158 12.7588 39.7911 12.5018 39.5704C11.5925 38.7897 10.7511 37.9181 10.0007 36.9799C9.78922 36.7154 9.42535 36.6282 9.11656 36.7675L5.90603 38.2196C5.70261 38.3115 5.46629 38.2344 5.35642 38.0401L3.70897 35.1292C3.59901 34.9348 3.65448 34.6926 3.83817 34.5656L6.73161 32.5637C7.01032 32.3708 7.12273 32.0134 7.00446 31.6957C6.5654 30.5159 6.24226 29.2856 6.04402 28.0393C5.9908 27.7042 5.71677 27.4481 5.37898 27.4176L1.87226 27.1002C1.6499 27.08 1.48222 26.8965 1.48222 26.6733V23.3284C1.48222 23.1053 1.6499 22.9217 1.87226 22.9016L5.37908 22.5841C5.71687 22.5535 5.9908 22.2974 6.04412 21.9624C6.27771 20.494 6.68366 19.053 7.25095 17.6794C7.38034 17.3661 7.28063 17.0048 7.00876 16.8024L4.1869 14.6997C4.00789 14.5663 3.96092 14.3222 4.07762 14.1319L5.82625 11.2805C5.94295 11.0902 6.18181 11.0214 6.38191 11.1205L9.53942 12.6842C9.84293 12.8343 10.2098 12.7601 10.4305 12.5029C11.2113 11.5936 12.0829 10.7523 13.021 10.0019C13.2856 9.7904 13.373 9.42643 13.2334 9.11774L11.7814 5.90711C11.6894 5.70369 11.7666 5.46736 11.9609 5.3575L14.8718 3.70995C15.0661 3.59999 15.3084 3.65546 15.4355 3.83905L17.4375 6.7325C17.6303 7.01111 17.9875 7.12351 18.3054 7.00535C19.4855 6.56609 20.7156 6.24295 21.9617 6.0449C22.2968 5.99168 22.5528 5.71766 22.5834 5.37977L22.9008 1.87304C22.9209 1.65078 23.1045 1.483 23.3277 1.483H26.6726C26.8959 1.483 27.0795 1.65068 27.0996 1.87304L27.417 5.37977C27.4475 5.71766 27.7036 5.99158 28.0387 6.0449C29.5071 6.2783 30.9481 6.68435 32.3217 7.25164C32.635 7.38142 32.9963 7.28123 33.1988 7.00955L35.3013 4.18778C35.4347 4.00868 35.679 3.9618 35.8692 4.0785L38.7206 5.82713C38.9109 5.94393 38.9796 6.18269 38.8806 6.38269L37.3167 9.5403C37.1664 9.84381 37.2411 10.2107 37.4981 10.4314C38.4074 11.2121 39.2489 12.0837 39.9992 13.0219C40.2107 13.2864 40.5746 13.3737 40.8833 13.2343L44.0939 11.7822C44.2973 11.6901 44.5336 11.7674 44.6435 11.9617L46.291 14.8727C46.401 15.067 46.3455 15.3093 46.1618 15.4363L43.2685 17.4382C42.9898 17.6311 42.8774 17.9885 42.9956 18.3062C43.4347 19.4858 43.7578 20.716 43.9561 21.9625C44.0093 22.2976 44.2832 22.5536 44.6211 22.5842L48.1279 22.9017C48.3503 22.9218 48.518 23.1054 48.518 23.3285V26.6733H48.5177Z" fill="black"/>
<path d="M25.1565 8.70532C16.1716 8.70532 8.86182 16.0152 8.86182 25C8.86182 31.117 12.239 36.6652 17.6754 39.4795C18.0387 39.6679 18.486 39.5255 18.6742 39.1621C18.8624 38.7987 18.7202 38.3515 18.3567 38.1634C17.063 37.4937 15.899 36.6523 14.8833 35.6773C15.4263 35.292 16.072 35.0199 16.7857 34.8801L19.6815 34.313C20.0342 34.244 20.364 34.1322 20.6652 33.9854C21.912 34.9192 23.4311 35.4295 24.9998 35.4295C26.5686 35.4295 28.0875 34.9192 29.3344 33.9854C29.6355 34.1323 29.9653 34.244 30.3181 34.313L33.214 34.8801C33.9942 35.0329 34.7074 35.3528 35.2818 35.8008C32.6311 38.2872 29.0688 39.8126 25.1564 39.8126C24.1637 39.8126 23.1713 39.7138 22.2068 39.5191C21.8059 39.438 21.4148 39.6976 21.3337 40.0988C21.2528 40.4999 21.5122 40.8907 21.9134 40.9718C22.9743 41.186 24.0654 41.2946 25.1564 41.2946C29.7188 41.2946 33.8485 39.409 36.8093 36.3771C36.8234 36.3661 36.8376 36.3552 36.851 36.3431C36.8907 36.3075 36.9255 36.2684 36.9555 36.2269C39.7397 33.3022 41.451 29.3472 41.451 25C41.4511 16.0152 34.1414 8.70532 25.1565 8.70532ZM18.275 24.9091V25.1384H17.7726C17.5909 25.1384 17.443 24.9905 17.443 24.8088V21.626C17.443 21.4441 17.5909 21.2963 17.7726 21.2963H18.275V24.9091ZM19.08 19.2661C18.9978 19.3103 18.9139 19.3516 18.8295 19.3921C18.746 19.4138 18.668 19.4489 18.5987 19.4962C18.5581 19.5137 18.5182 19.5327 18.4772 19.5494C18.4908 19.2132 18.532 18.8783 18.6006 18.5476C18.6736 18.196 18.778 17.854 18.9098 17.5227C19.2525 17.9309 19.6139 18.3116 19.9918 18.6637C19.5844 18.98 19.2425 19.1788 19.08 19.2661ZM19.7571 20.5844C19.7652 20.5801 19.7735 20.5761 19.7816 20.5717C20.0162 20.4457 20.5527 20.1334 21.1613 19.6244C22.993 20.9429 25.1112 21.6596 27.3117 21.6596C27.8694 21.6596 29.0146 21.5471 30.0187 21.2369V24.9091C30.0187 25.8874 29.7432 26.8024 29.266 27.5812H25.4953C25.0861 27.5812 24.7543 27.913 24.7543 28.3222C24.7543 28.7315 25.0861 29.0632 25.4953 29.0632H27.8935C27.8387 29.0924 27.7884 29.1285 27.7429 29.1699C26.9261 29.7189 25.9439 30.0398 24.8879 30.0398C22.0588 30.0398 19.7572 27.7382 19.7572 24.909V20.5844H19.7571ZM31.5007 21.2962H32.003C32.1848 21.2962 32.3326 21.4441 32.3326 21.6259V24.8087C32.3326 24.9905 32.1848 25.1383 32.003 25.1383H31.5007V24.909V21.2962ZM21.8734 33.0229C22.272 32.5145 22.5004 31.9005 22.5004 31.2429V31.0743C23.2415 31.3623 24.0461 31.522 24.8878 31.522C25.815 31.522 26.6977 31.3295 27.4993 30.9835V31.2429C27.4993 31.9005 27.7277 32.5145 28.1264 33.0229C27.2003 33.6228 26.1159 33.9474 24.9999 33.9474C23.8839 33.9473 22.7994 33.6228 21.8734 33.0229ZM36.3145 34.7312C35.5353 34.0891 34.5614 33.6335 33.4989 33.4255L30.603 32.8584C29.6635 32.6745 28.9815 31.9951 28.9815 31.2429V30.0968C29.3682 29.7911 29.7202 29.4437 30.0301 29.0606C31.4313 29.005 32.5647 27.8915 32.6517 26.4983C33.3308 26.2366 33.8147 25.579 33.8147 24.8088V21.626C33.8147 20.9329 33.4232 20.3302 32.8502 20.0256C33.061 19.8455 33.1624 19.5546 33.0853 19.2691C32.4853 17.0463 31.516 15.2759 30.2043 14.0071C29.9102 13.7223 29.4409 13.7303 29.1564 14.0244C28.8719 14.3187 28.8797 14.7878 29.1738 15.0723C30.2905 16.1525 31.1251 17.6944 31.6545 19.6553C31.6699 19.7123 31.6934 19.7645 31.7204 19.8142H31.4396C31.3257 19.5515 31.0643 19.3676 30.7598 19.3676C30.6153 19.3676 30.481 19.4096 30.3671 19.481C30.3622 19.484 30.3583 19.4857 30.3532 19.4891C29.7033 19.9156 28.1439 20.1775 27.3118 20.1775C25.2677 20.1775 23.2981 19.4475 21.6243 18.1142L19.714 16.055C20.0741 15.5289 20.4771 15.0739 20.9175 14.699C22.8454 13.0586 25.114 13.1386 25.1334 13.1393C25.8693 13.1772 26.6006 13.3738 27.3072 13.7235C27.6741 13.9046 28.1186 13.7546 28.3001 13.3879C28.4816 13.021 28.3314 12.5765 27.9646 12.3952C27.0756 11.9552 26.1488 11.7077 25.2099 11.6592C25.0946 11.6538 22.3476 11.5363 19.9571 13.5704C19.2717 14.1536 18.6654 14.8855 18.1543 15.745C18.1539 15.7457 18.1533 15.7463 18.1529 15.747C18.1513 15.7495 18.15 15.7521 18.1484 15.7546C18.1469 15.7572 18.1453 15.7596 18.1438 15.7621C18.1434 15.7627 18.1432 15.7633 18.1429 15.7639C17.667 16.5306 17.3326 17.3657 17.1498 18.2468C17.0304 18.822 16.9787 19.407 16.9936 19.9931C16.3841 20.2852 15.9612 20.9063 15.9612 21.6262V24.809C15.9612 25.8079 16.7739 26.6207 17.7729 26.6207H18.501C18.8997 28.1071 19.8044 29.3876 21.0186 30.267V31.2431C21.0186 31.9953 20.3367 32.6747 19.397 32.8586L16.5011 33.4257C15.5074 33.6204 14.6084 34.0193 13.8604 34.5909C11.6246 31.9617 10.3441 28.5892 10.3441 25.0002C10.3441 16.8325 16.989 10.1876 25.1567 10.1876C33.3243 10.1876 39.9692 16.8325 39.9692 25.0002C39.969 28.7215 38.589 32.1264 36.3145 34.7312Z" fill="black"/>
<path d="M22.5595 23.0502C22.9189 23.0502 23.2103 22.7588 23.2103 22.3994C23.2103 22.04 22.9189 21.7487 22.5595 21.7487C22.2001 21.7487 21.9087 22.04 21.9087 22.3994C21.9087 22.7588 22.2001 23.0502 22.5595 23.0502Z" fill="black"/>
<path d="M26.9853 23.0502C27.3447 23.0502 27.636 22.7588 27.636 22.3994C27.636 22.04 27.3447 21.7487 26.9853 21.7487C26.6258 21.7487 26.3345 22.04 26.3345 22.3994C26.3345 22.7588 26.6258 23.0502 26.9853 23.0502Z" fill="black"/>
<path d="M24.7721 27.3539C24.1576 27.3539 23.5432 27.12 23.0754 26.6523C22.7894 26.3663 22.7893 25.9025 23.0753 25.6166C23.3613 25.3304 23.8251 25.3305 24.1111 25.6165C24.4755 25.9809 25.0686 25.9809 25.4329 25.6165C25.719 25.3305 26.1826 25.3304 26.4688 25.6166C26.7548 25.9026 26.7547 26.3664 26.4688 26.6523C26.0009 27.12 25.3865 27.3539 24.7721 27.3539Z" fill="black"/>
</g>
<defs>
<clipPath id="clip0">
<rect width="50" height="50" fill="white"/>
</clipPath>
</defs>
</svg>
