<svg width="50" height="50" viewBox="0 0 50 50" fill="none" xmlns="http://www.w3.org/2000/svg">
<path d="M15.8333 15.8334C14.4549 15.8334 13.3333 16.955 13.3333 18.3334H14.9999C14.9999 17.8742 15.3741 17.5 15.8333 17.5C16.2924 17.5 16.6666 17.8742 16.6666 18.3334H18.3333C18.3333 16.955 17.2116 15.8334 15.8333 15.8334Z" fill="#474747"/>
<path d="M20 18.3334H21.6667C21.6667 17.8742 22.0408 17.5 22.5 17.5C22.9592 17.5 23.3333 17.8742 23.3333 18.3334H25C25 16.955 23.8783 15.8334 22.5 15.8334C21.1217 15.8334 20 16.955 20 18.3334Z" fill="#474747"/>
<path d="M19.1666 38.3334C17.3283 38.3334 15.8333 39.8284 15.8333 41.6667C15.8333 43.505 17.3283 45 19.1666 45C21.0049 45 22.4999 43.505 22.4999 41.6667C22.4999 39.8284 21.0049 38.3334 19.1666 38.3334ZM19.1666 43.3334C18.2474 43.3334 17.4999 42.5859 17.4999 41.6667C17.4999 40.7475 18.2474 40 19.1666 40C20.0858 40 20.8333 40.7475 20.8333 41.6667C20.8333 42.5859 20.0858 43.3334 19.1666 43.3334Z" fill="#474747"/>
<path d="M0.833333 50H4.16667H34.1667H37.5C37.96 50 38.3333 49.6267 38.3333 49.1667V35.8333C38.3333 32.3083 36.6375 29.0867 33.7875 27.0508C34.0283 26.4117 34.1667 25.7225 34.1667 25V15C34.1667 6.72917 27.4375 0 19.1667 0C10.8958 0 4.16667 6.72917 4.16667 15V25C4.16667 25.7225 4.305 26.4117 4.54583 27.0508C1.69583 29.0867 0 32.3083 0 35.8333V49.1667C0 49.6267 0.373333 50 0.833333 50ZM5 48.3333V37.5C5 36.1217 6.12167 35 7.5 35H30.8333C32.2117 35 33.3333 36.1217 33.3333 37.5V48.3333H5ZM5.83333 15C5.83333 7.64833 11.815 1.66667 19.1667 1.66667C26.5183 1.66667 32.5 7.64833 32.5 15V25C32.5 25.7333 32.3058 26.4208 31.9717 27.02C31.9458 27.0658 31.9175 27.1092 31.8908 27.1542C31.7975 27.3075 31.6967 27.455 31.585 27.5942C31.565 27.6192 31.5467 27.6458 31.5267 27.67C31.3917 27.8317 31.2433 27.9817 31.085 28.1217C31.0592 28.145 31.0317 28.1658 31.005 28.1883C30.85 28.3183 30.6875 28.4383 30.515 28.545C30.5025 28.5525 30.4908 28.5617 30.4783 28.5692C30.2975 28.6783 30.1067 28.77 29.91 28.8508C29.8683 28.8675 29.8267 28.8833 29.785 28.8992C29.585 28.9742 29.38 29.0392 29.1667 29.0825V25.875V17.5V12.5C29.1667 12.04 28.7933 11.6667 28.3333 11.6667H27.5C25.2025 11.6667 23.3333 9.7975 23.3333 7.5C23.3333 7.04 22.96 6.66667 22.5 6.66667C22.04 6.66667 21.6667 7.04 21.6667 7.5C21.6667 9.7975 19.7975 11.6667 17.5 11.6667H10C9.54 11.6667 9.16667 12.04 9.16667 12.5V17.5C9.16667 17.7817 9.18583 18.0575 9.20917 18.3333H9.16667V25.8333V29.0825C8.95333 29.0392 8.74833 28.9742 8.54833 28.8992C8.50667 28.8833 8.46417 28.8683 8.42333 28.8508C8.22667 28.77 8.035 28.6775 7.855 28.5692C7.8425 28.5617 7.83083 28.5525 7.81833 28.545C7.64583 28.4383 7.4825 28.3175 7.32833 28.1875C7.30167 28.165 7.275 28.1442 7.24833 28.1208C7.09 27.9817 6.9425 27.8308 6.80667 27.6692C6.78667 27.645 6.76833 27.6183 6.74833 27.5933C6.63667 27.4542 6.53583 27.3067 6.4425 27.1533C6.41583 27.1083 6.3875 27.065 6.36167 27.0192C6.0275 26.4208 5.83333 25.7333 5.83333 25V15ZM10.8333 23.0158C11.3233 23.7533 11.9117 24.4175 12.5742 25H11.6667H10.8333V23.0158ZM27.5 17.5C27.5 20.8017 25.5658 23.6517 22.775 25H22.75V25.0125C21.6625 25.5333 20.4508 25.8333 19.1667 25.8333C14.5717 25.8333 10.8333 22.095 10.8333 17.5V13.3333H17.5C19.6192 13.3333 21.4783 12.1975 22.5 10.5025C23.5217 12.1975 25.3808 13.3333 27.5 13.3333V17.5ZM15.1825 26.6667C16.4042 27.2 17.7508 27.5 19.1667 27.5C20.5825 27.5 21.9292 27.2 23.1508 26.6667H24.2375L19.1667 30.6108L14.0958 26.6667H15.1825ZM25.7592 25C26.4217 24.4167 27.0108 23.7533 27.5 23.0158V25.035C27.3308 25.0342 27.1408 25.0333 26.8967 25.0325C26.8208 25.0108 26.7433 25.0217 26.6667 25.0217V25H25.7592ZM1.66667 35.8333C1.66667 32.9192 3.02583 30.2358 5.34 28.5067C5.36667 28.5425 5.39833 28.5733 5.42583 28.6083C5.495 28.6958 5.56833 28.7808 5.6425 28.8642C5.70917 28.94 5.775 29.0158 5.845 29.0875C5.91583 29.16 5.9925 29.2267 6.0675 29.2958C6.205 29.4225 6.34833 29.5408 6.49667 29.6533C6.5825 29.7175 6.66583 29.785 6.755 29.845C6.83917 29.9017 6.92667 29.9508 7.01333 30.0025C7.10583 30.0575 7.1975 30.1133 7.29333 30.1633C7.37833 30.2083 7.465 30.2483 7.5525 30.2883C7.6575 30.3367 7.7625 30.3833 7.87083 30.4258C7.955 30.4583 8.03917 30.49 8.125 30.5192C8.24417 30.56 8.36583 30.5958 8.48917 30.6283C8.56833 30.6492 8.64667 30.6717 8.72667 30.6892C8.86667 30.7208 9.01 30.7442 9.15333 30.765C9.22083 30.775 9.28667 30.7883 9.35417 30.7958C9.56583 30.8192 9.78167 30.8333 10 30.8333C10.46 30.8333 10.8333 30.46 10.8333 30V26.6667H11.3808L18.655 32.325C18.955 32.5583 19.3775 32.5583 19.6783 32.325L26.9108 26.7C27.1308 26.7 27.3275 26.7008 27.5 26.7017V30C27.5 30.46 27.8733 30.8333 28.3333 30.8333C28.5517 30.8333 28.7675 30.8192 28.9792 30.7958C29.0467 30.7883 29.1133 30.775 29.18 30.765C29.3242 30.7442 29.4667 30.7208 29.6067 30.6892C29.6867 30.6717 29.765 30.6492 29.8442 30.6283C29.9667 30.595 30.0883 30.56 30.2083 30.5192C30.2942 30.49 30.3783 30.4592 30.4625 30.4258C30.5708 30.3833 30.6758 30.3367 30.7808 30.2883C30.8683 30.2483 30.955 30.2083 31.04 30.1633C31.1358 30.1133 31.2275 30.0575 31.32 30.0025C31.4067 29.9508 31.495 29.9017 31.5783 29.845C31.6675 29.785 31.7508 29.7183 31.8367 29.6533C31.985 29.5408 32.1283 29.4225 32.2658 29.2958C32.3408 29.2275 32.4167 29.16 32.4883 29.0875C32.5583 29.0158 32.6242 28.94 32.6908 28.8642C32.765 28.7808 32.8383 28.6958 32.9075 28.6083C32.935 28.5733 32.9667 28.5425 32.9933 28.5067C35.3075 30.2358 36.6667 32.9192 36.6667 35.8333V48.3333H35V37.5C35 35.2025 33.1308 33.3333 30.8333 33.3333H7.5C5.2025 33.3333 3.33333 35.2025 3.33333 37.5V48.3333H1.66667V35.8333Z" fill="#474747"/>
<path d="M36.6667 9.16667H41.6667C41.7959 9.16667 41.9242 9.13667 42.0392 9.07917L48.3334 5.93167V9.16667H50.0001V0.833333C50.0001 0.373333 49.6268 0 49.1668 0H48.3334C48.1126 0 47.9001 0.0875 47.7443 0.244167L45.4884 2.5H41.6667C41.4459 2.5 41.2334 2.5875 41.0776 2.74417L36.0776 7.74417C35.8392 7.9825 35.7676 8.34083 35.8967 8.6525C36.0259 8.96333 36.3301 9.16667 36.6667 9.16667ZM42.0117 4.16667H45.8334C46.0543 4.16667 46.2668 4.07917 46.4226 3.9225L48.3334 2.01167V4.16667C48.2043 4.16667 48.0759 4.19667 47.9609 4.25417L41.4701 7.5H38.6784L42.0117 4.16667Z" fill="#474747"/>
<path d="M38.6625 23.5966L41.6091 32.4349C41.7183 32.7633 42.0191 32.9899 42.365 33.0041C42.3766 33.0041 42.3883 33.0049 42.4 33.0049C42.7325 33.0049 43.0341 32.8074 43.1658 32.4999L44.4491 29.5066L48.2925 33.3499L49.4708 32.1716L45.6274 28.3283L48.6208 27.0449C48.9383 26.9091 49.14 26.5899 49.125 26.2449C49.1108 25.8991 48.8841 25.5983 48.5558 25.4891L39.7166 22.5425C39.4166 22.4433 39.0875 22.5208 38.8641 22.7441C38.6408 22.9675 38.5625 23.2975 38.6625 23.5966ZM45.9483 26.3766L43.8383 27.2808C43.6416 27.3649 43.485 27.5216 43.4008 27.7183L42.4966 29.8283L40.7708 24.65L45.9483 26.3766Z" fill="#474747"/>
<path d="M35.2454 20.5931L36.4239 19.4146L38.0903 21.0809L36.9117 22.2594L35.2454 20.5931Z" fill="#474747"/>
<path d="M39.1667 18.3334H40.8334V20.8334H39.1667V18.3334Z" fill="#474747"/>
</svg>
