<svg width="18" height="18" viewBox="0 0 18 18" fill="none" xmlns="http://www.w3.org/2000/svg">
<g clip-path="url(#clip0)">
<path d="M16.3637 0H1.63638C0.733871 0 0 0.733871 0 1.63638V16.3637C0 17.2661 0.733871 18 1.63638 18H16.3637C17.2661 18 18 17.2662 18 16.3637V1.63638C18 0.733871 17.2661 0 16.3637 0ZM17.1818 16.3637C17.1818 16.8147 16.8147 17.1818 16.3637 17.1818H1.63638C1.18535 17.1818 0.818208 16.8147 0.818208 16.3637V1.63638C0.818208 1.18535 1.18535 0.818208 1.63638 0.818208H16.3637C16.8147 0.818208 17.1818 1.18535 17.1818 1.63638V16.3637Z" fill="white"/>
<path d="M10.2269 6.54552H9.40876V2.86369C9.40876 2.63757 9.22578 2.45459 8.99966 2.45459C8.77353 2.45459 8.59055 2.63757 8.59055 2.86369V6.54552H7.77239C7.54626 6.54552 7.36328 6.72849 7.36328 6.95462V8.59096C7.36328 8.81708 7.54626 9.00006 7.77239 9.00006H8.59055V10.2273C8.59055 10.4535 8.77353 10.6364 8.99966 10.6364C9.22578 10.6364 9.40876 10.4535 9.40876 10.2273V9.00006H10.2269C10.4531 9.00006 10.636 8.81708 10.636 8.59096V6.95458C10.636 6.72846 10.453 6.54552 10.2269 6.54552ZM9.81783 8.18185H8.18145V7.36368H9.81783V8.18185Z" fill="white"/>
<path d="M15.1371 5.72731H14.3189V2.86369C14.3189 2.63757 14.1359 2.45459 13.9098 2.45459C13.6837 2.45459 13.5007 2.63757 13.5007 2.86369V5.72734H12.6825C12.4564 5.72734 12.2734 5.91032 12.2734 6.13645V7.77283C12.2734 7.99895 12.4564 8.18193 12.6825 8.18193H13.5007V10.2274C13.5007 10.4535 13.6837 10.6365 13.9098 10.6365C14.1359 10.6365 14.3189 10.4535 14.3189 10.2274V8.18193H15.1371C15.3632 8.18193 15.5462 7.99895 15.5462 7.77283V6.13641C15.5462 5.91029 15.3632 5.72731 15.1371 5.72731ZM14.728 7.36368H13.0916V6.54552H14.728V7.36368Z" fill="white"/>
<path d="M5.31873 4.09097H4.50056V2.86369C4.50056 2.63757 4.31758 2.45459 4.09146 2.45459C3.86533 2.45459 3.68235 2.63757 3.68235 2.86369V4.09097H2.86418C2.63806 4.09097 2.45508 4.27395 2.45508 4.50007V6.13641C2.45508 6.36254 2.63806 6.54552 2.86418 6.54552H3.68235V10.2273C3.68235 10.4535 3.86533 10.6364 4.09146 10.6364C4.31758 10.6364 4.50056 10.4535 4.50056 10.2273V6.54552H5.31873C5.54485 6.54552 5.72783 6.36254 5.72783 6.13641V4.50003C5.72779 4.27391 5.54482 4.09097 5.31873 4.09097ZM4.90963 5.72731H3.27325V4.90914H4.90963V5.72731Z" fill="white"/>
<path d="M8.99966 12.2727C8.09715 12.2727 7.36328 13.0066 7.36328 13.9091C7.36328 14.8116 8.09715 15.5455 8.99966 15.5455C9.90217 15.5455 10.636 14.8116 10.636 13.9091C10.636 13.0066 9.90213 12.2727 8.99966 12.2727ZM8.99966 14.7273C8.54864 14.7273 8.18149 14.3601 8.18149 13.9091C8.18149 13.4581 8.54864 13.0909 8.99966 13.0909C9.45068 13.0909 9.81783 13.458 9.81783 13.9091C9.81783 14.3601 9.45068 14.7273 8.99966 14.7273Z" fill="white"/>
<path d="M4.09146 12.2727C3.18895 12.2727 2.45508 13.0066 2.45508 13.9091C2.45508 14.8116 3.18895 15.5455 4.09146 15.5455C4.99396 15.5455 5.72783 14.8116 5.72783 13.9091C5.72783 13.0066 4.99392 12.2727 4.09146 12.2727ZM4.09146 14.7273C3.64043 14.7273 3.27329 14.3601 3.27329 13.9091C3.27329 13.4581 3.64043 13.0909 4.09146 13.0909C4.54248 13.0909 4.90963 13.458 4.90963 13.9091C4.90963 14.3601 4.54248 14.7273 4.09146 14.7273Z" fill="white"/>
<path d="M13.9098 12.2727C13.0073 12.2727 12.2734 13.0066 12.2734 13.9091C12.2734 14.8116 13.0073 15.5455 13.9098 15.5455C14.8123 15.5455 15.5462 14.8116 15.5462 13.9091C15.5462 13.0066 14.8123 12.2727 13.9098 12.2727ZM13.9098 14.7273C13.4588 14.7273 13.0916 14.3601 13.0916 13.9091C13.0916 13.4581 13.4588 13.0909 13.9098 13.0909C14.3608 13.0909 14.728 13.4581 14.728 13.9091C14.728 14.3601 14.3608 14.7273 13.9098 14.7273Z" fill="white"/>
</g>
<defs>
<clipPath id="clip0">
<rect width="18" height="18" fill="white"/>
</clipPath>
</defs>
</svg>
