<svg width="18" height="20" viewBox="0 0 18 20" fill="none" xmlns="http://www.w3.org/2000/svg">
<path fill-rule="evenodd" clip-rule="evenodd" d="M16.9408 14.3249C16.6452 13.301 15.9179 12.4568 14.9491 12.0129V5.27099C14.9491 5.16311 14.8921 5.06324 14.7993 5.00833L8.08781 1.04247C7.99202 0.985843 7.87301 0.985843 7.77726 1.04247L1.0658 5.00833C1.06213 5.01043 1.05906 5.01313 1.05596 5.01585C1.05365 5.01788 1.05132 5.01993 1.04872 5.02175C1.04398 5.02507 1.03942 5.02875 1.03477 5.03252L1.03072 5.03578C1.00422 5.05664 0.981452 5.08181 0.963301 5.11022C0.963301 5.11144 0.962103 5.11236 0.96085 5.11333L0.960848 5.11333C0.959911 5.11405 0.958942 5.1148 0.95842 5.11571V5.11785C0.941222 5.14885 0.929553 5.1826 0.923947 5.2176C0.923947 5.22305 0.922974 5.22828 0.921994 5.23356L0.921993 5.23356C0.921327 5.23714 0.920657 5.24075 0.920287 5.24445C0.919897 5.24835 0.919063 5.25208 0.918235 5.25579L0.918235 5.2558L0.918235 5.2558C0.91712 5.26079 0.916016 5.26574 0.916016 5.27099V13.2027C0.915978 13.3106 0.972949 13.4105 1.0658 13.4654L7.77726 17.4312C7.7853 17.4351 7.79354 17.4386 7.80197 17.4416C7.81028 17.4458 7.81886 17.4494 7.82759 17.4526C7.89474 17.4806 7.97032 17.4806 8.03748 17.4526C8.04632 17.4494 8.05498 17.4458 8.06341 17.4416C8.06655 17.4401 8.0698 17.4389 8.07306 17.4377C8.07802 17.4359 8.08303 17.434 8.08781 17.4312L9.90936 16.3546C10.4699 18.2963 12.4983 19.416 14.44 18.8555C16.3816 18.295 17.5013 16.2666 16.9408 14.3249ZM7.93253 1.65931L9.51888 2.59678L7.16682 3.98666C7.02168 4.07242 6.97352 4.25962 7.05928 4.40476C7.14504 4.54989 7.33224 4.59805 7.47737 4.51229L10.1189 2.95249L11.7053 3.88996L5.59359 7.50041L4.00725 6.56295L6.56279 5.05287C6.70792 4.96711 6.75608 4.77991 6.67032 4.63478C6.58456 4.48964 6.39737 4.44148 6.25223 4.52724L3.40749 6.20846L1.82084 5.27099L7.93253 1.65931ZM5.28853 8.02909V10.066L3.71256 9.13465V7.09773L5.28853 8.02909ZM9.88347 14.3951C9.80232 14.7029 9.76179 15.0199 9.76293 15.3382C9.76301 15.4658 9.76972 15.5934 9.78306 15.7204L8.2376 16.6341V15.6432C8.2376 15.4748 8.10101 15.3382 7.93253 15.3382C7.76406 15.3382 7.62747 15.4748 7.62747 15.6432V16.6341L1.52615 13.0288V5.80577L3.10242 6.73714V9.30854C3.10231 9.41653 3.15924 9.51656 3.25221 9.57151L5.43831 10.8635C5.48537 10.8911 5.53899 10.9058 5.59359 10.9059C5.76207 10.9059 5.89866 10.7693 5.89866 10.6008V8.38938L7.62747 9.41104V14.423C7.62747 14.5914 7.76406 14.728 7.93253 14.728C8.10101 14.728 8.2376 14.5914 8.2376 14.423V9.41104L13.7666 6.14378C13.9117 6.05802 13.9598 5.8709 13.874 5.72584C13.7882 5.58079 13.6011 5.5327 13.4561 5.61846L7.93253 8.88267L6.19366 7.8549L12.3053 4.24322L14.3389 5.44488V11.7994C12.3918 11.2859 10.397 12.448 9.88347 14.3951ZM13.4237 18.3888C11.7389 18.3888 10.3731 17.023 10.3731 15.3382C10.3731 13.6533 11.7389 12.2875 13.4237 12.2875C15.1086 12.2875 16.4744 13.6533 16.4744 15.3382C16.4726 17.0222 15.1078 18.387 13.4237 18.3888ZM2.4413 11.0674C2.27282 11.0674 2.13623 11.204 2.13623 11.3724V12.5927C2.13623 12.7612 2.27282 12.8978 2.4413 12.8978C2.60977 12.8978 2.74637 12.7612 2.74637 12.5927V11.3724C2.74637 11.204 2.60977 11.0674 2.4413 11.0674ZM3.66151 11.6772C3.49304 11.6772 3.35645 11.8138 3.35645 11.9823V13.2026C3.35645 13.371 3.49304 13.5076 3.66151 13.5076C3.82998 13.5076 3.96658 13.371 3.96658 13.2026V11.9823C3.96658 11.8138 3.82998 11.6772 3.66151 11.6772ZM14.3672 13.4089C14.4576 13.2667 14.6461 13.2246 14.7883 13.315C15.461 13.7685 15.8643 14.5267 15.8645 15.338C15.8647 16.6859 14.7722 17.7787 13.4244 17.779C12.0765 17.7793 10.9837 16.6868 10.9834 15.3389C10.9831 13.9911 12.0756 12.8982 13.4235 12.8979C13.5919 12.8979 13.7285 13.0345 13.7285 13.203C13.7285 13.3715 13.5919 13.5081 13.4235 13.5081C12.8148 13.5084 12.246 13.8113 11.9061 14.3162C11.3415 15.1547 11.5636 16.2922 12.4021 16.8568C13.2406 17.4214 14.3781 17.1993 14.9427 16.3608C15.5073 15.5222 15.2852 14.3848 14.4467 13.8202C14.3153 13.7258 14.2805 13.5453 14.3672 13.4089ZM14.1231 14.5124C14.2413 14.3982 14.4288 14.3982 14.547 14.5124C14.6682 14.6294 14.6715 14.8226 14.5544 14.9438L13.1816 16.3166C13.0625 16.4357 12.8694 16.4357 12.7503 16.3166L12.2927 15.859C12.1785 15.7408 12.1785 15.5533 12.2927 15.4351C12.4098 15.3139 12.6029 15.3105 12.7241 15.4276L12.966 15.6695L14.1231 14.5124Z" fill="white"/>
<path d="M14.9491 12.0129H14.8491V12.0771L14.9074 12.1039L14.9491 12.0129ZM16.9408 14.3249L16.8447 14.3526V14.3526L16.9408 14.3249ZM14.9491 5.27099L14.8491 5.27096V5.27099H14.9491ZM14.7993 5.00833L14.8502 4.92225L14.8501 4.92224L14.7993 5.00833ZM8.08781 1.04247L8.03692 1.12855L8.03694 1.12856L8.08781 1.04247ZM7.77726 1.04247L7.82813 1.12856L7.82816 1.12855L7.77726 1.04247ZM1.0658 5.00833L1.11543 5.09516L1.11668 5.09442L1.0658 5.00833ZM1.05596 5.01585L1.12199 5.09096L1.12199 5.09095L1.05596 5.01585ZM1.04872 5.02175L1.10606 5.10368L1.10606 5.10368L1.04872 5.02175ZM1.03477 5.03252L1.09752 5.11038L1.09767 5.11026L1.03477 5.03252ZM1.03072 5.03578L1.09257 5.11437L1.09347 5.11364L1.03072 5.03578ZM0.963301 5.11022L0.879033 5.05638L0.863301 5.081V5.11022H0.963301ZM0.96085 5.11333L0.899838 5.03409L0.898854 5.03487L0.96085 5.11333ZM0.960848 5.11333L1.02186 5.19257L1.02284 5.19179L0.960848 5.11333ZM0.95842 5.11571L0.871594 5.0661L0.85842 5.08916V5.11571H0.95842ZM0.95842 5.11785L1.04587 5.16636L1.05842 5.14373V5.11785H0.95842ZM0.923947 5.2176L0.825205 5.20179L0.823947 5.20965V5.2176H0.923947ZM0.921994 5.23356L0.823678 5.21527L0.82357 5.21587L0.921994 5.23356ZM0.921993 5.23356L1.02031 5.25184L1.02042 5.25124L0.921993 5.23356ZM0.920287 5.24445L1.01979 5.2544L1.01979 5.2544L0.920287 5.24445ZM0.918235 5.25579L0.82048 5.23398L0.819562 5.23956L0.918235 5.25579ZM0.918235 5.2558L1.01678 5.27283L1.01691 5.27203L0.918235 5.2558ZM0.918235 5.2558L1.01595 5.2776L1.01677 5.27283L0.918235 5.2558ZM0.916016 13.2027L1.01602 13.2027V13.2027H0.916016ZM1.0658 13.4654L1.0149 13.5514L1.01493 13.5515L1.0658 13.4654ZM7.77726 17.4312L7.7262 17.5176L7.73374 17.5213L7.77726 17.4312ZM7.80197 17.4416L7.84701 17.3515L7.83564 17.3474L7.80197 17.4416ZM7.82759 17.4526L7.8662 17.3602L7.86166 17.3586L7.82759 17.4526ZM8.03748 17.4526L8.00375 17.3583L7.99891 17.3603L8.03748 17.4526ZM8.06341 17.4416L8.02147 17.3508L8.01918 17.3519L8.06341 17.4416ZM8.07306 17.4377L8.03805 17.344L8.03802 17.3441L8.07306 17.4377ZM8.08781 17.4312L8.13778 17.5179L8.13869 17.5173L8.08781 17.4312ZM9.90936 16.3546L10.0054 16.3269L9.96963 16.2029L9.85848 16.2686L9.90936 16.3546ZM14.44 18.8555L14.4122 18.7594H14.4122L14.44 18.8555ZM9.51888 2.59678L9.56975 2.68287L9.71544 2.59679L9.56975 2.51069L9.51888 2.59678ZM7.93253 1.65931L7.98341 1.57322L7.93253 1.54316L7.88166 1.57322L7.93253 1.65931ZM7.16682 3.98666L7.21769 4.07276L7.21769 4.07275L7.16682 3.98666ZM7.47737 4.51229L7.42653 4.42618L7.4265 4.4262L7.47737 4.51229ZM10.1189 2.95249L10.1698 2.8664L10.119 2.83634L10.0681 2.86638L10.1189 2.95249ZM11.7053 3.88996L11.7561 3.97606L11.9019 3.88997L11.7562 3.80387L11.7053 3.88996ZM5.59359 7.50041L5.54272 7.5865L5.59358 7.61656L5.64445 7.58651L5.59359 7.50041ZM4.00725 6.56295L3.95638 6.47685L3.81069 6.56294L3.95637 6.64904L4.00725 6.56295ZM6.56279 5.05287L6.61366 5.13896V5.13896L6.56279 5.05287ZM6.67032 4.63478L6.75642 4.5839V4.5839L6.67032 4.63478ZM6.25223 4.52724L6.20136 4.44115L6.20135 4.44115L6.25223 4.52724ZM3.40749 6.20846L3.35662 6.29455L3.4075 6.32461L3.45837 6.29455L3.40749 6.20846ZM1.82084 5.27099L1.76997 5.1849L1.62427 5.271L1.76997 5.35709L1.82084 5.27099ZM5.28853 10.066L5.23765 10.1521L5.38853 10.2413V10.066H5.28853ZM5.28853 8.02909H5.38853V7.97203L5.3394 7.943L5.28853 8.02909ZM3.71256 9.13465H3.61256V9.19171L3.66168 9.22074L3.71256 9.13465ZM3.71256 7.09773L3.76343 7.01164L3.61256 6.92247V7.09773H3.71256ZM9.76293 15.3382L9.86293 15.3381L9.86293 15.3378L9.76293 15.3382ZM9.88347 14.3951L9.78677 14.3696L9.78677 14.3696L9.88347 14.3951ZM9.78306 15.7204L9.83395 15.8065L9.88923 15.7738L9.88252 15.71L9.78306 15.7204ZM8.2376 16.6341H8.1376V16.8094L8.28849 16.7202L8.2376 16.6341ZM7.62747 16.6341L7.5766 16.7202L7.72747 16.8093V16.6341H7.62747ZM1.52615 13.0288H1.42615V13.0859L1.47528 13.1149L1.52615 13.0288ZM1.52615 5.80577L1.57702 5.71968L1.42615 5.63053V5.80577H1.52615ZM3.10242 6.73714H3.20242V6.68007L3.15329 6.65104L3.10242 6.73714ZM3.10242 9.30854L3.20242 9.30865V9.30854H3.10242ZM3.25221 9.57151L3.20133 9.65759L3.20133 9.6576L3.25221 9.57151ZM5.43831 10.8635L5.38744 10.9496L5.38761 10.9497L5.43831 10.8635ZM5.59359 10.9059L5.59345 11.0059H5.59359V10.9059ZM5.89866 8.38938L5.94953 8.30328L5.79866 8.21412V8.38938H5.89866ZM7.62747 9.41104H7.72747V9.35398L7.67834 9.32495L7.62747 9.41104ZM8.2376 9.41104L8.18673 9.32495L8.1376 9.35398V9.41104H8.2376ZM13.7666 6.14378L13.8175 6.22988L13.8175 6.22987L13.7666 6.14378ZM13.874 5.72584L13.9601 5.67495L13.9601 5.67495L13.874 5.72584ZM13.4561 5.61846L13.5069 5.70455L13.507 5.70454L13.4561 5.61846ZM7.93253 8.88267L7.88165 8.96875L7.93253 8.99883L7.98341 8.96876L7.93253 8.88267ZM6.19366 7.8549L6.14278 7.76881L5.99711 7.85489L6.14278 7.94099L6.19366 7.8549ZM12.3053 4.24322L12.3562 4.15713L12.3053 4.12707L12.2545 4.15713L12.3053 4.24322ZM14.3389 5.44488H14.4389V5.38781L14.3898 5.35879L14.3389 5.44488ZM14.3389 11.7994L14.3134 11.8961L14.4389 11.9292V11.7994H14.3389ZM13.4237 18.3888V18.4888H13.4238L13.4237 18.3888ZM16.4744 15.3382L16.5744 15.3383V15.3382H16.4744ZM14.7883 13.315L14.8443 13.232L14.842 13.2306L14.7883 13.315ZM14.3672 13.4089L14.2828 13.3552L14.2828 13.3552L14.3672 13.4089ZM15.8645 15.338L15.7645 15.338V15.338L15.8645 15.338ZM13.4244 17.779L13.4244 17.679L13.4244 17.779ZM10.9834 15.3389L10.8834 15.339L10.9834 15.3389ZM13.4235 12.8979V12.7979H13.4234L13.4235 12.8979ZM13.4235 13.5081V13.4081H13.4234L13.4235 13.5081ZM11.9061 14.3162L11.989 14.3721L11.989 14.3721L11.9061 14.3162ZM12.4021 16.8568L12.458 16.7738L12.458 16.7738L12.4021 16.8568ZM14.9427 16.3608L15.0256 16.4166L15.0256 16.4166L14.9427 16.3608ZM14.4467 13.8202L14.3883 13.9014L14.3908 13.9031L14.4467 13.8202ZM14.547 14.5124L14.4775 14.5843L14.4775 14.5843L14.547 14.5124ZM14.1231 14.5124L14.0536 14.4405L14.0524 14.4417L14.1231 14.5124ZM14.5544 14.9438L14.6252 15.0145L14.6264 15.0133L14.5544 14.9438ZM13.1816 16.3166L13.2523 16.3873L13.2524 16.3873L13.1816 16.3166ZM12.7503 16.3166L12.6796 16.3873L12.6796 16.3873L12.7503 16.3166ZM12.2927 15.859L12.2208 15.9285L12.222 15.9297L12.2927 15.859ZM12.2927 15.4351L12.3646 15.5046L12.3646 15.5046L12.2927 15.4351ZM12.7241 15.4276L12.7948 15.3569L12.7935 15.3557L12.7241 15.4276ZM12.966 15.6695L12.8953 15.7402L12.966 15.811L13.0367 15.7402L12.966 15.6695ZM14.9074 12.1039C15.8498 12.5356 16.5572 13.3567 16.8447 14.3526L17.0369 14.2972C16.7332 13.2453 15.9861 12.378 14.9907 11.922L14.9074 12.1039ZM14.8491 5.27099V12.0129H15.0491V5.27099H14.8491ZM14.7484 5.0944C14.8108 5.13132 14.8491 5.19846 14.8491 5.27096L15.0491 5.27103C15.0491 5.12776 14.9734 4.99516 14.8502 4.92225L14.7484 5.0944ZM8.03694 1.12856L14.7484 5.09442L14.8501 4.92224L8.13869 0.956378L8.03694 1.12856ZM7.82816 1.12855C7.89251 1.09049 7.97252 1.09048 8.03692 1.12855L8.1387 0.956388C8.01153 0.881208 7.85351 0.881197 7.72635 0.956397L7.82816 1.12855ZM1.11668 5.09442L7.82813 1.12856L7.72638 0.956378L1.01493 4.92224L1.11668 5.09442ZM1.12199 5.09095C1.12386 5.08931 1.12348 5.08967 1.12274 5.09026C1.12172 5.09107 1.11918 5.093 1.11542 5.09515L1.01618 4.92151C1.00231 4.92944 0.991899 4.93902 0.98993 4.94075L1.12199 5.09095ZM1.10606 5.10368C1.11392 5.09818 1.12029 5.09245 1.12199 5.09096L0.989932 4.94075C0.987015 4.94332 0.988726 4.94168 0.991374 4.93983L1.10606 5.10368ZM1.09767 5.11026C1.10282 5.1061 1.10466 5.10466 1.10606 5.10368L0.991375 4.93983C0.983296 4.94548 0.976033 4.95141 0.971869 4.95478L1.09767 5.11026ZM1.09347 5.11364L1.09752 5.11038L0.972015 4.95466L0.967967 4.95793L1.09347 5.11364ZM1.04757 5.16406C1.05972 5.14504 1.07492 5.12825 1.09257 5.11437L0.968874 4.9572C0.933514 4.98503 0.903185 5.01858 0.879033 5.05638L1.04757 5.16406ZM1.02186 5.19256C1.02195 5.1925 1.02249 5.19208 1.02309 5.1916C1.02373 5.1911 1.02473 5.19031 1.02591 5.18932C1.02807 5.18752 1.03217 5.18397 1.03669 5.17898C1.04513 5.16965 1.0633 5.14606 1.0633 5.11022H0.863301C0.863301 5.0756 0.880875 5.05308 0.888406 5.04476C0.895165 5.0373 0.902393 5.03213 0.899843 5.03409L1.02186 5.19256ZM1.02284 5.19179L1.02285 5.19179L0.898854 5.03487L0.898852 5.03487L1.02284 5.19179ZM1.04525 5.16532C1.03842 5.17728 1.03067 5.18483 1.02721 5.18802C1.02383 5.19113 1.02071 5.19345 1.02185 5.19257L0.899842 5.0341C0.899752 5.03416 0.898664 5.035 0.897461 5.03597C0.896187 5.03699 0.894134 5.03868 0.891751 5.04088C0.887435 5.04485 0.878945 5.05324 0.871594 5.0661L1.04525 5.16532ZM1.05842 5.11785V5.11571H0.85842V5.11785H1.05842ZM1.02269 5.23342C1.02645 5.2099 1.0343 5.18722 1.04587 5.16636L0.870974 5.06934C0.848148 5.11048 0.832651 5.15529 0.825205 5.20179L1.02269 5.23342ZM1.02031 5.25184C1.02103 5.24797 1.02395 5.23376 1.02395 5.2176H0.823947C0.823947 5.21442 0.824231 5.21231 0.824279 5.21196C0.824285 5.21192 0.824241 5.21225 0.823679 5.21527L1.02031 5.25184ZM1.02042 5.25124L1.02042 5.25124L0.82357 5.21587L0.82357 5.21587L1.02042 5.25124ZM1.01979 5.2544C1.01967 5.25557 1.01952 5.25607 1.02031 5.25184L0.823679 5.21528C0.823131 5.21822 0.82164 5.22592 0.820783 5.2345L1.01979 5.2544ZM1.01583 5.27758C1.01647 5.27474 1.01871 5.26523 1.01979 5.2544L0.820783 5.2345L0.820636 5.23401L1.01583 5.27758ZM1.01691 5.27203L1.01691 5.27203L0.819562 5.23956L0.819562 5.23956L1.01691 5.27203ZM1.01677 5.27283L1.01677 5.27283L0.819696 5.23876L0.819696 5.23876L1.01677 5.27283ZM1.01602 5.27099C1.01602 5.27536 1.01555 5.27848 1.01537 5.27958C1.01526 5.28029 1.01517 5.28053 1.01583 5.27758L0.820636 5.23402C0.819877 5.23741 0.816016 5.25296 0.816016 5.27099H1.01602ZM1.01602 13.2027V5.27099H0.816016V13.2027H1.01602ZM1.11671 13.3793C1.05428 13.3424 1.01599 13.2752 1.01602 13.2027L0.816016 13.2027C0.815965 13.3459 0.89162 13.4785 1.0149 13.5514L1.11671 13.3793ZM7.82813 17.3451L1.11668 13.3793L1.01493 13.5515L7.72638 17.5173L7.82813 17.3451ZM7.83564 17.3474C7.83067 17.3457 7.82572 17.3436 7.82077 17.3412L7.73374 17.5213C7.74488 17.5266 7.7564 17.5315 7.76829 17.5358L7.83564 17.3474ZM7.86166 17.3586C7.85642 17.3567 7.85141 17.3545 7.84668 17.3522L7.75725 17.531C7.76915 17.537 7.78129 17.5422 7.79352 17.5466L7.86166 17.3586ZM7.99891 17.3603C7.95644 17.3781 7.90863 17.3781 7.86615 17.3603L7.78903 17.5448C7.88086 17.5832 7.98421 17.5832 8.07604 17.5448L7.99891 17.3603ZM8.01918 17.3519C8.01421 17.3544 8.00908 17.3565 8.0038 17.3584L8.07115 17.5467C8.08356 17.5423 8.09574 17.5372 8.10764 17.5313L8.01918 17.3519ZM8.03802 17.3441C8.03535 17.345 8.02859 17.3475 8.02148 17.3508L8.10533 17.5324C8.10452 17.5328 8.10424 17.5328 8.1081 17.5314L8.03802 17.3441ZM8.03785 17.3446L8.03805 17.344L8.10807 17.5314C8.11192 17.5299 8.12467 17.5254 8.13778 17.5178L8.03785 17.3446ZM9.85848 16.2686L8.03693 17.3451L8.13869 17.5173L9.96024 16.4407L9.85848 16.2686ZM14.4122 18.7594C12.5236 19.3046 10.5506 18.2155 10.0054 16.3269L9.81328 16.3824C10.3891 18.3771 12.4729 19.5274 14.4677 18.9515L14.4122 18.7594ZM16.8447 14.3526C17.3899 16.2412 16.3008 18.2142 14.4122 18.7594L14.4677 18.9515C16.4624 18.3757 17.6127 16.2919 17.0369 14.2972L16.8447 14.3526ZM9.56975 2.51069L7.98341 1.57322L7.88166 1.74541L9.468 2.68287L9.56975 2.51069ZM7.21769 4.07275L9.56975 2.68287L9.468 2.51069L7.11594 3.90057L7.21769 4.07275ZM7.14537 4.35388C7.08772 4.25631 7.12009 4.13043 7.21769 4.07276L7.11594 3.90057C6.92327 4.01442 6.85932 4.26293 6.97319 4.45563L7.14537 4.35388ZM7.4265 4.4262C7.32893 4.48386 7.20305 4.45148 7.14537 4.35388L6.97319 4.45563C7.08704 4.6483 7.33555 4.71225 7.52825 4.59838L7.4265 4.4262ZM10.0681 2.86638L7.42653 4.42618L7.52822 4.5984L10.1698 3.0386L10.0681 2.86638ZM11.7562 3.80387L10.1698 2.8664L10.0681 3.03858L11.6544 3.97605L11.7562 3.80387ZM5.64445 7.58651L11.7561 3.97606L11.6544 3.80386L5.54273 7.41431L5.64445 7.58651ZM3.95637 6.64904L5.54272 7.5865L5.64447 7.41432L4.05813 6.47685L3.95637 6.64904ZM6.51191 4.96678L3.95638 6.47685L4.05812 6.64904L6.61366 5.13896L6.51191 4.96678ZM6.58423 4.68565C6.64189 4.78322 6.60952 4.9091 6.51191 4.96678L6.61366 5.13896C6.80633 5.02511 6.87028 4.7766 6.75642 4.5839L6.58423 4.68565ZM6.3031 4.61333C6.40068 4.55567 6.52656 4.58805 6.58423 4.68565L6.75642 4.5839C6.64257 4.39123 6.39405 4.32728 6.20136 4.44115L6.3031 4.61333ZM3.45837 6.29455L6.30311 4.61333L6.20135 4.44115L3.35661 6.12237L3.45837 6.29455ZM1.76997 5.35709L3.35662 6.29455L3.45836 6.12236L1.87171 5.1849L1.76997 5.35709ZM7.88166 1.57322L1.76997 5.1849L1.87172 5.35708L7.98341 1.74541L7.88166 1.57322ZM5.38853 10.066V8.02909H5.18853V10.066H5.38853ZM3.66168 9.22074L5.23765 10.1521L5.3394 9.97993L3.76343 9.04856L3.66168 9.22074ZM3.61256 7.09773V9.13465H3.81256V7.09773H3.61256ZM5.3394 7.943L3.76343 7.01164L3.66168 7.18382L5.23765 8.11518L5.3394 7.943ZM9.86293 15.3378C9.86182 15.0283 9.90124 14.7199 9.98016 14.4206L9.78677 14.3696C9.7034 14.6858 9.66175 15.0115 9.66293 15.3385L9.86293 15.3378ZM9.88252 15.71C9.86953 15.5864 9.863 15.4623 9.86293 15.3381L9.66293 15.3382C9.66301 15.4694 9.6699 15.6004 9.68361 15.7309L9.88252 15.71ZM8.28849 16.7202L9.83395 15.8065L9.73217 15.6343L8.18671 16.548L8.28849 16.7202ZM8.1376 15.6432V16.6341H8.3376V15.6432H8.1376ZM7.93253 15.4382C8.04578 15.4382 8.1376 15.53 8.1376 15.6432H8.3376C8.3376 15.4195 8.15623 15.2382 7.93253 15.2382V15.4382ZM7.72747 15.6432C7.72747 15.53 7.81929 15.4382 7.93253 15.4382V15.2382C7.70883 15.2382 7.52747 15.4195 7.52747 15.6432H7.72747ZM7.72747 16.6341V15.6432H7.52747V16.6341H7.72747ZM1.47528 13.1149L7.5766 16.7202L7.67834 16.548L1.57702 12.9427L1.47528 13.1149ZM1.42615 5.80577V13.0288H1.62615V5.80577H1.42615ZM3.15329 6.65104L1.57702 5.71968L1.47528 5.89187L3.05155 6.82323L3.15329 6.65104ZM3.20242 9.30854V6.73714H3.00242V9.30854H3.20242ZM3.30309 9.48542C3.24063 9.4485 3.20235 9.38128 3.20242 9.30865L3.00242 9.30843C3.00227 9.45178 3.07785 9.58461 3.20133 9.65759L3.30309 9.48542ZM5.48919 10.7774L3.30309 9.48542L3.20133 9.6576L5.38744 10.9496L5.48919 10.7774ZM5.59373 10.8059C5.55691 10.8058 5.52075 10.7959 5.48902 10.7773L5.38761 10.9497C5.44999 10.9864 5.52106 11.0058 5.59345 11.0059L5.59373 10.8059ZM5.79866 10.6008C5.79866 10.714 5.70684 10.8059 5.59359 10.8059V11.0059C5.81729 11.0059 5.99866 10.8245 5.99866 10.6008H5.79866ZM5.79866 8.38938V10.6008H5.99866V8.38938H5.79866ZM7.67834 9.32495L5.94953 8.30328L5.84778 8.47547L7.57659 9.49713L7.67834 9.32495ZM7.72747 14.423V9.41104H7.52747V14.423H7.72747ZM7.93253 14.628C7.81929 14.628 7.72747 14.5362 7.72747 14.423H7.52747C7.52747 14.6467 7.70883 14.828 7.93253 14.828V14.628ZM8.1376 14.423C8.1376 14.5362 8.04578 14.628 7.93253 14.628V14.828C8.15623 14.828 8.3376 14.6467 8.3376 14.423H8.1376ZM8.1376 9.41104V14.423H8.3376V9.41104H8.1376ZM13.7157 6.05769L8.18673 9.32495L8.28847 9.49713L13.8175 6.22988L13.7157 6.05769ZM13.7879 5.77674C13.8456 5.87425 13.8132 6.00004 13.7157 6.0577L13.8175 6.22987C14.0101 6.116 14.074 5.86756 13.9601 5.67495L13.7879 5.77674ZM13.507 5.70454C13.6045 5.64689 13.7303 5.67921 13.7879 5.77674L13.9601 5.67495C13.8462 5.48236 13.5978 5.41851 13.4052 5.53238L13.507 5.70454ZM7.98341 8.96876L13.5069 5.70455L13.4052 5.53237L7.88166 8.79658L7.98341 8.96876ZM6.14278 7.94099L7.88165 8.96875L7.98342 8.79658L6.24454 7.76881L6.14278 7.94099ZM12.2545 4.15713L6.14278 7.76881L6.24453 7.94099L12.3562 4.32931L12.2545 4.15713ZM14.3898 5.35879L12.3562 4.15713L12.2545 4.32932L14.288 5.53097L14.3898 5.35879ZM14.4389 11.7994V5.44488H14.2389V11.7994H14.4389ZM9.98016 14.4206C10.4796 12.5269 12.4197 11.3966 14.3134 11.8961L14.3644 11.7027C12.3639 11.1751 10.3144 12.3691 9.78677 14.3696L9.98016 14.4206ZM10.2731 15.3382C10.2731 17.0782 11.6837 18.4888 13.4237 18.4888V18.2888C11.7941 18.2888 10.4731 16.9678 10.4731 15.3382H10.2731ZM13.4237 12.1875C11.6837 12.1875 10.2731 13.5981 10.2731 15.3382H10.4731C10.4731 13.7086 11.7941 12.3875 13.4237 12.3875V12.1875ZM16.5744 15.3382C16.5744 13.5981 15.1638 12.1875 13.4237 12.1875V12.3875C15.0533 12.3875 16.3744 13.7086 16.3744 15.3382H16.5744ZM13.4238 18.4888C15.1631 18.4869 16.5725 17.0775 16.5744 15.3383L16.3744 15.3381C16.3726 16.967 15.0525 18.287 13.4236 18.2888L13.4238 18.4888ZM2.23623 11.3724C2.23623 11.2592 2.32805 11.1674 2.4413 11.1674V10.9674C2.2176 10.9674 2.03623 11.1487 2.03623 11.3724H2.23623ZM2.23623 12.5927V11.3724H2.03623V12.5927H2.23623ZM2.4413 12.7978C2.32805 12.7978 2.23623 12.706 2.23623 12.5927H2.03623C2.03623 12.8164 2.2176 12.9978 2.4413 12.9978V12.7978ZM2.64637 12.5927C2.64637 12.706 2.55454 12.7978 2.4413 12.7978V12.9978C2.665 12.9978 2.84637 12.8164 2.84637 12.5927H2.64637ZM2.64637 11.3724V12.5927H2.84637V11.3724H2.64637ZM2.4413 11.1674C2.55454 11.1674 2.64637 11.2592 2.64637 11.3724H2.84637C2.84637 11.1487 2.665 10.9674 2.4413 10.9674V11.1674ZM3.45645 11.9823C3.45645 11.8691 3.54827 11.7772 3.66151 11.7772V11.5772C3.43781 11.5772 3.25645 11.7586 3.25645 11.9823H3.45645ZM3.45645 13.2026V11.9823H3.25645V13.2026H3.45645ZM3.66151 13.4076C3.54827 13.4076 3.45645 13.3158 3.45645 13.2026H3.25645C3.25645 13.4263 3.43781 13.6076 3.66151 13.6076V13.4076ZM3.86658 13.2026C3.86658 13.3158 3.77476 13.4076 3.66151 13.4076V13.6076C3.88521 13.6076 4.06658 13.4263 4.06658 13.2026H3.86658ZM3.86658 11.9823V13.2026H4.06658V11.9823H3.86658ZM3.66151 11.7772C3.77476 11.7772 3.86658 11.8691 3.86658 11.9823H4.06658C4.06658 11.7586 3.88521 11.5772 3.66151 11.5772V11.7772ZM14.842 13.2306C14.6531 13.1106 14.4028 13.1664 14.2828 13.3552L14.4516 13.4625C14.5124 13.3669 14.6391 13.3386 14.7347 13.3994L14.842 13.2306ZM15.9645 15.338C15.9643 14.4935 15.5445 13.7042 14.8442 13.2321L14.7324 13.3979C15.3775 13.8329 15.7643 14.56 15.7645 15.338L15.9645 15.338ZM13.4244 17.879C14.8275 17.8787 15.9647 16.7411 15.9645 15.338L15.7645 15.338C15.7647 16.6307 14.717 17.6787 13.4244 17.679L13.4244 17.879ZM10.8834 15.339C10.8837 16.742 12.0213 17.8793 13.4244 17.879L13.4244 17.679C12.1317 17.6793 11.0837 16.6315 11.0834 15.3389L10.8834 15.339ZM13.4234 12.7979C12.0204 12.7982 10.8831 13.9359 10.8834 15.339L11.0834 15.3389C11.0831 14.0463 12.1309 12.9982 13.4235 12.9979L13.4234 12.7979ZM13.8285 13.203C13.8285 12.9793 13.6472 12.7979 13.4235 12.7979V12.9979C13.5367 12.9979 13.6285 13.0898 13.6285 13.203H13.8285ZM13.4235 13.6081C13.6472 13.6081 13.8285 13.4267 13.8285 13.203H13.6285C13.6285 13.3163 13.5367 13.4081 13.4235 13.4081V13.6081ZM11.989 14.3721C12.3104 13.8947 12.8481 13.6084 13.4235 13.6081L13.4234 13.4081C12.7815 13.4084 12.1817 13.7278 11.8231 14.2604L11.989 14.3721ZM12.458 16.7738C11.6652 16.2401 11.4553 15.1648 11.989 14.3721L11.8231 14.2603C11.2277 15.1447 11.4619 16.3443 12.3463 16.9397L12.458 16.7738ZM14.8597 16.3049C14.326 17.0976 13.2507 17.3076 12.458 16.7738L12.3463 16.9397C13.2306 17.5352 14.4302 17.301 15.0256 16.4166L14.8597 16.3049ZM14.3908 13.9031C15.1835 14.4369 15.3935 15.5122 14.8597 16.3049L15.0256 16.4166C15.6211 15.5323 15.3869 14.3327 14.5025 13.7372L14.3908 13.9031ZM14.2828 13.3552C14.1677 13.5364 14.2139 13.776 14.3883 13.9014L14.505 13.739C14.4168 13.6755 14.3933 13.5542 14.4516 13.4625L14.2828 13.3552ZM14.6164 14.4405C14.4595 14.2888 14.2106 14.2888 14.0536 14.4405L14.1926 14.5843C14.272 14.5076 14.398 14.5076 14.4775 14.5843L14.6164 14.4405ZM14.6264 15.0133C14.7818 14.8523 14.7774 14.5959 14.6164 14.4405L14.4775 14.5843C14.559 14.663 14.5612 14.7928 14.4825 14.8743L14.6264 15.0133ZM13.2524 16.3873L14.6252 15.0145L14.4837 14.8731L13.1109 16.2459L13.2524 16.3873ZM12.6796 16.3873C12.8378 16.5454 13.0942 16.5454 13.2523 16.3873L13.1109 16.2459C13.0309 16.3259 12.9011 16.3259 12.821 16.2459L12.6796 16.3873ZM12.222 15.9297L12.6796 16.3873L12.821 16.2459L12.3634 15.7883L12.222 15.9297ZM12.2208 15.3656C12.0691 15.5226 12.0691 15.7715 12.2208 15.9285L12.3646 15.7895C12.2878 15.71 12.2878 15.584 12.3646 15.5046L12.2208 15.3656ZM12.7935 15.3557C12.6326 15.2002 12.3762 15.2047 12.2208 15.3656L12.3646 15.5046C12.4433 15.4231 12.5731 15.4208 12.6546 15.4995L12.7935 15.3557ZM13.0367 15.5988L12.7948 15.3569L12.6533 15.4983L12.8953 15.7402L13.0367 15.5988ZM14.0524 14.4417L12.8953 15.5988L13.0367 15.7402L14.1938 14.5831L14.0524 14.4417Z" fill="white"/>
</svg>
