<svg width="18" height="18" viewBox="0 0 18 18" fill="none" xmlns="http://www.w3.org/2000/svg">
<path d="M9 18C6.869 18 4.80213 17.2419 3.18013 15.8653C2.79928 15.5423 2.44202 15.1841 2.11838 14.8009C0.752238 13.1816 0 11.1216 0 9C0 6.59598 0.936141 4.33589 2.63602 2.63602C4.33589 0.936141 6.59598 0 9 0C11.404 0 13.6641 0.936141 15.364 2.63602C17.0639 4.33589 18 6.59598 18 9C18 11.1216 17.2478 13.1817 15.8818 14.8007C15.558 15.1841 15.2007 15.5423 14.8198 15.8654C13.1979 17.2419 11.131 18 9 18ZM9 1.125C4.65771 1.125 1.125 4.65771 1.125 9C1.125 10.8564 1.78309 12.6589 2.97805 14.0753C3.26141 14.4108 3.57434 14.7245 3.90797 15.0075C5.32702 16.2118 7.13535 16.875 9 16.875C10.8647 16.875 12.673 16.2118 14.0919 15.0075C14.4257 14.7245 14.7386 14.4107 15.0221 14.075C16.2169 12.6589 16.875 10.8565 16.875 9C16.875 4.65771 13.3423 1.125 9 1.125Z" fill="white"/>
<path d="M9 9C7.139 9 5.625 7.486 5.625 5.625C5.625 3.764 7.139 2.25 9 2.25C10.861 2.25 12.375 3.764 12.375 5.625C12.375 7.486 10.861 9 9 9ZM9 3.375C7.75934 3.375 6.75 4.38434 6.75 5.625C6.75 6.86566 7.75934 7.875 9 7.875C10.2407 7.875 11.25 6.86566 11.25 5.625C11.25 4.38434 10.2407 3.375 9 3.375Z" fill="white"/>
<path d="M14.4563 15.999C14.411 15.999 14.3649 15.9935 14.3189 15.982C14.0176 15.9064 13.8347 15.6008 13.9103 15.2995C14.0113 14.8972 14.0625 14.481 14.0625 14.0625C14.0625 11.3103 11.8249 9.03987 9.07407 9.00035L9 9L8.92593 9.00035C6.17505 9.03987 3.9375 11.3103 3.9375 14.0625C3.9375 14.481 3.98872 14.8972 4.08969 15.2995C4.16531 15.6008 3.98236 15.9064 3.68107 15.982C3.37978 16.0576 3.07417 15.8747 2.99855 15.5734C2.87508 15.0816 2.8125 14.5732 2.8125 14.0625C2.8125 12.425 3.44591 10.8815 4.59605 9.71613C5.74506 8.55197 7.27794 7.89827 8.91232 7.87542C8.91496 7.87539 8.91756 7.87539 8.9202 7.87539L9 7.875L9.0798 7.87535C9.08244 7.87535 9.08504 7.87535 9.08768 7.87539C10.7221 7.8982 12.2549 8.55193 13.404 9.7161C14.5541 10.8815 15.1875 12.425 15.1875 14.0625C15.1875 14.5732 15.1249 15.0816 15.0015 15.5734C14.9374 15.8287 14.7081 15.999 14.4563 15.999Z" fill="white"/>
</svg>
