<svg width="18" height="18" viewBox="0 0 18 18" fill="none" xmlns="http://www.w3.org/2000/svg">
<g clip-path="url(#clip0)">
<path d="M4.78125 10.9348L0 10.1445V17.1901L4.78125 17.9804L9.5625 17.1901V10.1445L4.78125 10.9348ZM4.25391 16.8242L1.05469 16.2954V11.3878L4.25391 11.9167V16.8242ZM8.50781 16.2954L5.30859 16.8242V11.9167L8.50781 11.3878V16.2954Z" fill="white"/>
<path d="M13.2188 0.809809L8.4375 0.0195312V7.06509L13.2188 7.85537L18 7.06509V0.0195312L13.2188 0.809809ZM12.6914 6.69922L9.49219 6.17043V1.26283L12.6914 1.79165V6.69922ZM16.9453 6.17043L13.7461 6.69922V1.79165L16.9453 1.26283V6.17043Z" fill="white"/>
<path d="M7.5387 3.38336L5.93761 1.78149V2.85998C4.37365 2.91321 2.91175 3.54624 1.80105 4.65693C0.639633 5.81835 0 7.36369 0 9.00826H1.05469C1.05469 6.26934 3.22597 4.02841 5.93761 3.91541V4.98483L7.5387 3.38336Z" fill="white"/>
<path d="M16.9449 9.0083C16.9449 11.7472 14.7737 13.9881 12.062 14.1011V13.0317L10.4609 14.6332L12.062 16.235V15.1565C13.626 15.1033 15.0879 14.4703 16.1986 13.3596C17.36 12.1982 17.9996 10.6529 17.9996 9.0083H16.9449Z" fill="white"/>
</g>
<defs>
<clipPath id="clip0">
<rect width="18" height="18" fill="white"/>
</clipPath>
</defs>
</svg>
