<svg width="12" height="18" viewBox="0 0 12 18" fill="none" xmlns="http://www.w3.org/2000/svg">
<path d="M10.4335 6.26407L7.53647 4.67473C7.07223 4.42002 6.73927 3.99213 6.59991 3.49682C6.87786 3.48195 7.09881 3.25255 7.09881 2.97091C7.09881 2.67968 6.8627 2.44357 6.57147 2.44357H6.52728V0.527344C6.52728 0.236109 6.29117 0 5.99993 0H2.13211C1.84088 0 1.60477 0.236109 1.60477 0.527344V2.44354H1.49413C1.2029 2.44354 0.966789 2.67964 0.966789 2.97088C0.966789 3.26211 1.2029 3.49822 1.49413 3.49822H1.60477V3.67759C1.60477 4.06635 1.48977 4.4422 1.27212 4.76452L0.523012 5.87405C0.187234 6.37137 0.00976562 6.95127 0.00976562 7.55114V15.5907C0.00976562 16.9192 1.09128 18 2.42064 18H9.57919C10.9086 18 11.9901 16.9192 11.9901 15.5907V8.89253C11.9901 7.79801 11.3936 6.79082 10.4335 6.26407ZM2.65946 1.05469H5.47259V2.44354H2.65946V1.05469ZM10.9354 15.5907C10.9354 16.3377 10.327 16.9453 9.57919 16.9453H2.42068C1.67287 16.9453 1.06449 16.3376 1.06449 15.5907V7.55114C1.06449 7.16238 1.17948 6.78653 1.39714 6.46421L2.14625 5.35468C2.48202 4.85736 2.65949 4.27746 2.65949 3.67759V3.49822H5.51959C5.67737 4.38142 6.22585 5.15862 7.0292 5.59937L9.92618 7.18871C10.5487 7.53022 10.9354 8.18311 10.9354 8.89253V15.5907Z" fill="white"/>
<path d="M8.58252 10.8884H3.41524C2.76411 10.8884 2.23438 11.4182 2.23438 12.0693V14.5096C2.23438 15.1608 2.76411 15.6905 3.41524 15.6905H8.58252C9.23365 15.6905 9.76335 15.1608 9.76335 14.5096V12.0693C9.76335 11.4182 9.23365 10.8884 8.58252 10.8884ZM8.70866 14.5096C8.70866 14.5792 8.65209 14.6358 8.58252 14.6358H3.41524C3.34567 14.6358 3.28906 14.5792 3.28906 14.5096V12.0693C3.28906 11.9997 3.34567 11.9431 3.41524 11.9431H8.58252C8.65209 11.9431 8.70866 11.9997 8.70866 12.0693V14.5096Z" fill="white"/>
<path d="M5.70914 9.69256H8.60641C9.05127 9.69256 9.41321 9.33074 9.41321 8.88598V8.24237C9.41321 7.93964 9.24615 7.66518 8.9772 7.52603L6.08011 6.02733C5.966 5.96823 5.83771 5.93701 5.70914 5.93701C5.26428 5.93701 4.90234 6.29884 4.90234 6.7436V8.88594C4.90234 9.3307 5.26424 9.69256 5.70914 9.69256ZM5.95703 7.15109L8.35856 8.3934V8.63788H5.95703V7.15109Z" fill="white"/>
</svg>
