<svg width="18" height="18" viewBox="0 0 18 18" fill="none" xmlns="http://www.w3.org/2000/svg">
<g clip-path="url(#clip0)">
<path d="M13.0054 9.8611L11.8058 11.0607L10.6049 9.85983L13.4862 6.97863C13.8029 7.06781 14.1262 7.11141 14.4478 7.11138C15.3729 7.11131 16.2812 6.74984 16.9598 6.07125C17.958 5.07307 18.2701 3.57825 17.7549 2.26302L17.461 1.51288L15.5753 3.39869L14.8139 3.19464L14.6098 2.43319L16.4956 0.547419L15.7455 0.253627C14.4304 -0.261502 12.9355 0.0505272 11.9373 1.0487C11.0229 1.96311 10.6843 3.29426 11.0299 4.52235L8.14874 7.40355L4.27968 3.5345L5.30618 2.50804L2.12457 0.000244141L0 2.12478L2.50776 5.30643L3.53429 4.27993L7.40335 8.14898L4.85989 10.6924C3.53897 10.2786 2.09783 10.6243 1.10359 11.6186C0.397556 12.3246 0.00871433 13.2633 0.00871433 14.2618C0.00871433 15.2603 0.397556 16.199 1.10359 16.905C1.83233 17.6337 2.78953 17.9981 3.74681 17.9981C4.70405 17.9981 5.66129 17.6337 6.39003 16.905C7.38427 15.9108 7.72996 14.4696 7.31617 13.1487L9.85963 10.6053L11.0605 11.8061L9.86089 13.0057L14.2038 17.3486C14.6237 17.7685 15.1821 17.9998 15.7761 17.9998C16.37 17.9998 16.9284 17.7685 17.3483 17.3486C18.2153 16.4816 18.2153 15.071 17.3483 14.204L13.0054 9.8611ZM1.40775 2.20788L2.20768 1.40796L3.7219 2.60151L2.6013 3.7221L1.40775 2.20788ZM12.2496 4.79351L12.1238 4.47238C11.7614 3.54733 11.9808 2.49602 12.6827 1.79406C13.1697 1.30711 13.8246 1.05253 14.4892 1.06301L13.4341 2.11818L13.9531 4.05532L15.8903 4.57442L16.9454 3.51929C16.9561 4.18375 16.7014 4.83887 16.2144 5.32582C15.5124 6.02771 14.4612 6.24715 13.5361 5.8847L13.215 5.75894L9.85956 9.11437L8.89409 8.14891L12.2496 4.79351ZM6.08249 12.8915L6.22017 13.2182C6.64625 14.2293 6.42031 15.3839 5.6446 16.1596C5.12128 16.6829 4.43415 16.9445 3.74677 16.9444C3.05957 16.9444 2.37212 16.6828 1.84895 16.1596C1.34204 15.6526 1.06283 14.9787 1.06283 14.2618C1.06283 13.5448 1.34201 12.8709 1.84895 12.3639C2.36443 11.8485 3.04696 11.5758 3.74372 11.5758C4.09552 11.5758 4.45105 11.6454 4.79028 11.7884L5.117 11.926L8.1487 8.89434L9.11417 9.8598L6.08249 12.8915ZM13.0054 11.3518L13.9709 12.3173L12.3171 13.9711L11.3517 13.0056L13.0054 11.3518ZM16.6029 16.6032C16.3821 16.824 16.0884 16.9457 15.7761 16.9457C15.4637 16.9457 15.17 16.824 14.9492 16.6032L13.0625 14.7165L14.7163 13.0628L16.6029 14.9494C17.0589 15.4053 17.0589 16.1472 16.6029 16.6032Z" fill="white"/>
<path d="M3.74662 12.5254C3.28269 12.5254 2.84651 12.7061 2.5185 13.0341C2.19045 13.3622 2.00977 13.7983 2.00977 14.2622C2.00977 14.7262 2.19045 15.1623 2.51846 15.4904C2.84651 15.8184 3.28269 15.9991 3.74662 15.9991C4.21055 15.9991 4.64669 15.8184 4.97477 15.4904C5.65192 14.8132 5.65192 13.7113 4.97477 13.0341C4.64672 12.7061 4.21055 12.5254 3.74662 12.5254ZM4.22938 14.745C4.10043 14.8739 3.92899 14.9449 3.74665 14.9449C3.56428 14.9449 3.39288 14.8739 3.26392 14.745C3.135 14.616 3.06399 14.4446 3.06399 14.2622C3.06399 14.0799 3.135 13.9085 3.26396 13.7795C3.39288 13.6506 3.56432 13.5796 3.74669 13.5796C3.92902 13.5796 4.10046 13.6506 4.22942 13.7795C4.49552 14.0457 4.49552 14.4788 4.22938 14.745Z" fill="white"/>
</g>
<defs>
<clipPath id="clip0">
<rect width="18" height="18" fill="white"/>
</clipPath>
</defs>
</svg>
