<svg width="18" height="18" viewBox="0 0 18 18" fill="none" xmlns="http://www.w3.org/2000/svg">
<path d="M16.2108 10.5922C16.7278 10.4275 17.1034 9.94285 17.1034 9.37199V8.06562C17.1034 7.35959 16.529 6.78524 15.823 6.78524H14.6527L11.4232 0.292625C11.2935 0.031873 10.977 -0.0744388 10.7162 0.0553221C10.4555 0.185013 10.3493 0.501558 10.4789 0.76231L13.4748 6.78524H3.92742L6.92327 0.76231C7.05296 0.501558 6.94672 0.185013 6.68597 0.0553221C6.42521 -0.0744037 6.10867 0.031873 5.97898 0.292625L2.74948 6.78524H1.57921C0.873171 6.78524 0.298828 7.35962 0.298828 8.06562V9.37199C0.298828 10.078 0.873206 10.6524 1.57921 10.6524H2.35032L3.23885 15.8306C3.47106 17.2093 4.23862 18 5.34473 18H13.4999C15.8164 18 17.701 16.1154 17.701 13.7989C17.701 12.5147 17.1217 11.3634 16.2108 10.5922ZM1.35351 9.37199V8.06562C1.35351 7.94117 1.45476 7.83992 1.57921 7.83992H15.823C15.9474 7.83992 16.0487 7.94117 16.0487 8.06562V9.37199C16.0487 9.49644 15.9474 9.59769 15.823 9.59769C14.9993 9.59769 2.40235 9.59769 1.57921 9.59769C1.45476 9.59772 1.35351 9.49648 1.35351 9.37199ZM10.7194 10.6524C10.3386 10.9893 10.0192 11.3941 9.78029 11.8477H6.16988C5.87864 11.8477 5.64254 12.0838 5.64254 12.3751C5.64254 12.6663 5.87864 12.9024 6.16988 12.9024H9.39537C9.31011 13.2931 9.2809 13.6923 9.30951 14.0977H4.01162L3.42043 10.6524H10.7194ZM5.34477 16.9453C4.42649 16.9453 4.31143 15.8451 4.19256 15.1524H9.52249C9.76074 15.8506 10.1781 16.4664 10.7194 16.9453H5.34477ZM13.4999 16.9453C11.2981 16.9453 9.77776 14.7311 10.5584 12.682C10.6031 12.6197 10.6345 12.5475 10.6487 12.4691C11.1507 11.397 12.2399 10.6524 13.4999 10.6524C15.2349 10.6524 16.6464 12.0639 16.6464 13.7989C16.6464 15.5339 15.2349 16.9453 13.4999 16.9453Z" fill="white"/>
<path d="M14.8887 13.2539H14.0098V12.375C14.0098 12.0838 13.7737 11.8477 13.4824 11.8477C13.1912 11.8477 12.9551 12.0838 12.9551 12.375V13.2539H12.0762C11.7849 13.2539 11.5488 13.49 11.5488 13.7812C11.5488 14.0725 11.7849 14.3086 12.0762 14.3086H12.9551V15.1875C12.9551 15.4787 13.1912 15.7148 13.4824 15.7148C13.7737 15.7148 14.0098 15.4787 14.0098 15.1875V14.3086H14.8887C15.1799 14.3086 15.416 14.0725 15.416 13.7812C15.416 13.49 15.1799 13.2539 14.8887 13.2539Z" fill="white"/>
</svg>
