<svg width="36" height="25" viewBox="0 0 36 25" fill="none" xmlns="http://www.w3.org/2000/svg">
<path d="M35.4878 0.355713H0.512207V8.4519H35.4878V0.355713Z" fill="#259245"/>
<path d="M35.4878 16.548H0.512207V24.6442H35.4878V16.548Z" fill="#ED1F34"/>
<path d="M35.4876 8.45203H33.3095V8.20915C33.3095 8.01267 33.0802 7.85339 32.7972 7.85339C32.5142 7.85339 32.285 8.01267 32.285 8.20915V8.45203H30.6192V8.20915C30.6192 8.01267 30.3898 7.85339 30.1069 7.85339C29.8239 7.85339 29.5945 8.01267 29.5945 8.20915V8.45203H27.9287V8.20915C27.9287 8.01267 27.6994 7.85339 27.4164 7.85339C27.1334 7.85339 26.9041 8.01267 26.9041 8.20915V8.45203H25.2384V8.20915C25.2384 8.01267 25.0091 7.85339 24.7261 7.85339C24.4431 7.85339 24.2139 8.01267 24.2139 8.20915V8.45203H22.5481V8.20915C22.5481 8.01267 22.3187 7.85339 22.0357 7.85339C21.7527 7.85339 21.5234 8.01267 21.5234 8.20915V8.45203H19.8576V8.20915C19.8576 8.01267 19.6283 7.85339 19.3453 7.85339C19.0623 7.85339 18.833 8.01267 18.833 8.20915V8.45203H17.1673V8.20915C17.1673 8.01267 16.9379 7.85339 16.655 7.85339C16.372 7.85339 16.1427 8.01267 16.1427 8.20915V8.45203H14.4769V8.20915C14.4769 8.01267 14.2475 7.85339 13.9646 7.85339C13.6816 7.85339 13.4522 8.01267 13.4522 8.20915V8.45203H11.7865V8.20915C11.7865 8.01267 11.5571 7.85339 11.2742 7.85339C10.9912 7.85339 10.7618 8.01267 10.7618 8.20915V8.45203H9.0961V8.20915C9.0961 8.01267 8.86674 7.85339 8.58373 7.85339C8.30072 7.85339 8.07143 8.01267 8.07143 8.20915V8.45203H6.40545V8.20915C6.40545 8.01267 6.17609 7.85339 5.89308 7.85339C5.61007 7.85339 5.38072 8.01267 5.38072 8.20915V8.45203H3.71501V8.20915C3.71501 8.01267 3.48565 7.85339 3.20272 7.85339C2.91978 7.85339 2.69042 8.01267 2.69042 8.20915V8.45203H0.512207V16.5482H2.69028V16.791C2.69028 16.9875 2.91964 17.1468 3.20257 17.1468C3.48551 17.1468 3.71487 16.9875 3.71487 16.791V16.5482H5.38064V16.791C5.38064 16.9875 5.61 17.1468 5.89301 17.1468C6.17602 17.1468 6.40538 16.9875 6.40538 16.791V16.5482H8.07115V16.791C8.07115 16.9875 8.30051 17.1468 8.58345 17.1468C8.86646 17.1468 9.09582 16.9875 9.09582 16.791V16.5482H10.7615V16.791C10.7615 16.9875 10.9909 17.1468 11.2739 17.1468C11.5569 17.1468 11.7862 16.9875 11.7862 16.791V16.5482H13.452V16.791C13.452 16.9875 13.6813 17.1468 13.9643 17.1468C14.2473 17.1468 14.4766 16.9875 14.4766 16.791V16.5482H16.1424V16.791C16.1424 16.9875 16.3718 17.1468 16.6547 17.1468C16.9377 17.1468 17.167 16.9875 17.167 16.791V16.5482H18.8328V16.791C18.8328 16.9875 19.0621 17.1468 19.3451 17.1468C19.6281 17.1468 19.8574 16.9875 19.8574 16.791V16.5482H21.5231V16.791C21.5231 16.9875 21.7525 17.1468 22.0354 17.1468C22.3184 17.1468 22.5478 16.9875 22.5478 16.791V16.5482H24.2136V16.791C24.2136 16.9875 24.4429 17.1468 24.7259 17.1468C25.0089 17.1468 25.2382 16.9875 25.2382 16.791V16.5482H26.9039V16.791C26.9039 16.9875 27.1332 17.1468 27.4162 17.1468C27.6992 17.1468 27.9285 16.9875 27.9285 16.791V16.5482H29.5942V16.791C29.5942 16.9875 29.8236 17.1468 30.1066 17.1468C30.3896 17.1468 30.6189 16.9875 30.6189 16.791V16.5482H32.2847V16.791C32.2847 16.9875 32.514 17.1468 32.797 17.1468C33.08 17.1468 33.3093 16.9875 33.3093 16.791V16.5482H35.4873V8.45203H35.4876Z" fill="white"/>
<path d="M20.3817 12.259C20.3817 11.7847 20.0879 11.3326 19.5756 11.0186C19.3634 10.8886 19.0397 10.9026 18.8524 11.0499C18.6651 11.1972 18.6853 11.4221 18.8975 11.5521C19.1895 11.7311 19.357 11.9888 19.357 12.259C19.357 12.6528 19.0071 12.9905 18.5122 13.1312V12.0205C18.5122 11.8241 18.2829 11.6648 17.9999 11.6648C17.7169 11.6648 17.4876 11.8241 17.4876 12.0205V13.1312C16.9927 12.9905 16.6429 12.6528 16.6429 12.259C16.6429 11.9888 16.8104 11.7311 17.1024 11.5521C17.3145 11.4221 17.3348 11.1972 17.1475 11.0499C16.9601 10.9026 16.6364 10.8886 16.4243 11.0186C15.912 11.3326 15.6182 11.7847 15.6182 12.259C15.6182 13.0504 16.4229 13.7135 17.4938 13.8751C17.5307 14.0464 17.7429 14.178 17.9999 14.178C18.2569 14.178 18.4691 14.0464 18.5059 13.8751C19.577 13.7135 20.3817 13.0505 20.3817 12.259Z" fill="#ED1F34"/>
<path d="M35.4877 25H0.512297C0.229359 25 0 24.8407 0 24.6442V0.355811C0 0.159277 0.229359 0 0.512297 0H35.4876C35.7706 0 36 0.159277 36 0.355811V24.6442C36 24.8407 35.7706 25 35.4877 25ZM1.02466 24.2884H34.9753V0.711572H1.02466V24.2884Z" fill="black"/>
</svg>
