<svg width="32" height="32" viewBox="0 0 32 32" fill="none" xmlns="http://www.w3.org/2000/svg">
<path fill-rule="evenodd" clip-rule="evenodd" d="M13.643 3.12513C13.9243 5.20131 14.8285 8.05 15.9998 10.8061L15.9999 10.8064C15.6357 11.6634 15.2456 12.5115 14.8404 13.3246L11.4512 10.6979L12.7011 8.13544L10.4512 7.76044L11.1609 3.90106L11.4512 2.32294L13.7637 0.624939C13.5191 1.1645 13.4958 2.03913 13.643 3.12513Z" fill="#6D91AC"/>
<path fill-rule="evenodd" clip-rule="evenodd" d="M13.6434 3.12512H18.357C18.5042 2.03912 18.481 1.1645 18.2363 0.625061H16.0002H13.764C13.5194 1.1645 13.4962 2.03912 13.6434 3.12512Z" fill="#6D91AC"/>
<path fill-rule="evenodd" clip-rule="evenodd" d="M18.3567 3.12512H13.6431C13.9244 5.20131 14.8287 8.05 16.0001 10.8061C17.1712 8.05 18.0754 5.20131 18.3567 3.12512Z" fill="#DAD0D3"/>
<path fill-rule="evenodd" clip-rule="evenodd" d="M18.357 3.12512C18.0757 5.20131 17.1715 8.05 16.0003 10.8061C15.1174 12.8837 14.0828 14.9087 13.0488 16.5105L20.5488 10.698L19.2988 8.1355L21.5487 7.7605L20.839 3.90112L20.5488 2.323L18.2363 0.625C18.4809 1.1645 18.5042 2.03912 18.357 3.12512Z" fill="#6D91AC"/>
<path fill-rule="evenodd" clip-rule="evenodd" d="M14.3621 26.6364C13.8139 21.8536 12.8701 18.9628 12.5393 11.5418L11.4513 10.6981L12.7012 8.13556L10.4513 7.76056L11.1611 3.90118L6.88875 5.51056C2.16288 13.1052 1.33275 20.4719 0.625 31.375H5.13875C5.28931 27.7037 5.63606 23.9734 6.32594 20.1941C6.50406 21.5635 6.83844 22.933 7.17281 24.3025C7.50719 25.672 7.84156 27.0415 8.01969 28.411C10.4438 28.8071 12.1761 29.0694 14.5934 29.1411C14.5296 28.2381 14.4511 27.4124 14.3621 26.6364Z" fill="#6D91AC"/>
<path fill-rule="evenodd" clip-rule="evenodd" d="M13.0489 16.5106C13.656 15.57 14.2634 14.4834 14.8402 13.326L12.5396 11.5418C12.8702 18.9628 13.8141 21.8536 14.3624 26.6364C14.4513 27.4124 14.5299 28.2381 14.5937 29.1411C15.0367 29.1542 15.5027 29.1609 16.0002 29.1609C19.2124 29.1609 21.1121 28.8797 23.9806 28.4109C24.1587 27.0414 24.4931 25.672 24.8274 24.3025C25.1618 22.933 25.4962 21.5636 25.6743 20.1941C26.364 23.9735 26.7108 27.7038 26.8614 31.3751H31.3751C30.6674 20.472 29.8372 13.1052 25.1114 5.51056L20.8391 3.90118L21.5489 7.76056L19.2989 8.13556L20.5489 10.6981L13.0489 16.5106Z" fill="#6D91AC"/>
<path d="M31.9987 31.3344C31.3008 20.5853 30.4814 12.9576 25.6418 5.1803C25.5692 5.06362 25.4601 4.97411 25.3315 4.92562L21.3897 3.44068L21.1633 2.20987C21.1345 2.05318 21.047 1.91343 20.9186 1.81912L18.6061 0.121187C18.4988 0.0424374 18.3692 0 18.2362 0H13.7637C13.6307 0 13.5011 0.0424374 13.3938 0.121187L11.0813 1.81912C10.9529 1.91343 10.8654 2.05318 10.8365 2.20987L10.6102 3.44068L6.66836 4.92562C6.53974 4.97405 6.43067 5.06362 6.35805 5.1803C1.51862 12.9576 0.699187 20.5853 0.00131287 31.3344C-0.0098746 31.5069 0.0508128 31.6763 0.169 31.8023C0.287125 31.9284 0.452249 31.9999 0.624999 31.9999H5.1388C5.47399 31.9999 5.74949 31.7355 5.76324 31.4006C5.87361 28.7088 6.08424 26.1795 6.40011 23.7691C6.45511 23.9973 6.51055 24.2246 6.56567 24.4505C6.89042 25.7807 7.22624 27.1561 7.39992 28.4915C7.43555 28.7653 7.64649 28.9832 7.91892 29.0278C10.7955 29.4978 12.7249 29.7859 16 29.7859C19.2751 29.7859 21.2045 29.4978 24.0811 29.0278C24.3535 28.9833 24.5644 28.7653 24.6001 28.4916C24.7738 27.1563 25.1096 25.781 25.4343 24.451C25.4895 24.225 25.5449 23.9976 25.5999 23.7693C25.9158 26.1797 26.1264 28.7089 26.2368 31.4006C26.2506 31.7356 26.5261 32 26.8613 32H31.3749C31.5477 32 31.7128 31.9284 31.831 31.8024C31.9492 31.6763 32.0099 31.5069 31.9987 31.3344ZM20.819 7.24849L19.196 7.51905C19.0014 7.55149 18.8335 7.67386 18.7431 7.84917C18.6528 8.02455 18.6505 8.23223 18.737 8.40955L19.7641 10.5153L15.1563 14.0863C16.1361 12.1834 17.0552 10.0317 17.7707 7.9348C18.2999 6.38374 19.042 3.88449 19.0683 2.01143L19.9788 2.67999L20.819 7.24849ZM17.7753 1.25006C17.8373 1.58056 17.8437 2.00356 17.8008 2.50012H14.1972C14.1552 1.99987 14.1632 1.57787 14.2247 1.25006H17.7753ZM17.6209 3.75012C17.3307 5.27361 16.7533 7.17824 15.9982 9.14036C15.2145 7.11574 14.6542 5.23743 14.3741 3.75012H17.6209ZM13.3673 14.7723C13.3182 14.1743 13.2734 13.5428 13.2338 12.8713L14.0506 13.5047C13.8275 13.9387 13.5993 14.3625 13.3673 14.7723ZM12.9297 2.01287C12.96 4.3183 14.0765 7.82923 15.3207 10.8033C15.0955 11.3271 14.8599 11.8484 14.616 12.3613L12.2358 10.5154L13.263 8.40948C13.3495 8.23217 13.3473 8.02448 13.2568 7.84911C13.1665 7.6738 12.9986 7.55136 12.804 7.51899L11.181 7.24842L12.0211 2.67993L12.9297 2.01287ZM4.54068 30.7499H3.54037L3.78993 27.6623C3.81768 27.3182 3.56137 27.0168 3.21731 26.9889C2.87262 26.9613 2.57175 27.2175 2.544 27.5616L2.28625 30.7499H1.29237C1.94493 20.913 2.77006 13.7524 6.9298 6.65142C8.26205 8.78786 7.83311 10.6179 6.84792 14.821C6.62524 15.771 6.3728 16.8478 6.1128 18.0582C5.97111 18.7178 5.83943 19.3851 5.71611 20.0598C5.71293 20.0744 5.71011 20.0891 5.70793 20.104C5.1048 23.4162 4.72018 26.9231 4.54068 30.7499ZM7.33505 18.3207C7.59255 17.1218 7.84355 16.051 8.06498 15.1063C9.07586 10.7939 9.61967 8.47417 7.87242 5.80793L10.3464 4.87599L9.83667 7.64755C9.80635 7.81236 9.84348 7.98242 9.93973 8.11961C10.036 8.2568 10.1832 8.34955 10.3486 8.37711L11.7724 8.61442L10.8896 10.4241C10.7599 10.6901 10.8344 11.0107 11.0683 11.192L11.9285 11.8592C12.1535 16.6038 12.6264 19.4671 13.0842 22.2366C13.288 23.4695 13.4852 24.663 13.6533 25.9824C11.6845 25.8863 10.0898 25.6653 8.06873 25.3549C7.99355 25.034 7.91661 24.715 7.83936 24.3981L10.6267 19.5703C10.7993 19.2714 10.6969 18.8892 10.3979 18.7166C10.0989 18.5439 9.71667 18.6464 9.54417 18.9453L7.4163 22.6309C7.23211 21.8233 7.06774 21.0111 6.9593 20.2125C7.07661 19.5749 7.20111 18.9441 7.33505 18.3207ZM8.35642 26.663C10.2689 26.9522 11.8428 27.1553 13.7997 27.2406C13.8417 27.6413 13.8808 28.0563 13.9166 28.4892C12.016 28.3983 10.4964 28.179 8.57373 27.8678C8.51192 27.4658 8.43755 27.0639 8.35642 26.663ZM24.5837 22.6308L22.4558 18.9451C22.2833 18.6463 21.901 18.5438 21.6021 18.7164C21.3031 18.889 21.2007 19.2712 21.3733 19.5701L24.1606 24.398C24.0834 24.7148 24.0065 25.0338 23.9313 25.3547C23.2868 25.4536 22.7239 25.5377 22.1787 25.6128C21.8368 25.6598 21.5977 25.9753 21.6448 26.3172C21.6879 26.6303 21.9558 26.857 22.2632 26.857C22.2916 26.857 22.3203 26.8551 22.3493 26.8511C22.763 26.7941 23.185 26.7323 23.6436 26.663C23.5625 27.0638 23.4881 27.4658 23.4263 27.8678C20.8551 28.2839 19.005 28.5359 16.0001 28.5359C15.7148 28.5359 15.4402 28.5336 15.1741 28.5291C15.1393 28.0953 15.1014 27.6793 15.0605 27.2783C15.3625 27.2833 15.675 27.2858 16 27.2858C16.2279 27.2858 16.4493 27.2845 16.6655 27.282C17.0107 27.278 17.2873 26.9949 17.2833 26.6498C17.2793 26.3071 17.0003 26.0321 16.6585 26.0321C16.6561 26.0321 16.6536 26.0321 16.6512 26.0321C16.4396 26.0345 16.2229 26.0358 16 26.0358C15.6233 26.0358 15.2645 26.0321 14.9188 26.0251C14.743 24.6068 14.5339 23.3416 14.3175 22.0326C14.0578 20.4614 13.7932 18.8599 13.5729 16.895L20.9316 11.192C21.1655 11.0107 21.2402 10.69 21.1104 10.424L20.2276 8.6143L21.6514 8.37698C21.8168 8.34948 21.964 8.25667 22.0603 8.11948C22.1565 7.9823 22.1937 7.81223 22.1633 7.64742L21.6536 4.87587L24.1276 5.8078C22.3803 8.47411 22.9241 10.7938 23.935 15.1063C24.1565 16.051 24.4075 17.1218 24.665 18.3206C24.7989 18.9439 24.9234 19.5746 25.0406 20.212C24.9322 21.0108 24.7679 21.8231 24.5837 22.6308ZM29.7138 30.7499L29.456 27.5615C29.4283 27.2175 29.1266 26.9616 28.7827 26.9889C28.4386 27.0167 28.1823 27.3182 28.2101 27.6622L28.4596 30.7499H27.4593C27.2798 26.9231 26.8952 23.4161 26.292 20.1038C26.2899 20.0891 26.2871 20.0746 26.2839 20.0603C26.1606 19.3854 26.0289 18.7179 25.8872 18.0582C25.6272 16.848 25.3748 15.7712 25.1521 14.8211C24.1668 10.618 23.7379 8.78792 25.0701 6.65149C29.2299 13.7524 30.055 20.913 30.7076 30.7499H29.7138Z" fill="black"/>
<path d="M21.3752 13.1331L17.8126 16.0081C17.544 16.2249 17.5019 16.6184 17.7187 16.8871C17.8423 17.0401 18.023 17.1196 18.2055 17.1196C18.3433 17.1196 18.482 17.0742 18.5976 16.9809L22.1602 14.1059C22.4288 13.8891 22.4709 13.4956 22.254 13.227C22.0372 12.9584 21.6437 12.9164 21.3752 13.1331Z" fill="black"/>
<path d="M19.468 25.9139H19.4675C19.1224 25.9139 18.8428 26.1937 18.8428 26.5389C18.8428 26.8841 19.1228 27.1639 19.468 27.1639C19.8132 27.1639 20.093 26.8841 20.093 26.5389C20.093 26.1937 19.8131 25.9139 19.468 25.9139Z" fill="black"/>
</svg>
