<svg width="22" height="16" viewBox="0 0 22 16" fill="none" xmlns="http://www.w3.org/2000/svg">
<path d="M6.02504 9.06607C7.57826 9.55167 9.19612 9.79897 10.8235 9.79955C12.4508 9.79897 14.0687 9.55167 15.6219 9.06607C15.745 9.02779 15.8383 8.92674 15.8667 8.801C15.8951 8.67525 15.8543 8.54391 15.7596 8.45645C15.6649 8.36898 15.5307 8.33869 15.4076 8.37697C12.4237 9.3114 9.22544 9.3114 6.24151 8.37697C6.05122 8.31779 5.84899 8.42408 5.78981 8.61437C5.73063 8.80466 5.83692 9.00689 6.02721 9.06607H6.02504Z" fill="#234F14" stroke="#234F14" stroke-width="0.2"/>
<path d="M6.07779 6.91322C7.64802 7.15605 9.23464 7.2774 10.8235 7.27617C12.4124 7.2774 13.9991 7.15605 15.5693 6.91322C15.6979 6.89473 15.8066 6.80854 15.8539 6.68755C15.9013 6.56657 15.8799 6.42948 15.798 6.32864C15.7161 6.2278 15.5863 6.17878 15.4582 6.20031C12.3865 6.67294 9.26059 6.67294 6.18891 6.20031C5.99333 6.17219 5.81152 6.30662 5.78109 6.50186C5.75066 6.69709 5.88293 6.88048 6.07779 6.91322Z" fill="#234F14" stroke="#234F14" stroke-width="0.2"/>
<path d="M15.3581 10.9224C12.4966 12.3205 9.15019 12.3205 6.28869 10.9224C6.17142 10.8566 6.02723 10.8614 5.91463 10.935C5.80204 11.0086 5.73973 11.1387 5.75298 11.2726C5.76624 11.4064 5.85286 11.5218 5.9777 11.5719C9.0355 13.0656 12.6113 13.0656 15.6691 11.5719C15.7939 11.5218 15.8805 11.4064 15.8938 11.2726C15.9071 11.1387 15.8447 11.0086 15.7321 10.935C15.6196 10.8614 15.4754 10.8566 15.3581 10.9224Z" fill="#234F14" stroke="#234F14" stroke-width="0.2"/>
<path d="M20.2039 3.67069H18.3336C18.1813 3.23978 17.7747 2.95101 17.3176 2.94912H16.7729C15.433 2.93162 14.1723 2.31141 13.3407 1.26065C12.7247 0.503196 11.8002 0.0634766 10.8239 0.0634766C9.84754 0.0634766 8.92311 0.503196 8.30706 1.26065C7.47531 2.31156 6.21432 2.93179 4.8742 2.94912H4.32941C3.87238 2.95101 3.46579 3.23978 3.31344 3.67069H1.44314C0.646115 3.67069 0 4.3168 0 5.11382V6.91774C0 8.81403 1.69785 10.5591 3.75865 10.8434C4.77609 13.6244 7.28446 15.5863 10.2286 15.9038C10.6242 15.9486 11.0236 15.9486 11.4192 15.9038C14.3631 15.586 16.8711 13.6242 17.8884 10.8434C19.9492 10.5591 21.6471 8.81403 21.6471 6.91774V5.11382C21.6471 4.3168 21.0009 3.67069 20.2039 3.67069ZM4.32941 3.67069H4.8742C6.43167 3.65332 7.89839 2.935 8.867 1.71524C9.34588 1.12599 10.0648 0.783872 10.8241 0.783872C11.5834 0.783872 12.3023 1.12599 12.7811 1.71524C13.7494 2.93488 15.2157 3.6532 16.7729 3.67069H17.3176C17.5169 3.67069 17.6784 3.83221 17.6784 4.03147V4.39225L16.5961 4.39045H16.5889C14.8728 4.3443 13.2685 3.52889 12.2198 2.16982C11.8775 1.74917 11.3638 1.50525 10.8215 1.50588C10.2792 1.50651 9.76606 1.75162 9.42477 2.17307C8.37647 3.53021 6.77354 4.34413 5.05928 4.38973H5.05098L3.96863 4.39225V4.03147C3.96863 3.83221 4.13016 3.67069 4.32941 3.67069ZM0.721569 6.91774V5.11382C0.721569 4.71531 1.04463 4.39225 1.44314 4.39225H3.24706V8.0001C3.2482 8.697 3.33853 9.39089 3.51584 10.0649C2.08245 9.71959 0.721569 8.49509 0.721569 6.91774ZM11.3438 15.1862C10.998 15.2252 10.649 15.2252 10.3033 15.1862C7.56196 14.887 5.24579 13.019 4.37271 10.4033V10.3997C4.10645 9.62761 3.96991 8.81678 3.96863 8.0001V5.11382L5.05098 5.11202C6.98672 5.07429 8.80103 4.16123 9.98471 2.6291C10.1891 2.37613 10.4967 2.22887 10.8219 2.22831C11.1472 2.22775 11.4553 2.37395 11.6605 2.62622C12.8458 4.15328 14.6552 5.06612 16.5878 5.11202H16.5961L17.6784 5.11382V8.0001C17.6774 8.81648 17.5412 9.62706 17.2754 10.399V10.4026C16.4024 13.0189 14.0857 14.8873 11.3438 15.1862ZM20.9255 6.91774C20.9255 8.49509 19.5646 9.71959 18.1312 10.0656C18.3086 9.39138 18.3989 8.69724 18.4 8.0001V4.39225H20.2039C20.6024 4.39225 20.9255 4.71531 20.9255 5.11382V6.91774Z" fill="#234F14" stroke="#234F14" stroke-width="0.2"/>
</svg>
