<svg width="20" height="16" viewBox="0 0 20 16" fill="none" xmlns="http://www.w3.org/2000/svg">
<path d="M18.0348 1.59004L18.1202 1.50469H17.9995H2.00621H1.88476L1.97101 1.59019L10.0021 9.55242L10.0374 9.58747L10.0726 9.55227L18.0348 1.59004ZM1.12188 13.6167V13.7374L1.20723 13.6521L6.85094 8.00836L6.88645 7.97286L6.85079 7.9375L1.20708 2.34219L1.12188 2.25772V2.3777V13.6167ZM1.96515 14.41L1.8798 14.4953H2.00051H17.9995H18.1202L18.0348 14.41L12.4182 8.79328L12.3828 8.75792L12.3475 8.79328L10.418 10.7227L10.4534 10.758L10.418 10.7227C10.2094 10.9314 9.87128 10.9321 9.66177 10.7243L7.68298 8.76254L7.64762 8.72749L7.61242 8.76269L1.96515 14.41ZM18.7928 13.652L18.8781 13.7374V13.6167V2.38328V2.26257L18.7928 2.34793L13.1761 7.96464L13.1407 8L13.1761 8.03536L18.7928 13.652ZM1.75781 0.432813H18.2422C19.186 0.432813 19.95 1.2025 19.95 2.14062V13.8594C19.95 14.8032 19.1803 15.5672 18.2422 15.5672H1.75781C0.813974 15.5672 0.05 14.7975 0.05 13.8594V2.14062C0.05 1.19935 0.817364 0.432813 1.75781 0.432813Z" fill="#9C9C9C" stroke="white" stroke-width="0.1"/>
</svg>
