<svg width="36" height="25" viewBox="0 0 36 25" fill="none" xmlns="http://www.w3.org/2000/svg">
<g clip-path="url(#clip0)">
<path d="M37 0H0V25H37V0Z" fill="#F0F0F0"/>
<path d="M37 0H9V25H37V0Z" fill="#496E2D"/>
<path d="M28.6854 14.5155C27.0689 15.6296 24.8116 15.2828 23.6435 13.741C22.4754 12.1991 22.8391 10.0461 24.4556 8.93205C24.9596 8.58474 25.5259 8.37937 26.1021 8.30799C24.9937 8.14984 23.8221 8.38811 22.8418 9.0636C20.8523 10.4348 20.4047 13.0847 21.8423 14.9823C23.2798 16.8799 26.0581 17.3068 28.0477 15.9356C29.0279 15.2601 29.6329 14.274 29.8235 13.2205C29.5715 13.7198 29.1894 14.1681 28.6854 14.5155Z" fill="#F0F0F0"/>
<path d="M28.616 8.26123L29.5266 9.19721L30.7412 8.66059L30.0892 9.77576L30.9998 10.7118L29.6863 10.465L29.0343 11.5802L28.8745 10.3125L27.561 10.0657L28.7757 9.52899L28.616 8.26123Z" fill="#F0F0F0"/>
</g>
<defs>
<clipPath id="clip0">
<rect width="36" height="25" rx="1" fill="white"/>
</clipPath>
</defs>
</svg>
