<svg width="13" height="14" viewBox="0 0 13 14" fill="none" xmlns="http://www.w3.org/2000/svg">
<path d="M11.2183 7.35496H10.5553C10.5553 5.21895 8.79548 3.48208 6.63292 3.48208L6.63252 2.82835C9.16161 2.82718 11.2183 4.85829 11.2183 7.35496ZM6.63252 3.95745L6.63213 4.61118C8.16549 4.61118 9.41113 5.84203 9.41033 7.35457L10.0733 7.35418C10.0733 5.48138 8.53083 3.95745 6.63252 3.95745ZM6.5 0.871094C2.91551 0.871094 0 3.74923 0 7.28817C0 10.8263 2.91551 13.7045 6.5 13.7045C6.72167 13.7045 6.90075 13.5277 6.90075 13.3092C6.90075 13.0896 6.72167 12.9124 6.5 12.9124C3.35765 12.9124 0.801904 10.3887 0.801904 7.28817C0.801904 4.1861 3.35765 1.66272 6.5 1.66272C9.64235 1.66272 12.1977 4.18649 12.1977 7.28817C12.1977 8.58424 11.4989 9.86852 10.4988 10.413C10.1354 10.6103 9.74144 10.7081 9.32119 10.712C9.5735 10.5639 9.79199 10.3635 9.95436 10.1113C9.98619 10.0638 10.0284 10.0217 10.0491 9.97027C10.1796 9.6603 10.1911 9.30869 10.2699 8.98104C10.3667 8.56302 8.41621 7.74626 8.24668 8.26838C8.18539 8.46167 8.09147 9.07297 7.9685 9.23404C7.85906 9.37783 7.58924 9.30947 7.4205 9.16804C6.97597 8.79403 6.4797 8.24441 6.04433 7.8099L6.04512 7.80951C6.03398 7.79811 6.02045 7.78554 6.00851 7.77336C5.99617 7.76197 5.98384 7.74901 5.9715 7.73722V7.73801C5.53135 7.30742 4.97419 6.8187 4.59573 6.37908C4.45246 6.21251 4.38321 5.94614 4.52887 5.8381C4.69203 5.71592 5.31127 5.62478 5.50707 5.56349C6.03478 5.39691 5.2086 3.4703 4.78436 3.56616C4.45325 3.64277 4.09707 3.65534 3.78308 3.78341C3.72975 3.80581 3.68836 3.84627 3.64021 3.8777C2.5263 4.57465 2.38263 6.26711 3.46988 7.52821C3.88416 8.01065 4.31635 8.47738 4.76128 8.93311L4.75889 8.93468C4.77123 8.94686 4.78397 8.95825 4.7967 8.97003C4.80864 8.98221 4.82018 8.99439 4.83172 9.00736L4.83411 9.005C5.29575 9.44422 5.84296 10.0913 6.73202 10.6766C8.60366 11.9106 10.0399 11.5661 10.886 11.108C12.3465 10.314 13 8.61803 13 7.28974C13 3.74923 10.0841 0.871094 6.5 0.871094Z" fill="#669966"/>
</svg>
