<svg width="41" height="40" viewBox="0 0 41 40" fill="none" xmlns="http://www.w3.org/2000/svg">
<g clip-path="url(#clip0)">
<path d="M35.3432 1.80583C34.4232 1.80583 33.6765 2.5525 33.6765 3.4725V4.86167C30.0965 1.74 25.5307 0 20.6649 0C9.69404 0 0.769043 8.9575 0.769043 19.9667C0.769043 20.8867 1.51571 21.6333 2.43571 21.6333C3.35571 21.6333 4.10238 20.8867 4.10238 19.9667C4.10238 10.795 11.5324 3.33333 20.6649 3.33333C24.6707 3.33333 28.434 4.75167 31.4007 7.29917H29.8732C28.9532 7.29917 28.2065 8.04583 28.2065 8.96583C28.2065 9.88583 28.9532 10.6325 29.8732 10.6325H35.3432C36.2632 10.6325 37.0099 9.88583 37.0099 8.96583V3.4725C37.0099 2.5525 36.2632 1.80583 35.3432 1.80583Z" fill="#234F14"/>
<path d="M39.1024 18.3668C38.1824 18.3668 37.4358 19.1135 37.4358 20.0335C37.4358 29.2052 30.0058 36.6668 20.8733 36.6668C16.9141 36.6668 13.1908 35.2835 10.2408 32.7918H11.8416C12.7616 32.7918 13.5083 32.0452 13.5083 31.1252C13.5083 30.2052 12.7616 29.4585 11.8416 29.4585H6.37077C6.35577 29.4585 6.34243 29.4627 6.32827 29.4627C6.26493 29.4643 6.20243 29.4727 6.1391 29.4818C6.09243 29.4885 6.04577 29.4927 5.99993 29.5035C5.94493 29.516 5.89077 29.536 5.8366 29.5543C5.7866 29.5718 5.73577 29.5868 5.68743 29.6085C5.6416 29.6293 5.59827 29.656 5.5541 29.681C5.5016 29.711 5.44993 29.7402 5.40077 29.7752C5.38827 29.7843 5.3741 29.7893 5.3616 29.7993C5.33327 29.821 5.3116 29.8477 5.28493 29.871C5.24077 29.9093 5.1966 29.9477 5.1566 29.991C5.1191 30.031 5.0866 30.0727 5.0541 30.1152C5.0216 30.1577 4.98993 30.2002 4.96077 30.2452C4.9316 30.2918 4.9066 30.3402 4.88243 30.3885C4.85827 30.436 4.83577 30.4843 4.8166 30.5343C4.79743 30.586 4.78243 30.6377 4.76827 30.691C4.75493 30.7418 4.74077 30.7927 4.73243 30.8452C4.72243 30.9043 4.71827 30.9635 4.7141 31.0235C4.7116 31.0577 4.7041 31.091 4.7041 31.126V36.6193C4.7041 37.5393 5.45077 38.286 6.37077 38.286C7.29077 38.286 8.03744 37.5393 8.03744 36.6193V35.2943C11.5899 38.3185 16.0874 40.0002 20.8733 40.0002C31.8441 40.0002 40.7691 31.0427 40.7691 20.0335C40.7691 19.1135 40.0224 18.3668 39.1024 18.3668Z" fill="#234F14"/>
</g>
<defs>
<clipPath id="clip0">
<rect width="40" height="40" fill="white" transform="translate(0.769043)"/>
</clipPath>
</defs>
</svg>
