<svg width="40" height="40" viewBox="0 0 40 40" fill="none" xmlns="http://www.w3.org/2000/svg">
<path d="M35.7031 6.25H34.5312V3.51562C34.5312 1.57711 32.9541 0 31.0156 0C29.0771 0 27.5 1.57711 27.5 3.51562V4.47539C27.5 5.68977 26.6845 6.77094 25.5168 7.10453L24.375 7.43078V7.42188C24.375 6.77469 23.8503 6.25 23.2031 6.25H18.5156C17.8684 6.25 17.3438 6.77469 17.3438 7.42188V12.6562H3.51562C1.57711 12.6562 0 14.2334 0 16.1719V38.8281C0 39.2603 0.237891 39.6574 0.618906 39.8613C0.792188 39.9541 0.982187 40 1.1718 40C1.39914 40 1.62586 39.9339 1.82187 39.8031L6.21422 36.875H28.5156C30.4541 36.875 32.0312 35.2979 32.0312 33.3594V21.0938H35.7031C38.0724 21.0938 40 19.1662 40 16.7969V10.5469C40 8.17758 38.0724 6.25 35.7031 6.25ZM19.6875 8.59375H22.0312V18.75H19.6875V8.59375ZM29.6875 33.3594C29.6875 34.0055 29.1618 34.5312 28.5156 34.5312H5.85938C5.62805 34.5312 5.40188 34.5998 5.20937 34.7281L2.34375 36.6385V16.1719C2.34375 15.5257 2.86945 15 3.51562 15H17.3438V19.9219C17.3438 20.5691 17.8684 21.0938 18.5156 21.0938H23.2031C23.8052 21.0938 24.3006 20.6395 24.3669 20.0552C25.4109 20.721 26.6384 21.0938 27.9149 21.0938H29.6875V33.3594ZM37.6562 16.7969C37.6562 17.8738 36.7801 18.75 35.7031 18.75H27.9149C26.4901 18.75 25.1594 18.0312 24.375 16.8558V9.86836L26.1606 9.3582C28.3292 8.73859 29.8438 6.7307 29.8438 4.47539V3.51562C29.8438 2.86945 30.3695 2.34375 31.0156 2.34375C31.6618 2.34375 32.1875 2.86945 32.1875 3.51562V7.42188C32.1875 8.06906 32.7122 8.59375 33.3594 8.59375H35.7031C36.7801 8.59375 37.6562 9.46992 37.6562 10.5469V16.7969Z" fill="#234F14"/>
<path d="M5.85938 22.0312H13.6719C14.3191 22.0312 14.8438 21.5066 14.8438 20.8594C14.8438 20.2122 14.3191 19.6875 13.6719 19.6875H5.85938C5.21219 19.6875 4.6875 20.2122 4.6875 20.8594C4.6875 21.5066 5.21219 22.0312 5.85938 22.0312Z" fill="#234F14"/>
<path d="M26.1719 24.375H5.85938C5.21219 24.375 4.6875 24.8997 4.6875 25.5469C4.6875 26.1941 5.21219 26.7188 5.85938 26.7188H26.1719C26.8191 26.7188 27.3438 26.1941 27.3438 25.5469C27.3438 24.8997 26.8191 24.375 26.1719 24.375Z" fill="#234F14"/>
<path d="M26.1719 29.0625H5.85938C5.21219 29.0625 4.6875 29.5872 4.6875 30.2344C4.6875 30.8816 5.21219 31.4062 5.85938 31.4062H26.1719C26.8191 31.4062 27.3438 30.8816 27.3438 30.2344C27.3438 29.5872 26.8191 29.0625 26.1719 29.0625Z" fill="#234F14"/>
</svg>
