<svg width="33" height="21" viewBox="0 0 33 21" fill="none" xmlns="http://www.w3.org/2000/svg">
<path d="M5.67263 20.8445C5.93573 20.8909 6.18645 20.716 6.23312 20.4532C6.27991 20.1903 6.10466 19.9394 5.84182 19.8927C3.01707 19.3905 0.966805 16.94 0.966805 14.066C0.966805 10.8025 3.62171 8.14764 6.88513 8.14764C7.66347 8.14764 8.40714 8.29897 9.08848 8.57329L8.79347 9.16381C8.2014 8.93249 7.55816 8.8041 6.88513 8.8041C3.98375 8.8041 1.62333 11.1645 1.62333 14.066C1.62333 16.9673 3.98375 19.3278 6.88513 19.3278C9.62344 19.3278 11.8789 17.2249 12.1238 14.5494H12.7831C12.568 17.211 10.5933 19.419 7.92844 19.8927C7.6656 19.9394 7.49035 20.1903 7.53714 20.4532C7.57878 20.6875 7.78258 20.852 8.01249 20.852C8.04059 20.852 8.06908 20.8496 8.09763 20.8445C10.8056 20.3631 12.9003 18.3428 13.5549 15.7767C13.8566 16.0549 14.2318 16.2546 14.6477 16.3428V17.3307H14.2243C13.9572 17.3307 13.7409 17.547 13.7409 17.8141C13.7409 18.0811 13.9572 18.2975 14.2243 18.2975H16.038C16.305 18.2975 16.5214 18.0811 16.5214 17.8141C16.5214 17.547 16.305 17.3307 16.038 17.3307H15.6146V16.3428C16.6668 16.1196 17.4588 15.1837 17.4588 14.0659C17.4588 13.545 17.2868 13.0635 16.9966 12.6753L22.7144 6.34229L23.2594 7.80146C20.8841 8.88847 19.2297 11.2876 19.2297 14.0659C19.2297 17.8623 22.3184 20.951 26.1149 20.951C29.9113 20.951 33 17.8623 33 14.0659C33 10.2695 29.9113 7.18077 26.1149 7.18077C25.4378 7.18077 24.7834 7.27951 24.1648 7.46249L22.51 3.03124H25.2796C25.4706 3.49634 25.928 3.82499 26.4611 3.82499C26.5645 3.82499 26.6487 3.90917 26.6487 4.01261C26.6487 4.11606 26.5645 4.20024 26.4611 4.20024H25.8727C25.1684 4.20024 24.5955 4.77323 24.5955 5.47739C24.5955 6.18154 25.1685 6.75447 25.8727 6.75447H26.4611C27.973 6.75447 29.203 5.52444 29.203 4.01255C29.203 2.50066 27.973 1.27063 26.4611 1.27063C25.928 1.27063 25.4706 1.59928 25.2796 2.06431H21.8134C21.4829 2.06431 21.2412 2.39599 21.3606 2.71684L21.8509 4.02969H11.9924L11.6847 3.20559C11.8807 3.0839 12.0476 2.91452 12.1653 2.70749C12.2427 2.57117 12.3882 2.48642 12.5451 2.48642H14.6007C15.1695 2.48642 15.5571 1.90936 15.3428 1.38284L15.3427 1.38278C15.0125 0.572273 14.2335 0.0485229 13.3582 0.0485229H8.40591C7.74546 0.0485229 7.20817 0.585873 7.20817 1.24633C7.20817 2.44362 8.18226 3.41771 9.37961 3.41771H10.7319L11.1305 4.48519L9.52174 7.70574C8.70923 7.36762 7.81868 7.18057 6.88519 7.18057C3.08868 7.18083 0 10.2695 0 14.066C0 17.4094 2.38569 20.2602 5.67263 20.8445ZM26.1149 8.14764C29.3783 8.14764 32.0332 10.8025 32.0332 14.066C32.0332 17.3294 29.3783 19.9843 26.1149 19.9843C22.8515 19.9843 20.1965 17.3294 20.1965 14.066C20.1965 11.7019 21.59 9.6574 23.5987 8.71L23.8292 9.32714C22.0695 10.1793 20.8531 11.9832 20.8531 14.066C20.8531 16.9673 23.2136 19.3278 26.1149 19.3278C28.5524 19.3278 30.655 17.6747 31.228 15.3077C31.2909 15.0482 31.1315 14.7869 30.872 14.7241C30.6124 14.6611 30.3513 14.8207 30.2884 15.0801C29.8208 17.0118 28.1046 18.3609 26.1149 18.3609C23.7467 18.3609 21.8199 16.4341 21.8199 14.0659C21.8199 12.3976 22.7766 10.9496 24.1696 10.2386L25.2007 12.9997C24.9003 13.2577 24.7094 13.6398 24.7094 14.066C24.7094 14.841 25.3399 15.4715 26.1149 15.4715C26.89 15.4715 27.5205 14.841 27.5205 14.066C27.5205 13.2909 26.89 12.6604 26.1149 12.6604C26.112 12.6604 26.1091 12.6606 26.1062 12.6606L25.0748 9.89891C25.4081 9.8157 25.7563 9.77084 26.115 9.77084C28.1046 9.77084 29.8208 11.12 30.2885 13.0517C30.3513 13.311 30.6124 13.4705 30.8721 13.4077C31.1316 13.3449 31.2909 13.0836 31.2281 12.8241C30.6551 10.4571 28.5524 8.80397 26.115 8.80397C25.6375 8.80397 25.1751 8.86907 24.735 8.98882L24.5041 8.37033C25.0163 8.22537 25.5566 8.14764 26.1149 8.14764ZM26.1149 13.6273C26.3568 13.6273 26.5537 13.8241 26.5537 14.066C26.5537 14.3079 26.3568 14.5048 26.1149 14.5048C25.873 14.5048 25.6761 14.3079 25.6761 14.066C25.6761 13.8241 25.873 13.6273 26.1149 13.6273ZM9.95287 9.00642C11.5308 9.96671 12.6261 11.6441 12.7836 13.5826H12.1238C11.9698 11.9008 11.0216 10.446 9.65793 9.59681L9.95287 9.00642ZM8.20501 13.5826C8.13875 13.4023 8.03627 13.2394 7.90691 13.1023L9.2237 10.4662C10.2725 11.15 11.0055 12.2785 11.1522 13.5826H8.20501ZM6.88513 13.6273C7.12702 13.6273 7.32387 13.8241 7.32387 14.066C7.32387 14.3079 7.12702 14.5048 6.88513 14.5048C6.64317 14.5048 6.44633 14.3079 6.44633 14.066C6.44633 13.8241 6.64317 13.6273 6.88513 13.6273ZM6.88513 18.361C4.51691 18.361 2.59013 16.4342 2.59013 14.066C2.59013 11.6977 4.51691 9.7709 6.88513 9.7709C7.40302 9.7709 7.89976 9.86307 8.35989 10.0318L7.04227 12.6694C6.99064 12.6636 6.93824 12.6604 6.88513 12.6604C6.11014 12.6604 5.47953 13.2909 5.47953 14.066C5.47953 14.841 6.11008 15.4715 6.88513 15.4715C7.49035 15.4715 8.00746 15.087 8.20501 14.5494H11.1522C10.9111 16.6908 9.0899 18.361 6.88513 18.361ZM15.6146 15.3365V14.066C15.6146 13.7989 15.3982 13.5826 15.1312 13.5826C14.8642 13.5826 14.6478 13.7989 14.6478 14.066V15.3365C14.1356 15.141 13.7703 14.646 13.7703 14.066C13.7703 13.3156 14.3808 12.7052 15.1312 12.7052C15.8816 12.7052 16.492 13.3157 16.492 14.066C16.492 14.646 16.1267 15.141 15.6146 15.3365ZM26.4611 2.23763C27.4399 2.23763 28.2362 3.03389 28.2362 4.01274C28.2362 4.9916 27.4399 5.78786 26.4611 5.78786H25.8727C25.7015 5.78786 25.5623 5.64864 25.5623 5.47758C25.5623 5.30646 25.7015 5.16724 25.8727 5.16724H26.4611C27.0976 5.16724 27.6155 4.64935 27.6155 4.01281C27.6155 3.37626 27.0976 2.85838 26.4611 2.85838C26.2899 2.85838 26.1507 2.71916 26.1507 2.54803C26.1507 2.37685 26.2899 2.23763 26.4611 2.23763ZM22.2119 4.99669L22.3333 5.3218L16.2703 12.0372C15.9333 11.8473 15.5449 11.7383 15.1313 11.7383C15.0452 11.7383 14.9603 11.7434 14.8765 11.7526L12.3536 4.99676H22.2119V4.99669ZM8.17491 1.24659C8.17491 1.11916 8.27849 1.01559 8.40585 1.01559H13.3581C13.7505 1.01559 14.1075 1.20733 14.324 1.51987H12.5451C12.0412 1.51987 11.5736 1.79206 11.3246 2.23009C11.2472 2.36647 11.1016 2.45123 10.9447 2.45123H9.37949C8.71535 2.45116 8.17491 1.91078 8.17491 1.24659ZM11.5928 5.72347L13.9581 12.0569C13.8131 12.1419 13.678 12.2419 13.5551 12.3551C13.0963 10.5675 11.9357 9.05856 10.386 8.13958L11.5928 5.72347Z" fill="black"/>
</svg>
