<svg width="21" height="20" viewBox="0 0 21 20" fill="none" xmlns="http://www.w3.org/2000/svg">
<path d="M20.5964 7.83052C20.5275 7.61837 20.3442 7.46376 20.1235 7.43173L13.9234 6.53076L11.1505 0.912538C11.0519 0.712539 10.8482 0.585938 10.6252 0.585938C10.4021 0.585938 10.1984 0.712539 10.0997 0.912538L7.32677 6.53076L1.12679 7.43173C0.906131 7.46376 0.722734 7.61837 0.653828 7.83048C0.584883 8.04263 0.642382 8.27548 0.802108 8.43114L5.28834 12.8043L4.22944 18.9794C4.1917 19.1993 4.28209 19.4214 4.46252 19.5525C4.56459 19.6266 4.68549 19.6644 4.80698 19.6644C4.90026 19.6644 4.99385 19.6422 5.07955 19.5971L10.6251 16.6815L16.1704 19.597C16.3679 19.7008 16.6071 19.6836 16.7875 19.5525C16.9679 19.4214 17.0584 19.1992 17.0207 18.9793L15.9614 12.8043L20.4482 8.4311C20.6079 8.27548 20.6654 8.04263 20.5964 7.83052Z" fill="url(#paint0_linear)"/>
<defs>
<linearGradient id="paint0_linear" x1="7.50012" y1="3.375" x2="15.0001" y2="19.6644" gradientUnits="userSpaceOnUse">
<stop stop-color="#FFF387"/>
<stop offset="1" stop-color="#F4C753"/>
</linearGradient>
</defs>
</svg>
