<svg width="48" height="36" viewBox="0 0 48 36" fill="none" xmlns="http://www.w3.org/2000/svg">
<g clip-path="url(#clip0)">
<path d="M36.1437 21.4001C32.8174 21.4001 30.1113 24.1848 30.1113 27.6078C30.1113 31.0308 32.8174 33.8155 36.1437 33.8155C39.4705 33.8155 42.176 31.0308 42.176 27.6078C42.176 24.1848 39.47 21.4001 36.1437 21.4001ZM36.1437 30.7117C34.4803 30.7117 33.1275 29.3196 33.1275 27.6078C33.1275 25.8961 34.4803 24.504 36.1437 24.504C37.807 24.504 39.1598 25.8961 39.1598 27.6078C39.1598 29.3197 37.807 30.7117 36.1437 30.7117Z" fill="#234F14"/>
<path d="M15.5333 21.4001C12.207 21.4001 9.50098 24.1848 9.50098 27.6078C9.50098 31.0308 12.207 33.8155 15.5333 33.8155C18.8596 33.8155 21.5657 31.0308 21.5657 27.6078C21.5657 24.1848 18.8596 21.4001 15.5333 21.4001ZM15.5333 30.7117C13.8699 30.7117 12.5171 29.3196 12.5171 27.6078C12.5171 25.8961 13.8699 24.504 15.5333 24.504C17.1962 24.504 18.5495 25.8961 18.5495 27.6078C18.5495 29.3197 17.1967 30.7117 15.5333 30.7117Z" fill="#234F14"/>
<path d="M40.2063 3.63148C39.9499 3.10745 39.4287 2.77686 38.8586 2.77686H30.916V5.88071H37.9286L42.0351 14.2859L44.7305 12.8912L40.2063 3.63148Z" fill="#234F14"/>
<path d="M31.6192 26.1074H20.208V29.2113H31.6192V26.1074Z" fill="#234F14"/>
<path d="M11.0094 26.1074H5.78148C4.94847 26.1074 4.27344 26.8022 4.27344 27.6593C4.27344 28.5165 4.94857 29.2112 5.78148 29.2112H11.0095C11.8425 29.2112 12.5176 28.5164 12.5176 27.6593C12.5176 26.8021 11.8424 26.1074 11.0094 26.1074Z" fill="#234F14"/>
<path d="M47.5402 16.6199L44.5739 12.6884C44.2889 12.3097 43.849 12.0883 43.383 12.0883H32.4242V1.22485C32.4242 0.367634 31.7491 -0.327026 30.9162 -0.327026H5.78148C4.94847 -0.327026 4.27344 0.36773 4.27344 1.22485C4.27344 2.08197 4.94857 2.77673 5.78148 2.77673H29.4081V13.6401C29.4081 14.4974 30.0832 15.192 30.9161 15.192H42.6445L44.8407 18.1034V26.1072H40.6684C39.8354 26.1072 39.1603 26.802 39.1603 27.6591C39.1603 28.5163 39.8354 29.211 40.6684 29.211H46.3488C47.1818 29.211 47.8568 28.5162 47.8569 27.6591V17.5718C47.8569 17.2272 47.7453 16.892 47.5402 16.6199Z" fill="#234F14"/>
<path d="M10.9091 18.2443H3.97191C3.1389 18.2443 2.46387 18.939 2.46387 19.7961C2.46387 20.6534 3.139 21.348 3.97191 21.348H10.909C11.742 21.348 12.4171 20.6533 12.4171 19.7961C12.4172 18.939 11.742 18.2443 10.9091 18.2443Z" fill="#234F14"/>
<path d="M14.377 12.1403H1.50804C0.675131 12.1403 0 12.835 0 13.6922C0 14.5494 0.675131 15.2441 1.50804 15.2441H14.377C15.21 15.2441 15.8851 14.5494 15.8851 13.6922C15.8851 12.8351 15.21 12.1403 14.377 12.1403Z" fill="#234F14"/>
<path d="M16.8409 6.03625H3.97191C3.1389 6.03625 2.46387 6.73101 2.46387 7.58813C2.46387 8.44535 3.139 9.14001 3.97191 9.14001H16.8409C17.6739 9.14001 18.3489 8.44525 18.3489 7.58813C18.349 6.73101 17.6739 6.03625 16.8409 6.03625Z" fill="#234F14"/>
</g>
<defs>
<clipPath id="clip0">
<rect width="48" height="36" fill="white"/>
</clipPath>
</defs>
</svg>
