<svg width="28" height="30" viewBox="0 0 28 30" fill="none" xmlns="http://www.w3.org/2000/svg">
<path d="M14 14.7C10.2369 14.7 7.175 11.6381 7.175 7.875C7.175 4.11192 10.2369 1.05 14 1.05C17.7631 1.05 20.825 4.11192 20.825 7.875C20.825 11.6381 17.7631 14.7 14 14.7ZM14 2.825C11.2151 2.825 8.95 5.09013 8.95 7.875C8.95 10.6599 11.2151 12.925 14 12.925C16.7849 12.925 19.05 10.6599 19.05 7.875C19.05 5.09013 16.7849 2.825 14 2.825Z" fill="#9C9C9C" stroke="white" stroke-width="0.6"/>
<path d="M14.1607 16.7008L14.1607 16.7008L14.1578 16.7007L14.0014 16.7L13.9986 16.7L13.8422 16.7007L13.8422 16.7007L13.8393 16.7008C7.86785 16.7866 3.0125 21.7134 3.0125 27.6875C3.0125 28.0723 2.8881 28.3333 2.72744 28.4968C2.56434 28.6627 2.34602 28.7469 2.125 28.7469C1.90398 28.7469 1.68566 28.6627 1.52256 28.4968C1.3619 28.3333 1.2375 28.0723 1.2375 27.6875C1.2375 24.3094 2.54363 21.1266 4.91628 18.7226C7.28633 16.3213 10.4467 14.9734 13.8177 14.9259C13.8181 14.9259 13.8186 14.9259 13.8191 14.9259L13.8329 14.9258L13.833 14.9258L13.9987 14.925L14.0001 14.925L14.1671 14.9257L14.1672 14.9257L14.1809 14.9258C14.1814 14.9258 14.1819 14.9258 14.1823 14.9258C17.5533 14.9732 20.7137 16.3212 23.0837 18.7225C25.4564 21.1265 26.7625 24.3094 26.7625 27.6875C26.7625 28.0723 26.6381 28.3333 26.4774 28.4968C26.3143 28.6627 26.096 28.7469 25.875 28.7469C25.654 28.7469 25.4357 28.6627 25.2726 28.4968C25.1119 28.3333 24.9875 28.0723 24.9875 27.6875C24.9875 21.7134 20.1321 16.7866 14.1607 16.7008Z" fill="#9C9C9C" stroke="white" stroke-width="0.6"/>
</svg>
