<svg width="23" height="14" viewBox="0 0 23 14" fill="none" xmlns="http://www.w3.org/2000/svg">
<path d="M16.8817 0.654297H1.70123C1.12302 0.654297 0.654297 1.12302 0.654297 1.70123V11.1236C0.654297 11.7018 1.12302 12.1705 1.70123 12.1705H16.8817C17.4599 12.1705 17.9287 11.7018 17.9287 11.1236V1.70123C17.9287 1.12302 17.4599 0.654297 16.8817 0.654297Z" fill="url(#paint0_linear)"/>
<path d="M0.654297 3.27173H17.9287V5.43102H0.654297V3.27173Z" fill="url(#paint1_linear)"/>
<path d="M18.1577 13.3483C20.4524 13.3483 22.3127 11.4881 22.3127 9.19334C22.3127 6.89859 20.4524 5.03833 18.1577 5.03833C15.8629 5.03833 14.0027 6.89859 14.0027 9.19334C14.0027 11.4881 15.8629 13.3483 18.1577 13.3483Z" fill="#CBE4C2"/>
<path d="M1.70126 12.8249H15.0104C15.5833 13.3216 16.2655 13.6757 17.0014 13.8584C17.7373 14.0411 18.5059 14.0471 19.2446 13.876C19.9833 13.7048 20.671 13.3614 21.2516 12.8738C21.8322 12.3861 22.2892 11.7681 22.5853 11.0701C22.8814 10.3721 23.0083 9.61391 22.9554 8.85753C22.9026 8.10116 22.6716 7.368 22.2813 6.71794C21.8911 6.06787 21.3526 5.51934 20.7098 5.11713C20.0671 4.71492 19.3383 4.47044 18.583 4.40366V1.70126C18.5825 1.25022 18.4031 0.817784 18.0842 0.498844C17.7652 0.179904 17.3328 0.000502254 16.8818 0H1.70126C1.25021 0.000502254 0.817783 0.179904 0.498843 0.498844C0.179903 0.817784 0.000502253 1.25022 0 1.70126V11.1237C0.000502253 11.5747 0.179903 12.0071 0.498843 12.3261C0.817783 12.645 1.25021 12.8244 1.70126 12.8249ZM1.30866 11.1237V6.08529H14.4919C13.8599 6.82796 13.4694 7.74561 13.3722 8.71592C13.2751 9.68622 13.4761 10.6631 13.9483 11.5163H1.70126C1.59717 11.5162 1.49737 11.4748 1.42377 11.4011C1.35016 11.3275 1.30877 11.2277 1.30866 11.1237ZM1.30866 3.926H17.2744V4.46674C16.9246 4.53172 16.5831 4.63567 16.2564 4.77663H1.30866V3.926ZM21.6584 9.19337C21.6584 9.88574 21.4531 10.5626 21.0684 11.1382C20.6838 11.7139 20.137 12.1626 19.4974 12.4276C18.8577 12.6925 18.1538 12.7619 17.4748 12.6268C16.7957 12.4917 16.1719 12.1583 15.6824 11.6687C15.1928 11.1791 14.8594 10.5554 14.7243 9.87632C14.5892 9.19726 14.6586 8.49339 14.9235 7.85372C15.1885 7.21406 15.6372 6.66732 16.2128 6.28266C16.7885 5.89801 17.4653 5.69269 18.1577 5.69269C19.0858 5.69375 19.9756 6.06291 20.6319 6.71919C21.2882 7.37546 21.6573 8.26526 21.6584 9.19337ZM1.70126 1.30867H16.8818C16.9859 1.30877 17.0857 1.35017 17.1593 1.42377C17.2329 1.49737 17.2743 1.59717 17.2744 1.70126V2.61733H1.30866V1.70126C1.30877 1.59717 1.35016 1.49737 1.42377 1.42377C1.49737 1.35017 1.59717 1.30877 1.70126 1.30867Z" fill="black"/>
<path d="M8.1136 7.26318H2.81351C2.63997 7.26318 2.47354 7.33212 2.35083 7.45483C2.22812 7.57754 2.15918 7.74398 2.15918 7.91752C2.15918 8.09106 2.22812 8.25749 2.35083 8.3802C2.47354 8.50291 2.63997 8.57185 2.81351 8.57185H8.1136C8.28714 8.57185 8.45357 8.50291 8.57629 8.3802C8.699 8.25749 8.76793 8.09106 8.76793 7.91752C8.76793 7.74398 8.699 7.57754 8.57629 7.45483C8.45357 7.33212 8.28714 7.26318 8.1136 7.26318Z" fill="black"/>
<path d="M16.4827 8.74431C16.4113 8.6957 16.3309 8.66174 16.2462 8.64439C16.1615 8.62703 16.0742 8.62662 15.9894 8.64318C15.9046 8.65974 15.8239 8.69294 15.7519 8.74087C15.68 8.7888 15.6183 8.8505 15.5704 8.92241C15.5224 8.99433 15.4892 9.07503 15.4726 9.15986C15.456 9.24468 15.4564 9.33196 15.4737 9.41663C15.4911 9.50131 15.525 9.58171 15.5736 9.65319C15.6222 9.72468 15.6845 9.78583 15.7568 9.83312L17.3272 10.88C17.4634 10.9709 17.6287 11.0073 17.7905 10.9822C17.9523 10.9571 18.0988 10.8722 18.2011 10.7444L20.2949 8.12708C20.3491 8.06003 20.3895 7.98295 20.4138 7.90024C20.4381 7.81754 20.4458 7.73086 20.4365 7.64517C20.4272 7.55948 20.401 7.47648 20.3595 7.40093C20.318 7.32537 20.262 7.25876 20.1947 7.20491C20.1274 7.15107 20.0501 7.11105 19.9673 7.08716C19.8845 7.06327 19.7978 7.05598 19.7121 7.0657C19.6265 7.07542 19.5436 7.10197 19.4683 7.14382C19.3929 7.18567 19.3266 7.24199 19.2731 7.30955L17.5536 9.45845L16.4827 8.74431Z" fill="black"/>
<defs>
<linearGradient id="paint0_linear" x1="2.40045" y1="13.3035" x2="16.1825" y2="-0.478613" gradientUnits="userSpaceOnUse">
<stop stop-color="#618C51"/>
<stop offset="1" stop-color="#C3F2B3"/>
</linearGradient>
<linearGradient id="paint1_linear" x1="2587.49" y1="436.75" x2="2666.42" y2="-194.694" gradientUnits="userSpaceOnUse">
<stop stop-color="#85A66B"/>
<stop offset="1" stop-color="#9D8B8B"/>
</linearGradient>
</defs>
</svg>
