<svg width="88" height="88" viewBox="0 0 88 88" fill="none" xmlns="http://www.w3.org/2000/svg">
<path d="M43.9997 46.5998C54.8961 46.5998 63.7304 36.2602 63.7304 23.5057C63.7304 5.81879 54.8965 0.411865 43.9997 0.411865C33.1024 0.411865 24.2689 5.81879 24.2689 23.5057C24.2691 36.2602 33.1026 46.5998 43.9997 46.5998Z" fill="black" fill-opacity="0.15"/>
<path d="M87.569 80.5912L77.6146 58.1671C77.1593 57.141 76.3595 56.2899 75.3639 55.7716L59.9153 47.7296C59.5746 47.5526 59.1621 47.587 58.8558 47.8189C54.4864 51.1237 49.349 52.8705 43.9995 52.8705C38.6492 52.8705 33.5122 51.1237 29.1427 47.8189C28.8356 47.587 28.4231 47.5526 28.0824 47.7296L12.6349 55.7716C11.6389 56.2899 10.8399 57.1405 10.3842 58.1671L0.429755 80.5912C-0.256541 82.1371 -0.115884 83.9059 0.806131 85.3238C1.72771 86.7416 3.28742 87.5877 4.97853 87.5877H83.0198C84.7109 87.5877 86.2711 86.7412 87.1927 85.3236C88.1142 83.9059 88.2553 82.1365 87.569 80.5912Z" fill="black" fill-opacity="0.15"/>
</svg>
